<svg xmlns="http://www.w3.org/2000/svg" viewBox="0 0 95.39 95.39"><defs><style>.cls-1{fill:#fff;}.cls-2{fill:none;stroke:#fff;stroke-miterlimit:10;stroke-width:3px;}</style></defs><title>Asset 2</title><g id="Layer_2" data-name="Layer 2"><g id="Layer_1-2" data-name="Layer 1"><path class="cls-1" d="M41.9,51.79a6.56,6.56,0,0,1,.73-3.37,6.1,6.1,0,0,1,2.51-2.13c.71-.37,1.77-.89,3.17-1.54q7.78-3.6,7.79-8.43a7.54,7.54,0,0,0-2.57-5.91,9.83,9.83,0,0,0-6.77-2.28,16.94,16.94,0,0,0-5.1.74,5.1,5.1,0,0,0-2.85,1.6,4.8,4.8,0,0,0-.23,1.14c-.22,2.38-1.15,3.56-2.81,3.56a2.55,2.55,0,0,1-2.08-.94,4,4,0,0,1-.77-2.54V27.82q0-2.17,4.27-3.68a31.62,31.62,0,0,1,10.4-1.5,15.17,15.17,0,0,1,10.74,3.83,12.92,12.92,0,0,1,4.13,9.93,11.13,11.13,0,0,1-3.35,8.21Q55.77,48,47.87,50.88V54A2.82,2.82,0,0,1,47,56.16a3,3,0,0,1-2.18.81,3,3,0,0,1-2.18-.75,2.82,2.82,0,0,1-.77-2.1Zm-4.35,15a5.3,5.3,0,0,1,2-4.28,8,8,0,0,1,5.28-1.66,8.2,8.2,0,0,1,5.33,1.64,5.58,5.58,0,0,1,0,8.61,8.17,8.17,0,0,1-5.31,1.66,8,8,0,0,1-5.27-1.68A5.34,5.34,0,0,1,37.55,66.78Z"/><circle class="cls-2" cx="47.69" cy="47.69" r="46.19"/></g></g></svg>