<svg xmlns="http://www.w3.org/2000/svg" viewBox="0 0 177.15 206.79"><defs><style>.cls-1{fill:#9e1f63;}</style></defs><title>Asset 4</title><g id="Layer_2" data-name="Layer 2"><g id="Layer_1-2" data-name="Layer 1"><path class="cls-1" d="M16.72,50.63c4,0,8,0,12,0,2.84,0,4.67,1.66,4.66,4.07s-1.67,4-4.43,4q-12.34.12-24.69,0C1.48,58.72-.06,57,0,54.55s1.73-3.88,4.5-3.91C8.57,50.6,12.65,50.63,16.72,50.63Z"/><path class="cls-1" d="M16.26,15.2a19.73,19.73,0,0,1,3.58,2.12q8.75,8.57,17.33,17.28a4.28,4.28,0,0,1,.28,6c-1.74,1.72-4,1.67-6-.3C25.62,34.55,19.81,28.71,14,22.87c-1.27-1.27-2.05-2.86-1-4.48A18.91,18.91,0,0,1,16.26,15.2Z"/><path class="cls-1" d="M165.12,186.94c-1.19,1.36-2,3-3.15,3.42a5.27,5.27,0,0,1-4.26-.69,62.63,62.63,0,0,1-6.08-5.9c-3.76-3.76-7.54-7.51-11.29-11.29-2.25-2.28-2.46-4.76-.6-6.52s4.11-1.41,6.34.81c5.47,5.46,11,10.91,16.38,16.43A30.42,30.42,0,0,1,165.12,186.94Z"/><path class="cls-1" d="M54.44,16.73c0,4.09,0,8.17,0,12.25,0,2.68-1.73,4.47-4,4.42a4,4,0,0,1-3.88-4.34q0-12.49,0-25A3.95,3.95,0,1,1,54.41,4C54.48,8.23,54.43,12.48,54.44,16.73Z"/><path class="cls-1" d="M160.27,156c-4,0-8,0-12,0-2.8,0-4.71-1.73-4.64-4.07s1.83-3.86,4.57-3.87q12.22,0,24.43,0c2.74,0,4.46,1.59,4.48,3.93s-1.8,4-4.66,4C168.41,156,164.34,156,160.27,156Z"/><path class="cls-1" d="M130.64,190c0,4,.05,8,0,12,0,3-1.58,4.75-4,4.8s-4.1-1.91-4.1-4.91q0-11.83,0-23.69c0-3,1.65-4.95,4.08-4.92s3.94,1.81,4,4.78C130.69,182,130.64,186,130.64,190Z"/></g></g></svg>