<svg xmlns="http://www.w3.org/2000/svg" viewBox="0 0 223.54 223.61"><defs><style>.cls-1{fill:#9e1f63;}</style></defs><title>Asset 3</title><g id="Layer_2" data-name="Layer 2"><g id="Layer_1-2" data-name="Layer 1"><path class="cls-1" d="M223.54,49.66C223.6,65,218.11,77,208.23,87c-16.22,16.41-32.64,32.63-48.93,49-8.85,8.88-19.45,14.39-31.89,15.52-15.26,1.38-28.76-3.18-40-13.78-2.29-2.16-2.5-4.44-.76-6.36,1.49-1.65,4.12-1.64,6.22.33A41.75,41.75,0,0,0,110.59,142c15.9,4.28,30,.75,41.65-10.68,17.63-17.24,35-34.77,52.31-52.32,7.33-7.43,10.54-16.66,11-27.08a41.55,41.55,0,0,0-30-42.05c-15.7-4.59-30.13-1.23-42,10.28-12.21,11.81-24,24-36,36-.71.71-1.4,1.43-2.12,2.12-2.54,2.42-5,2.73-6.78.89S97.25,55,99.65,52.61c4.81-4.85,9.61-9.71,14.46-14.52,8.68-8.63,17-17.65,26.2-25.73C151.82,2.23,165.52-1.73,180.89.69c22.24,3.52,39.1,20.41,42.3,42.59A60.63,60.63,0,0,1,223.54,49.66Z"/><path class="cls-1" d="M50.57,223.61A50.42,50.42,0,0,1,1.18,183.43c-3.54-17.21.88-32.71,13.14-45.34,16.41-16.92,33-33.64,50-50,11-10.52,24.55-14.5,39.74-12.9A49.71,49.71,0,0,1,132.89,88.3a11.65,11.65,0,0,1,1.4,1.41,3.87,3.87,0,0,1-.18,5.43,3.78,3.78,0,0,1-5.23.24c-2.85-2.14-5.44-4.69-8.46-6.55-16-9.88-37-8-50.51,5.12Q44,119.12,18.92,145.1C8.45,156,5.84,169.52,9.62,183.86c4.57,17.36,16.38,27.66,33.91,30.88,14.31,2.63,26.82-1.62,37.2-11.86s20.9-20.81,31.41-31.15a7.83,7.83,0,0,1,4.1-2.36,4.4,4.4,0,0,1,3.47,2c.54,1.05-.09,2.72-.28,4.1,0,.28-.4.52-.63.76C107.28,187.73,96,199.39,84.18,210.58,74.88,219.42,63.44,223.56,50.57,223.61Z"/></g></g></svg>