<svg xmlns="http://www.w3.org/2000/svg" viewBox="0 0 153.22 50.77"><defs><style>.cls-1{fill:#2f3490;}</style></defs><title>Asset 2</title><g id="Layer_2" data-name="Layer 2"><g id="Layer_1-2" data-name="Layer 1"><path class="cls-1" d="M90.31,9.73c-16-6.32-24.69,0-24.69,0C56.59-7.43,0,6.12,0,6.12v7.32l5.31.76c.75,7.83,4,9.09,4,9.09C10.86,36.68,17.43,42,17.43,42,39.16,60.16,54.5,44.51,54.5,44.51c12.82-7.12,14.44-30.26,14.44-30.26,8.55-4.75,17.46,0,17.46,0C88.67,33,97.58,50.71,121,48.81s24.17-26.24,24.17-26.24c1.71.54,2.32-8,2.32-8h5.72V5.39C97.23-8.89,90.31,9.73,90.31,9.73ZM59.71,37.29c-9.15,14.44-25.44,11.44-26,11.37-.17.77-15-3.33-19.11-13.55C12.57,30,8.83,23.17,11.57,11.64A16.6,16.6,0,0,1,23.34,4.39c8.15-1,18.23-2,27.34,0S63,11.56,63.26,13.1,68.86,22.83,59.71,37.29Zm83.52-8.78s-3.32,11-12.77,15.65-26.75,3-32.06-4c-5.72-7.62-12.14-15.87-6.07-29.5,0,0,4.69-7.37,16.4-7.41,0,0,14-1.94,26,1C147,7.26,143.89,27.38,143.23,28.51Z"/></g></g></svg>