<svg xmlns="http://www.w3.org/2000/svg" viewBox="0 0 178.41 254.11"><defs><style>.cls-1{fill:#744c2c;}.cls-2{fill:#5f3817;}.cls-3{fill:#231f20;}.cls-4{fill:none;stroke:#231f20;stroke-linecap:round;stroke-miterlimit:10;stroke-width:3px;}</style></defs><title>Asset 3</title><g id="Layer_2" data-name="Layer 2"><g id="Layer_1-2" data-name="Layer 1"><path class="cls-1" d="M101.07,101.89c-.71-3.79-.62-10.47,8-12.69,12.22-3.16,32.68,5.45,38.57,13.73s.89,8.44.89,8.44S132.88,97.23,124,98.85c0,0-14.71-3.64-19.43,3.09C104.61,101.94,101.37,103.5,101.07,101.89Z"/><path class="cls-1" d="M29.52,114s7.66-20.76,27.83-24.3S74,101.87,74,101.87s-7.08-5-14.87-2.72-27.54,17.22-27.54,17.22S27.71,117.89,29.52,114Z"/><path class="cls-2" d="M26.37,104.58c.35-.08.21-1.26.16-1.62C26,98.73,23,73.8,28.52,65.08A24.73,24.73,0,0,1,43.38,54a.44.44,0,0,0,.16-.06c.7-.36,5.67-3,6-5.36C49.82,46,57.13,40,64.77,43.78S65.89,39,93.11,63.15l.07.05c1.14.78,30.79,20.94,50.44,20,17.92-.85,15,16.14,14.18,19.72a.69.69,0,0,0,.51.82l8.13,1.89a.69.69,0,0,1,.53.67v7.93a.68.68,0,0,1-.68.69h-4.24a.68.68,0,0,0-.68.78c.59,4,3.23,21.63,3.23,22.19s3.7-15.7,13.22-18.93a.68.68,0,0,0,.47-.61c.19-4.91,1.39-47.1-11.32-65.35-13.5-19.39-26.22-38.47-45.61-43.56a166.89,166.89,0,0,0-30.1-5.17A.68.68,0,0,1,91,3c.59-.3.95-.54.58-.54H86.35A.69.69,0,0,1,86,1.14L88.19,0,71.1,2.3H71L63.89,4a.69.69,0,0,1-.73-1l.74-1.11L56.75,4.55a.69.69,0,0,1-.81-1l.67-1L46.28,7.37a.68.68,0,0,1-.84-1L47.14,4,33.21,13.85a.69.69,0,0,1-1-1l.61-.84a.68.68,0,0,0-.91-1c-4.15,2.49-11.69,7.62-13.6,13a18.6,18.6,0,0,0,0,13.23l-1.51-2.69a.68.68,0,0,0-1.28.34v4.23a.69.69,0,0,1-1.28.36l-2.83-4.69a.69.69,0,0,0-1.27.41c0,.52.11,1.07.2,1.61a.68.68,0,0,1-1.14.61l-1-.94a.69.69,0,0,0-1,0l-6.1,5.94a.7.7,0,0,0-.09.87c.87,1.3,3.39,4.91,5.68,6.38a.69.69,0,0,1,.09,1.12L1.36,55.39a.68.68,0,0,0,.36,1.21,9.69,9.69,0,0,0,3.91-.44.69.69,0,0,1,.75,1.09L1.71,62.86A.68.68,0,0,0,2.42,64a.69.69,0,0,1,.79,1l-2.13,4a.69.69,0,0,0,.81,1L5.71,68.7a.68.68,0,0,1,.85.88A116.15,116.15,0,0,0,.28,96.76C-1.22,111.12,3.77,129,5,133a.67.67,0,0,0,1,.39l7.22-4.07a.69.69,0,0,1,1,.38c.51,1.55,1.16,6.45-.41,21.82,0,0-.89,4,5.71,8a.69.69,0,0,0,1-.74c-1.13-4.91-4-20.82,2.48-34.87a.68.68,0,0,0,0-.56l-3.76-8.47a.73.73,0,0,0-.53-.4l-4.34-.62a.68.68,0,0,1-.59-.68V107a.68.68,0,0,1,.54-.67Z"/><path class="cls-3" d="M41,125.42c1.11.66,3.65-4,10.22-6.79a16.85,16.85,0,0,1,5.52-1.55c8.35-.6,14.7,8,15.11,7.56s-4.25-9.44-13.38-11.34c-5.26-1.09-12.27.13-15.74,4.88C40.62,121.06,40.08,124.88,41,125.42Z"/><path class="cls-3" d="M50.74,126.44s-1.76-6.11.46-7.81,4.26-2.92,8.6-1.37,0,9.18,0,9.18S53.73,128.71,50.74,126.44Z"/><path class="cls-3" d="M141.58,123.86c-1.13.7-3.71-4.27-10.37-7.23a16.7,16.7,0,0,0-5.6-1.64c-8.48-.63-14.92,8.48-15.34,8s4.31-10,13.58-12c5.34-1.16,12.46.13,16,5.18C142,119.22,142.5,123.28,141.58,123.86Z"/><path class="cls-3" d="M129.42,123.24s1.63-5.55-.42-7.09-3.94-2.64-8-1.24,0,8.33,0,8.33S126.66,125.3,129.42,123.24Z"/><path class="cls-2" d="M163.43,152l-22.74,23.87a57.59,57.59,0,0,0-15.13-2.67,5.3,5.3,0,0,1-1.48.2,5.39,5.39,0,0,1-1.17-.12,4.91,4.91,0,0,1-.55,0,5.2,5.2,0,0,1-1.87-.33c-16.28-.32-35.67,2.23-50.81,2.88-22.29,1-16.56,14-25.47,9.55s-24.66-27.46-24.66-27.46l-2.72,9.31s3.38-1,7.51,21,14.77,26.43,16.3,31.2,19.81,21,33.67,30.25,45.36,2.55,54-6.69,25.79-35,30.57-45.85,5.41-22.92,5.41-22.92Z"/><path class="cls-4" d="M85.2,117.25,81.73,171s1.76,6.45,18.64,0"/><path class="cls-1" d="M132.37,185.2s4.41,1.59,5.2,4.23-1.66,5.86,0,6.08c4,.53,2.35-9.08.16-10.31a52.11,52.11,0,0,0-5.36-2.48S130.27,182.94,132.37,185.2Z"/><path class="cls-1" d="M50.6,206.31s-2.72-5.45-1.15-8.53,6.67-3.71,5.32-5.42c-3.24-4.1-10.13,5.95-9.17,9a72.79,72.79,0,0,0,2.83,7.11S50.58,210.24,50.6,206.31Z"/><path class="cls-3" d="M59.91,206.9a165.64,165.64,0,0,0,68.7-10.74c3-1.15,1.69-6-1.33-4.82A162.16,162.16,0,0,1,59.91,201.9c-3.21-.18-3.2,4.82,0,5Z"/><path class="cls-2" d="M136.45,180c4.31.67,8.69-2,11.8-4.84,2.39-2.16-1.15-5.69-3.54-3.53a17.08,17.08,0,0,1-3.19,2.2c-1,.57-2.5,1.54-3.74,1.35a2.58,2.58,0,0,0-3.08,1.74,2.52,2.52,0,0,0,1.75,3.08Z"/></g></g></svg>