<svg xmlns="http://www.w3.org/2000/svg" viewBox="0 0 748.9 749.23"><defs><style>.cls-1{fill:#040402;}.cls-2{fill:#edd41d;}.cls-3{fill:#fafafa;}</style></defs><g id="Layer_2" data-name="Layer 2"><g id="Layer_1-2" data-name="Layer 1"><path class="cls-1" d="M706.91,249.82l42-.06V499.47l-42-.06.12.11a7.12,7.12,0,0,1-.18-.92c.07-1.32.21-2.64.21-4q0-120.3,0-240.61c0-1.16-.13-2.32-.2-3.48a2.67,2.67,0,0,1,.17-.83Z"/><path class="cls-1" d="M42.07,499.41c-12.62,0-25.25-.05-37.88.12-3.06,0-4.19-.51-4.19-4q.17-120.94,0-241.9c0-3.45,1.11-4,4.18-4,12.63.18,25.26.1,37.89.12l-.12-.11a2.27,2.27,0,0,1,.18.81c-.07,1.16-.2,2.32-.2,3.48q0,120.35,0,240.69c0,1.32.13,2.65.2,4a4.85,4.85,0,0,1-.17.86Z"/><path class="cls-1" d="M249.75,42.08c0-12.8.09-25.6-.15-38.4-.07-3.33,1.14-3.68,4-3.68Q374.49.11,495.4,0c2.83,0,4,.35,4,3.68-.25,12.79-.13,25.6-.15,38.4l.09-.1q-54.57,0-109.13-.08-70.28,0-140.53.08Z"/><path class="cls-1" d="M499.22,707.14c0,12.8-.09,25.61.16,38.41.06,3.31-1.12,3.68-4,3.68q-120.92-.11-241.85,0c-2.85,0-4-.38-4-3.69.25-12.8.14-25.6.16-38.4l-.1.11c10.13,0,20.26.09,30.39.09l219.27-.09Z"/><path class="cls-1" d="M499.23,42.08q40.14-.09,80.28-.23c2.14,0,2.83.48,2.8,2.73-.16,12.8-.14,25.61-.19,38.41l.07-.06c-26.53,0-53.06,0-79.58.23-3.21,0-3.35-1.39-3.33-3.86.08-12.44,0-24.88,0-37.32Z"/><path class="cls-1" d="M42.07,249.82q-.07-40.17-.21-80.32c0-2.19.55-2.81,2.77-2.78,12.8.16,25.59.16,38.39.22l-.08-.09q.09,40.46.17,80.92c0,.83,0,1.66-.74,2.22L42,249.71Z"/><path class="cls-1" d="M665.94,167c12.8-.07,25.6-.08,38.4-.25,2.21,0,2.78.6,2.77,2.78q-.18,40.15-.2,80.33l.11-.11-40.68.26a5,5,0,0,1-.44-1.4q0-40.84.12-81.7Z"/><path class="cls-1" d="M166.86,83c-.05-12.8,0-25.61-.19-38.41,0-2.25.67-2.74,2.8-2.73q40.14.2,80.28.22l-.09-.1c0,12.44,0,24.88,0,37.32,0,2.47-.13,3.88-3.33,3.86-26.52-.19-53-.18-79.57-.23Z"/><path class="cls-1" d="M83,582.29c-12.8.06-25.59.06-38.39.22-2.22,0-2.78-.59-2.77-2.77q.2-40.17.21-80.33l-.11.11,40.56-.29a6.42,6.42,0,0,1,.56,1.83q0,40.66-.14,81.32Z"/><path class="cls-1" d="M706.9,499.41c.06,26.78.08,53.56.21,80.34,0,2.19-.58,2.81-2.78,2.78-12.8-.18-25.6-.2-38.4-.27l.08.1q-.06-38.6-.11-77.18c0-2-.5-4,.39-5.89l40.73.23Z"/><path class="cls-1" d="M249.76,707.14q-40.14.09-80.28.23c-2.11,0-2.84-.46-2.81-2.72.15-12.8.14-25.61.18-38.41l-.06.06c26.53,0,53.06,0,79.59-.23,3.2,0,3.33,1.38,3.31,3.85-.09,12.44,0,24.89,0,37.33Z"/><path class="cls-1" d="M582.13,666.25c0,12.63,0,25.27.17,37.91,0,2.09,0,3.26-2.8,3.24-26.76-.18-53.52-.19-80.28-.26l.1.11c0-12.44.05-24.89,0-37.33,0-2.47.12-3.88,3.32-3.85,26.53.18,53.06.18,79.59.24Z"/><path class="cls-1" d="M124.94,124.93c0-12.81,0-25.62-.12-38.43,0-2.87.84-3.57,3.62-3.54,12.8.14,25.61.05,38.42,0l-.07-.07c0,12.45-.21,24.91,0,37.35.06,3.66-.76,4.77-4.58,4.71-12.27-.2-24.55.05-36.82.12a.4.4,0,0,1-.56-.29Z"/><path class="cls-1" d="M582.12,83c12.74,0,25.49.14,38.23,0,3.11,0,3.86.79,3.81,3.83C624,99.52,624,112.26,624,125l.11-.11c-12.61,0-25.23-.14-37.84.06-3.35.05-4.09-1-4-4.18.15-12.61,0-25.23,0-37.85Z"/><path class="cls-1" d="M83,166.94c0-12.75.1-25.5-.09-38.24-.05-3,.66-3.91,3.78-3.87,12.74.2,25.49.1,38.23.1l-.1-.11q.14,20.73.25,41.44c-1.54.92-3.24.47-4.86.48-12.43.07-24.86.08-37.29.11Z"/><path class="cls-1" d="M624,125c12.92,0,25.84,0,38.76-.15,2.61,0,3.31.71,3.28,3.32-.15,12.93-.08,25.85-.09,38.78l.08-.09c-12.62,0-25.23-.19-37.84,0-3.22,0-4.2-.74-4.15-4.07.2-12.62.07-25.24.07-37.86Z"/><path class="cls-1" d="M124.94,624.29c-12.75,0-25.49-.1-38.24.11-3.13.05-3.81-.84-3.77-3.87.19-12.74.09-25.49.09-38.24l-.08.09c10.14,0,20.28,0,30.41.14,3.92.07,7.92-.84,11.77.64q-.14,20.61-.28,41.24Z"/><path class="cls-1" d="M665.93,582.26c0,12.75-.08,25.51.11,38.26,0,3-.59,3.93-3.75,3.88-12.75-.21-25.5-.11-38.25-.12l.11.11L624,582.73l42-.37Z"/><path class="cls-1" d="M166.85,666.24c-12.8,0-25.61-.1-38.42,0-2.79,0-3.64-.69-3.61-3.55.17-12.81.1-25.62.12-38.43l-.1.11a.61.61,0,0,1,.66-.27c11.93.08,23.86.42,35.77.09,4.77-.13,5.63,1.45,5.54,5.78-.27,12.1-.05,24.2,0,36.3Z"/><path class="cls-1" d="M624,624.28c0,12.81,0,25.62.11,38.43,0,2.85-.8,3.59-3.6,3.56-12.8-.13-25.61,0-38.42,0l.06.06c0-12.65.19-25.3,0-37.94-.05-3.36,1-4.12,4.17-4.09,12.3.11,24.6-.08,36.9-.16a1.42,1.42,0,0,1,.89.27Z"/><path class="cls-2" d="M666.8,715.29c-.83,2.53.36,5.34-1.79,7.71.17-2.59.33-5.18.5-7.77Z"/><path class="cls-2" d="M623.26,624.12c-12.3.08-24.6.27-36.9.16-3.2,0-4.22.73-4.17,4.09.19,12.64,0,25.29,0,37.94-26.53-.06-53.06-.06-79.59-.24-3.2,0-3.34,1.38-3.32,3.85.09,12.44,0,24.89,0,37.33l-219.27.09c-10.13,0-20.26-.06-30.39-.09,0-12.44-.06-24.89,0-37.33,0-2.47-.11-3.87-3.31-3.85-26.53.18-53.06.18-79.59.23,0-12.1-.25-24.2,0-36.3.09-4.33-.77-5.91-5.54-5.78-11.91.33-23.84,0-35.77-.09-.25-13.66.49-27.32-.38-41-3.85-1.48-7.85-.57-11.77-.64-10.13-.18-20.27-.11-30.41-.14q.09-40.67.14-81.32a6.72,6.72,0,0,0-.55-1.83c-1.55-.89-3.23-.4-4.85-.41-11.85-.08-23.7-.11-35.55-.16-.07-1.32-.2-2.65-.2-4q0-120.35,0-240.69c0-1.16.13-2.32.2-3.48L82.37,250c.78-.56.74-1.39.74-2.22q-.09-40.47-.17-80.92c12.43,0,24.86,0,37.29-.11,1.62,0,3.32.44,4.86-.47.87-13.71.27-27.44.31-41.16,12.27-.07,24.55-.32,36.82-.12,3.82.06,4.64-1,4.58-4.71-.22-12.44,0-24.9,0-37.35,26.53,0,53.05,0,79.57.23,3.2,0,3.35-1.39,3.33-3.86-.08-12.44,0-24.88,0-37.32q70.26,0,140.53-.08,54.56,0,109.13.08c0,12.44,0,24.88,0,37.32,0,2.47.12,3.88,3.33,3.86,26.52-.19,53-.18,79.58-.23,0,12.62.17,25.24,0,37.85,0,3.19.7,4.23,4,4.18,12.61-.2,25.23-.06,37.84-.06,0,12.62.13,25.24-.07,37.86,0,3.33.93,4.11,4.15,4.07,12.61-.15,25.22,0,37.84,0q-.07,40.86-.12,81.7a5.37,5.37,0,0,0,.43,1.4c0,.14,0,.28,0,.43a2.08,2.08,0,0,1,.48-.11l40.08.25c.07,1.16.2,2.32.2,3.48q0,120.3,0,240.61c0,1.33-.14,2.65-.21,4-3.13.07-6.27.12-9.4.21-10.38.28-20.78-.61-31.15.48-.89,1.91-.39,3.93-.39,5.89q0,38.59.11,77.18l-42,.37c-1,1.33-.45,2.86-.47,4.29Q623.35,605.58,623.26,624.12Z"/><path class="cls-3" d="M706.85,250.54l-40.08-.25a2.08,2.08,0,0,0-.48.11c0-.15,0-.29,0-.43l40.69-.26A2.67,2.67,0,0,0,706.85,250.54Z"/><path class="cls-3" d="M666.29,499.29c10.37-1.09,20.77-.2,31.15-.48,3.13-.09,6.27-.14,9.4-.21a7.12,7.12,0,0,0,.18.92Z"/><path class="cls-3" d="M82.37,250l-40.24.53a2.27,2.27,0,0,0-.18-.81Z"/><path class="cls-3" d="M42.13,498.66c11.85,0,23.7.08,35.55.16,1.62,0,3.3-.48,4.85.41L42,499.52A4.85,4.85,0,0,0,42.13,498.66Z"/><path class="cls-3" d="M125.4,125.11c0,13.72.56,27.45-.31,41.16q-.12-20.73-.25-41.45A.4.4,0,0,0,125.4,125.11Z"/><path class="cls-3" d="M125.12,583.16c.87,13.65.13,27.31.38,41a.61.61,0,0,0-.66.27Q125,603.78,125.12,583.16Z"/><path class="cls-3" d="M623.26,624.12q.12-18.54.27-37.1c0-1.43-.51-3,.47-4.29l.15,41.66A1.42,1.42,0,0,0,623.26,624.12Z"/></g></g></svg>