<svg xmlns="http://www.w3.org/2000/svg" viewBox="0 0 250.08 250.11"><defs><style>.cls-1{fill:#fefefe;}</style></defs><title>Asset 2</title><g id="Layer_2" data-name="Layer 2"><g id="Layer_1-2" data-name="Layer 1"><path class="cls-1" d="M250.08,2.21C250.08.49,249.84,0,248,0Q125,.09,2,0C.24,0,0,.44,0,2.09Q.08,63.44,0,124.8t0,123c0,1.82.31,2.34,2.26,2.34q122.85-.09,245.69,0c1.89,0,2.13-.49,2.13-2.21Q250,125.05,250.08,2.21Zm-83.8,52.68c0-5.14,3.16-8.54,8.25-8.75,3.41-.15,6.84-.14,10.25,0,5.17.21,8.33,3.54,8.35,8.63q0,20.13,0,40.25c0,.74-.08,1.47-.14,2.55-3.67-3.6-7.08-6.87-10.4-10.23-5-5-9.82-10.19-14.8-15.23a4.77,4.77,0,0,1-1.58-3.72C166.32,63.89,166.25,59.39,166.28,54.89Zm57.48,88.19a6.06,6.06,0,0,1-6.28,3.61c-.91-.05-1.83,0-2.75,0-4.76,0-7.06,2.32-7.09,7,0,4.41-.06,8.82-.09,13.23,0,14.83.06,29.65,0,44.47,0,4.47-2.61,6.87-7.12,6.88q-25.86,0-51.72,0c-4.57,0-6.8-2.35-6.82-7q-.07-15.87-.14-31.73c0-5.35-2.25-7.57-7.61-7.58q-8.37,0-16.74,0c-5.25,0-7.62,2.32-7.64,7.62,0,10.58,0,21.16-.06,31.73,0,4.65-2.24,7-6.86,7q-25.86,0-51.73,0c-4.68,0-7-2.42-7-7.12q0-22.11,0-44.22c0-4.42,0-8.83-.08-13.24,0-4.13-2.3-6.5-6.44-6.7-2-.1-4,0-6,0-2.81,0-5-1.18-6.13-3.88s-.33-4.95,1.7-7q23.05-23.39,46-46.85,23.64-24.06,47.33-48.07c2.75-2.79,5.77-3.17,8.46-1.08a24.88,24.88,0,0,1,2.52,2.41q22.41,23.15,44.8,46.3,16.69,17.22,33.4,34.41c4.12,4.24,8.28,8.44,12.4,12.67C224.37,138.26,225,140.57,223.76,143.08Z"/></g></g></svg>