<svg xmlns="http://www.w3.org/2000/svg" viewBox="0 0 199.45 179.57"><defs><style>.cls-1{fill:#fff;}</style></defs><title>Asset 1</title><g id="Layer_2" data-name="Layer 2"><g id="Layer_1-2" data-name="Layer 1"><path class="cls-1" d="M198.84,104.33a6.06,6.06,0,0,1-6.28,3.61c-.91,0-1.83,0-2.75,0-4.76,0-7.06,2.32-7.09,7,0,4.41-.06,8.82-.09,13.23,0,14.83.06,29.65,0,44.47,0,4.47-2.61,6.87-7.12,6.88q-25.86,0-51.72,0c-4.57,0-6.8-2.35-6.82-7q-.08-15.87-.14-31.73c0-5.35-2.25-7.57-7.61-7.58q-8.37,0-16.74,0c-5.25,0-7.62,2.32-7.64,7.62,0,10.58,0,21.16-.06,31.73,0,4.65-2.24,7-6.86,7q-25.86,0-51.73,0c-4.68,0-7-2.42-7-7.12q0-22.11,0-44.22c0-4.42,0-8.83-.08-13.24,0-4.13-2.3-6.5-6.44-6.7-2-.1-4,0-6,0-2.81,0-5-1.18-6.13-3.88s-.33-4.95,1.7-7q23.06-23.39,46-46.85Q71.86,26.42,95.55,2.41C98.3-.38,101.32-.76,104,1.33a24.88,24.88,0,0,1,2.52,2.41q22.41,23.15,44.8,46.3Q168,67.26,184.73,84.45c4.12,4.24,8.28,8.44,12.4,12.67C199.45,99.51,200.05,101.82,198.84,104.33Z"/><path class="cls-1" d="M168.11,58.82c-3.67-3.6-7.08-6.87-10.4-10.23-5-5.05-9.83-10.19-14.8-15.23a4.8,4.8,0,0,1-1.59-3.72c.08-4.5,0-9,0-13.5,0-5.14,3.16-8.53,8.25-8.75,3.41-.15,6.84-.14,10.25,0,5.16.21,8.33,3.54,8.35,8.63q0,20.13,0,40.25C168.25,57,168.17,57.74,168.11,58.82Z"/></g></g></svg>