<svg xmlns="http://www.w3.org/2000/svg" viewBox="0 0 414.01 415"><defs><style>.cls-1{fill:#fff;}</style></defs><title>Asset 1</title><g id="Layer_2" data-name="Layer 2"><g id="Layer_1-2" data-name="Layer 1"><path class="cls-1" d="M414,415H0V0H414ZM219.82,234.88c56.91-9.08,98.21-59,93.44-117.72-4.39-54-49.43-97.77-102.83-100.33-55.92-2.68-104.54,35.25-114.49,89.78-4.87,26.67-.59,52.05,13.47,75.36,17.92,29.72,44.57,46.9,78.46,52.92V299.1H125.76v31.38h62.69v62.27h31.33V330.16h62.13V298.77H219.82Z"/><path d="M219.82,234.88v63.89h62.09v31.39H219.78v62.59H188.45V330.48H125.76V299.1h62.11V234.89c-33.89-6-60.54-23.2-78.46-52.92-14.06-23.31-18.34-48.69-13.47-75.36,10-54.53,58.57-92.46,114.49-89.78,53.4,2.56,98.44,46.34,102.83,100.33C318,175.87,276.73,225.8,219.82,234.88Zm62.36-108.3A78.39,78.39,0,1,0,204,204.91,77.84,77.84,0,0,0,282.18,126.58Z"/><path class="cls-1" d="M282.18,126.58a78.39,78.39,0,1,1-78.42-78.45A78.18,78.18,0,0,1,282.18,126.58Z"/></g></g></svg>