<?xml version="1.0" standalone="no"?><!DOCTYPE svg PUBLIC "-//W3C//DTD SVG 1.1//EN" "http://www.w3.org/Graphics/SVG/1.1/DTD/svg11.dtd"><svg class="icon" height="512" viewBox="0 0 1024 1024" version="1.1" xmlns="http://www.w3.org/2000/svg"><path d="M722.716 25.466s-13.056 2.838-18.458 9.132c-5.708 6.646-10.21 10.456-7.06 12.464 1.138 0.722 17.652 6.948 18.248 8.24-0.458-0.996 27.166 15.332-10.02 22.142-9.782 1.792-19.556-7.742-25.854-18.698-1.546-2.704-4.092-5.454-5.918-6.402-3.504-1.826-17.268-4.21-24.618-4.262-7.196-0.054-23.24 6.324-31.214 12.406-2.37 1.8-6.576 4.132-9.374 5.176-5.906 2.21-23.902 5.254-26.794 4.536-1.078-0.27-5.3 0.08-9.374 0.774-4.562 0.78-10.708 1.034-16.058 0.658-10.738-0.742-11.486-1.486-11.542-11.386-0.03-8.584-1.178-9.646-11.406-10.664-15.372-1.538-38.096 3.124-44.626 9.162l-2.496 2.304 0.672 15.126c0.37 8.378 0.29 15.366-0.186 15.66-2.628 1.618-25.972 4.656-40.124 5.214l-16.348 0.644s-3.198 19.384 1.534 34.882c1.784 5.844 3.612 14.156 8.248 18.348 8.008 7.23 16.626 5.494 30.72-6.212 10.718-8.908 18.228-10.042 26.928-4.052 6.19 4.258 12.994 14.024 14.388 20.66 1.208 5.744 1.458 15.972 0.492 20.794 0 0-8.856 31.204-45.61 11.076-3.006-1.648-10.166 2.952-12.648 5.318-3.2 3.052-5.116 21.974-3.746 34.05 1.058 9.29 1.696 12.482 2.97 18.254l5.136 21.244c-11.608-0.828-31.408-0.708-40.388 1.028-5.598 1.084-11.514 2.366-13.138 2.85-1.632 0.49-4.962 1.412-7.406 2.056-2.442 0.638-5.326 1.502-6.414 1.916-1.088 0.404-7.964 2.664-15.29 5.01-7.332 2.346-15.42 5.29-17.978 6.538-2.562 1.252-5.608 2.276-6.78 2.276-3.294 0-9.784 7.05-9.784 10.634 0 3.518 4.234 9.008 11.218 14.512 5.132 4.056 11.188 9.628 8.512 15.164-14.572 30.146-69.504 28.318-92.508 21.5-9.63-2.856-13.49-5.894-9.67-14.094 2.016-4.332 10.45-14.566 17.416-21.132 4.582-4.312 6.064-13.792 2.036-14.306-22.404-2.872-67.312 8.27-89.408 12.944-4.75 1.006-8.324-2.954-8.618-9.336-0.322-7.016 0.212-14.99 1.298-19.332 3.306-13.214 16.594-43.49 21.584-49.17 6.258-7.126 13.014-8.238 22.244-3.652 4.16 2.066 7.346 2.93 10.826 2.934 4.298 0 8.69-0.606 12.15-3.542 15.542-13.172 14.236-42.932 5.094-52.63-7.124-7.554-20.444 13.444-27.51 17.51-6.936 3.99-11.094 4.038-13.906 1.232 0 0-18.684-6.04 2.536-54.602 7.066-16.178 34.232-18.33 36.362-21.244 4.198-5.754 18.67-37.262 17.772-38.708-1.238-2.002-5.43-0.628-11.87 3.892-11.796 8.284-16.188 9.876-16.188 5.888 0-3.144 9.862-15.496 18.578-23.28 12.872-11.488 14.984-12.486 20.386-9.682 3.722 1.932 6.574 0.732 14.452-6.088 8.664-7.496 22.728-23.154 21.716-24.168-0.446-0.44-2.984 0.128-5.642 1.272-6.368 2.724-15.664 4.862-17.16 3.938-1.736-1.072 2.802-4.336 12.236-8.806 7.804-3.7 10.532-5.066 11.904-4.212 0.568-0.614 1.368-1.008 2.29-1.242-1.73-3.402-2.322-3.514-3.932-3.514-3.386 0-19.582 6.97-29.882 12.476-45.328 24.224-87.914 54.51-115.164 75.562C59.808 195.996 1 339.638 1 490.59c0 282.222 228.782 511 511 511 282.22 0 511-228.778 511-511 0-211.082-117.676-387.194-300.284-465.124z m111.87 347.742c-22.06 20.474-20.41 16.116-39.506 106.346-22.434 106.044-56.846 236.208-63.448 240.392-8.956 5.708-10.27 5.176-31.398-11.626-85.432-68.16-101.668-80.272-107.352-80.272-3.724 0-13.27 18.526-22.874 44.34-9.014 24.378-23.158 60.496-31.452 80.21-21.278 50.708-26.802 50.594-84.436-1.406-93.428-84.274-193.844-167.836-209.986-174.618-11.73-4.98-25.054-6.254-44.494-4.258-22.478 2.414-28.25 1.54-30.584-4.512-4.604-11.964 3.3-15.844 53.802-26.374 26.174-5.47 65.85-16.224 88.194-23.986 22.252-7.648 43.336-13.958 46.686-13.958 11.582 0 6.242 14.104-7.994 21.536-19.096 9.814-26.858 24.454-18.474 34.684 16.232 19.738 179.312 154.75 185.532 153.544 7.172-1.366 48.406-90.11 48.264-103.918 0-7.75-99.406-84.126-123.402-94.938-7.168-3.25-22.19-5.48-33.332-5.082-11.102 0.426-21.622-0.64-23.372-2.342-8.566-8.516 6.22-16.66 48.08-26.602 25.55-6 56.134-15.176 68.1-20.266 37.17-15.94 60.29-9.778 31.64 8.492-16.04 10.174-20.114 15.552-17.25 22.876 2.808 7.352 65.626 55.16 72.41 55.16 7.554 0 26.032-59.138 24.29-77.656-1.508-15.164-2.422-15.846-24.29-17.254-37.222-2.376-28.25-14.714 19.774-27.14 16.814-4.348 44.292-13.552 61.16-20.446 24.86-10.216 31.692-11.428 36.542-6.388 4.694 4.898 3.004 8.148-8.434 16.416-7.852 5.676-19.522 15.756-25.93 22.346-12.208 12.792-58.252 123.108-54.868 131.544 2.776 6.868 91.212 70.132 102.032 72.922 10.032 2.68 7.596 11.5 36.44-133.556 9.784-49.208 16.528-92.908 14.928-96.982-2.038-5.322-9.308-7.554-24.562-7.554-18.38 0-21.72-1.408-21.72-9.374 0-7.504 6.972-11.424 34.75-19.714 19.096-5.608 42.704-14.348 52.496-19.38 37.408-19.048 52.244-7.458 24.038 18.794z" fill="" /></svg>