<svg xmlns="http://www.w3.org/2000/svg" viewBox="0 0 314 314.03"><defs><style>.cls-1{fill:#fff;}</style></defs><title>Asset 2</title><g id="Layer_2" data-name="Layer 2"><g id="Layer_1-2" data-name="Layer 1"><path class="cls-1" d="M0,182.31V0H314V314H132.6a10.73,10.73,0,0,1,1.66-.37,126.71,126.71,0,0,0,41.63-10.46A124.38,124.38,0,0,0,250,179.72c-2-24.63-10.67-46.7-25.56-66.36-.38-.49-.72-1-1.08-1.53l.94.73,58.24-59.22V96.28H312.8V1.06H217.2V31.5h42.14c-19.1,19.42-38.52,39.16-57.95,58.93-.54-.4-.95-.71-1.36-1C169.51,67.82,135.9,59.85,99.18,67.69,48,78.61,10.43,118.22,1.71,169.6,1,173.81.56,178.07,0,182.31Z"/><path d="M0,182.31c.56-4.24,1-8.5,1.71-12.71,8.72-51.38,46.32-91,97.47-101.91,36.72-7.84,70.33.13,100.85,21.74.41.29.82.6,1.36,1,19.43-19.77,38.85-39.51,57.95-58.93H217.2V1.06h95.6V96.28H282.56V53.34l-58.24,59.22-.94-.73c.36.51.7,1,1.08,1.53C239.35,133,248.07,155.09,250,179.72A124.38,124.38,0,0,1,175.89,303.2a126.71,126.71,0,0,1-41.63,10.46,10.73,10.73,0,0,0-1.66.37H117.77c-.62-.13-1.24-.28-1.87-.39-7.78-1.34-15.8-1.89-23.31-4.14C42.27,294.43,12,260.92,1.73,209.39.9,205.21.57,200.93,0,196.7Zm125.26-87c-52.17.09-94.84,42.56-94.73,94.31s42.79,94.07,94.8,93.92,94.6-42.42,94.6-94.18S177.29,95.19,125.26,95.28Z"/><path class="cls-1" d="M0,196.7c.57,4.23.9,8.51,1.73,12.69,10.25,51.53,40.54,85,90.86,100.11,7.51,2.25,15.53,2.8,23.31,4.14.63.11,1.25.26,1.87.39H0Z"/><path class="cls-1" d="M125.26,95.28c52-.09,94.68,42.28,94.67,94.05s-42.46,94-94.6,94.18-94.7-42.14-94.8-93.92S73.09,95.37,125.26,95.28Z"/></g></g></svg>