<svg xmlns="http://www.w3.org/2000/svg" viewBox="0 0 493.68 472.29"><defs><style>.cls-1{fill:#fdfcfc;}.cls-2{fill:#b32838;}.cls-3{fill:#413e71;}</style></defs><title>Asset 2</title><g id="Layer_2" data-name="Layer 2"><g id="Layer_1-2" data-name="Layer 1"><path class="cls-1" d="M493.54,327.92c0,46.17-.1,92.33.14,138.49,0,4.9-1,5.88-5.88,5.88q-241-.26-481.93,0c-4.89,0-5.88-1-5.87-5.87Q.24,236.14,0,5.87C0,1,1,0,5.87,0q241,.24,481.93,0c4.89,0,5.88,1,5.87,5.87q-.27,150.38-.13,300.75c-2.69-1-2.29-3.8-2.45-5.58-.75-8.57-5.62-9.89-13.28-9.83-43.95.34-87.91.14-131.87.22-2.75,0-5.85-1-9,1.7,4.92,5.05,6.39,12.1,12,16.25,1.69,1.24,3.38,3.28,5.72,1.52,2.09-1.57.57-3.28-.14-5s-.71-3.77,2-4.3c1.2-.24,2.2-1.94,3.56-.86,3.84,3.07,2.72,15.73-2.19,17.16-4.23,1.22-2.65,1.95-1.7,4.44,1.28,3.36,2.35,5.09,6.7,4.82,8-.51,16.12.3,24.18.35Q440.33,327.76,493.54,327.92ZM351.79,74.15c-.18-10.91-.29-21.81-.58-32.71-.06-2.34.59-5-1.41-6.91-1.65-1.59-19.36-1.92-21.43-.64-4.46,2.75-10.47-2.91-14.44,2.62-.18-.43-.58-.89-.51-1.28,1-5.53-3.31-3.8-5.78-4-9.25-.75-18.53-1.84-27.78-1.6-4.38.11-11.76-5.66-13.11,4.43,0,.25-1.16.67-1.34.52C261.5,31,258.2,36,254.41,36c1.37-8,1.38-8.14-6.5-8.7-9.26-.64-18.58-.63-27.8-1.52-7.6-.73-14-.89-11.27,11.83-5.4-6-9.4-3.74-14.85.15,3.32-8.39,1.4-13.66-5.81-13.72-9-.08-11.43-4.63-12.75-12.42-.78-4.65-2.5-9.71-9.83-9.69-51.89.18-103.77-.06-155.66-.11C4,1.78.14,9,3.12,14.16c6.42,11.05,14.48,11.16,21.35-.32.44,6.81,4.42,9.19,10.41,8.92a10.07,10.07,0,0,1-.81,2c-1.68,2.11-6.76,3.78-3.52,6.67,2.58,2.31,2.19,10.32,9.68,6.34,2.16-1.15,3.31,3.35,5.1,5.09,1.17,1.15-3.72,1.68-.7,2.93,1.74.72,4.49,1.14,6.1-.78,1.19-1.42,1.76-3.36,2.79-5.43,3.17,6.37,11.2,10.72,14.25,7.19,6.12-7.08,14-3.79,21-5.59C93.56,39.92,97,42.56,99.26,48c-6.18-2.11-11.81-3.52-17.33.38,8.66,1.13,16.37,5.11,24.71,7.27.42-4.28-5-3.87-4.57-8.37,7.1,3,8.68-2.29,10.78-9.11,1.8,7.37,4.93,11.1,12.21,9.51-4.7,4.91-5,5.2-2.72,7.47,2.93,2.93-2.12,6.59,2.16,10,7.36,5.89,11.41,6.78,18.34.77C146,72.16,146,72.16,154,74.23c-1.87,2-5.48,4.46-5.11,5.79,1.79,6.37.16,13.81,3.07,19,2.49,4.43,8.57-2,13.36-1.33,2.91.44,4.54-1,5.25-3.85.57-2.24.75-2.9,3.53-1,5,3.53,15.51.49,19.38-4.86s2.92-10.24-3.12-14.5c6.88.94,9.83-2.84,12.1-10.28,1.52,10.8,6.63,10.44,13.2,8.53,11.08-3.22,22-3.69,31.13,5.29,2.07,2,4.49,3.74,3.76-1.44-.28-2,.84-2.71,2.07-2.46,6.84,1.43,6.32-5.15,9.44-8.94.42,7,4.58,9.47,13.35,9.86-9.59,3.53-7.67,8.78-6.33,13.78-3.58,0-4.83-4.82-9-3.34,2.38,6.69,4.77,12.91,11.69,15.84,2.38,1,3.46,2.82,3,5.17-1.11,6,2.67,9.61,7,11.57s5.95,5.58,8.46,9c4.52,6.11,7.84,14.42,17.83,13.31,1.83-.2,5.2,1.23,5.16-1.44-.06-3.17,4.19-6.56-.24-9.67-1.39-1-3.63-1.43-3.59-4.84,6.93,2.4,9.63-1.79,11.46-9.86,1.45,8.37,5.07,11.5,12.1,11-6.65,3.39-6.9,8.24-3.64,15.09-3.28-2-4.92-3.42-6.81-4.16-3.88-1.52-9.92,3.44-8.52,7.21,2.73,7.33,7.65,13.58,7.31,22.32-.23,5.71,3.4,11,11.42,11.07-8.7,1.54-5.82,10-9.49,14.72-5.52,7.13-9.52,17.55-8.27,28.11.23,2-1.91,4.87.95,5.63,3,.8,2.22-3,3.46-4.5a18.23,18.23,0,0,0,1.35-2.25c1.4,2,2.19,4.55,3.83,5.35,4.68,2.28,8.86,4.36,6.71,10.79a1.72,1.72,0,0,0,1.72,2.23c2.22.06,1.39-1.74,1.64-2.91s-.56-3,1.73-2.7a3.46,3.46,0,0,1,3.08,2.25c1.15,2.91.34,5.25-1.64,7.47-2.53,2.83-5.29,5.55-7.28,8.74-1.75,2.81-3.18,6.34,2.93,5.93s12-.4,17.95-.58c2.7.2,5.4.56,8.11.56q51.49.06,103,0c3.08,0,7.37,1.73,9-1.68s.13-7.92-2.32-10.72c-4.63-5.3-7.05-11.64-9.43-17.92-1.68-4.43-4.17-5.61-8.54-5.59-33,.18-65.94.19-98.92.25-2.07-12.23-1.11-24.5-.48-36.76l85.16.09c1.64,0,4.24.45,4.74-.34,3.22-5.17,5.83-2.38,9,0a4,4,0,0,0,5.28-.73c1.85-2.08,0-3.39-1.24-4.7-2.06-2.12-3.93-5.3-7.12-4.82-2.72.41-.56,5.38-4.53,6.59.2-4.51-3.19-7.44-1-12.9s-4.09-11.27-6.07-17.16c-1.07-3.17-5.26-2-8.15-2q-38.08,0-76.16.06a261.22,261.22,0,0,1,0-36.37c20.48,0,41,0,61.44.17,5.25.06,7.49-.46,5-6.62a141.73,141.73,0,0,1-7.19-23.93c-.95-4.63-3.27-5.39-7.05-5.73-8.14-.73-16.1,1.46-24.42.31C370.5,73.07,361.07,74.11,351.79,74.15ZM380,364.74c1.71,5.05,2.64,9.1,10.45,9.39,12.58.46,19,10.57,23.91,21,1.6,3.41,3.38,4.89,7.31,4.83,16.11-.23,32.22-.08,48.32-.12,1.61,0,4.48,0,4.64-.59,2.86-10.26,15.91-15.24,13.77-28.5-.87-5.39-1.14-7.27-7-7.22-31.94.27-63.88.11-95.82.16C383.74,363.7,381.71,363,380,364.74ZM379.7,37.89c6.41,0,12.78.61,18.82-2.92,3.75-2.19,4.54-6.35,2.22-7.52-9.38-4.73-19.33-8.33-29.12-12.21-.79-.32-2.14.21-3,.72-5,3-7.16,7.58-5.33,13,1.51,4.48,1.53,11.45,9.9,9C375.2,37.39,377.53,37.89,379.7,37.89ZM12,54c9.63-1.12,9.63-1.12,15.7-6.89s5.23-9.35-1.82-13.3c-4.6-2.58-6,4.54-10.39,2.36-.92-.46-1.59,3.89.23,6,1,1.12,3.47-.2,3.78,2.81C14.59,45.53,15.14,50.76,12,54ZM325.62,241.83c.15-3.33-2.05-5.35-4.79-5.37-2.1,0-4.88,1.43-4.83,4.5.05,3.52,3.07,4.1,5.6,4.69C324.45,246.3,325.46,244.43,325.62,241.83Z"/><path class="cls-2" d="M493.54,327.92q-53.21-.21-106.4-.45c-8.06-.05-16.16-.86-24.18-.35-4.35.27-5.42-1.46-6.7-4.82-.95-2.49-2.53-3.22,1.7-4.44,4.91-1.43,6-14.09,2.19-17.16-1.36-1.08-2.36.62-3.56.86-2.71.53-2.74,2.43-2,4.3s2.23,3.47.14,5c-2.34,1.76-4-.28-5.72-1.52-5.65-4.15-7.12-11.2-12-16.25,3.12-2.71,6.22-1.7,9-1.7,44-.08,87.92.12,131.87-.22,7.66-.06,12.53,1.26,13.28,9.83.16,1.78-.24,4.57,2.45,5.58Z"/><path class="cls-3" d="M351.85,182.44c-.63,12.26-1.59,24.53.49,36.76-2.32,11.66-.63,23.43-.91,35.14-6,.18-12,.19-17.95.58s-4.68-3.12-2.93-5.93c2-3.19,4.75-5.91,7.28-8.74,2-2.22,2.79-4.56,1.64-7.47a3.46,3.46,0,0,0-3.08-2.25c-2.29-.29-1.5,1.6-1.73,2.7s.58,3-1.64,2.91a1.72,1.72,0,0,1-1.72-2.23c2.15-6.43-2-8.51-6.71-10.79-1.64-.8-2.43-3.31-3.83-5.35a18.23,18.23,0,0,1-1.35,2.25c-1.24,1.51-.42,5.3-3.46,4.5-2.86-.76-.72-3.68-.95-5.63-1.25-10.56,2.75-21,8.27-28.11,3.67-4.72.79-13.18,9.49-14.72-8-.11-11.65-5.36-11.42-11.07.34-8.74-4.58-15-7.31-22.32-1.4-3.77,4.64-8.73,8.52-7.21,1.89.74,3.53,2.12,6.81,4.16-3.26-6.85-3-11.7,3.64-15.09-7,.55-10.65-2.58-12.1-11-1.83,8.07-4.53,12.26-11.46,9.86,0,3.41,2.2,3.87,3.59,4.84,4.43,3.11.18,6.5.24,9.67,0,2.67-3.33,1.24-5.16,1.44-10,1.11-13.31-7.2-17.83-13.31-2.51-3.4-4-7-8.46-9s-8.14-5.53-7-11.57c.44-2.35-.64-4.17-3-5.17-6.92-2.93-9.31-9.15-11.69-15.84,4.18-1.48,5.43,3.29,9,3.34-1.34-5-3.26-10.25,6.33-13.78-8.77-.39-12.93-2.85-13.35-9.86-3.12,3.79-2.6,10.37-9.44,8.94-1.23-.25-2.35.44-2.07,2.46.73,5.18-1.69,3.46-3.76,1.44-9.17-9-20.05-8.51-31.13-5.29C209.1,73.68,204,74,202.47,63.24c-2.27,7.44-5.22,11.22-12.1,10.28,6,4.26,7,9.12,3.12,14.5s-14.35,8.39-19.38,4.86c-2.78-1.95-3-1.29-3.53,1-.71,2.82-2.34,4.29-5.25,3.85C160.54,97,154.46,103.44,152,99c-2.91-5.18-1.28-12.62-3.07-19-.37-1.33,3.24-3.77,5.11-5.79-8-2.07-8-2.07-11.17-8.25-6.93,6-11,5.12-18.34-.77-4.28-3.43.77-7.09-2.16-10-2.27-2.27-2-2.56,2.72-7.47-7.28,1.59-10.41-2.14-12.21-9.51-2.1,6.82-3.68,12.09-10.78,9.11-.44,4.5,5,4.09,4.57,8.37-8.34-2.16-16-6.14-24.71-7.27,5.52-3.9,11.15-2.49,17.33-.38-2.29-5.48-5.7-8.12-10.54-6.87-6.92,1.8-14.83-1.49-21,5.59-3,3.53-11.08-.82-14.25-7.19-1,2.07-1.6,4-2.79,5.43-1.61,1.92-4.36,1.5-6.1.78-3-1.25,1.87-1.78.7-2.93-1.79-1.74-2.94-6.24-5.1-5.09-7.49,4-7.1-4-9.68-6.34-3.24-2.89,1.84-4.56,3.52-6.67a10.07,10.07,0,0,0,.81-2c-6,.27-10-2.11-10.41-8.92C17.6,25.32,9.54,25.21,3.12,14.16.14,9,4,1.78,9.94,1.79c51.89.05,103.77.29,155.66.11,7.33,0,9.05,5,9.83,9.69,1.32,7.79,3.72,12.34,12.75,12.42,7.21.06,9.13,5.33,5.81,13.72,5.45-3.89,9.45-6.17,14.85-.15-2.69-12.72,3.67-12.56,11.27-11.83,9.22.89,18.54.88,27.8,1.52,7.88.56,7.87.73,6.5,8.7,3.79,0,7.09-4.94,11-1.4.18.15,1.31-.27,1.34-.52,1.35-10.09,8.73-4.32,13.11-4.43,9.25-.24,18.53.85,27.78,1.6,2.47.21,6.77-1.52,5.78,4-.07.39.33.85.51,1.28,4-5.53,10,.13,14.44-2.62,2.07-1.28,19.78-1,21.43.64,2,1.91,1.35,4.57,1.41,6.91.29,10.9.4,21.8.58,32.7a252.81,252.81,0,0,0,0,36,262.77,262.77,0,0,0,0,36.37A240.87,240.87,0,0,0,351.85,182.44ZM90.42,36.08l.26.81c0-.13.13-.32.08-.38a2.07,2.07,0,0,0-.49-.32c-1.75-5.41-.31-9.89,4.94-14.08-8.64,3-9.68-3.63-12.68-9-.61,7.66-4.45,10.37-12,10,8.11,2.43,6.2,8.14,5.66,13.41C82.6,33.2,82.6,33.2,90.42,36.08Zm64.21-13.46c-7.86,2.05-9.74-3.7-13-8.86,1,9.2-6.07,7.9-12.64,9.58,8.77,3,7.8,8.29,6.12,14.62,5-7.36,10-4.07,16.45.38C147.53,31,148.49,26.4,154.63,22.62ZM320.52,64.7c-.13,8.16-6,8.41-13.68,8.82,7.49,3.5,9.48,7.51,6.72,13.78,5.4-4.37,10-3,15.36.38-4.87-6.67-.34-10.25,5.36-15C325.88,74.25,322.56,71.1,320.52,64.7Zm-81.25-2.5c-4.08-6.71.46-10.25,5.66-15.26-9.17,3-11.24-1.94-13.22-9.51-1.29,8.62-5.3,11.47-12.3,10.94,6,3.12,7.27,7.72,4.43,15.42C229.78,57.78,234.27,58.22,239.27,62.2Zm63.86-13.88c-7.73,1.38-10.24-3.19-12-10.7-1.46,7.81-4.74,11.49-12.54,11,8.35,2.6,6.06,8.45,5.19,15,5.19-6.21,9.75-5.05,15.33-.46C296.74,56.51,296.92,51.74,303.13,48.32ZM291.28,90.17c-1.59,6-4.93,9.66-12.7,9.2,7.86,2.71,6.53,8.16,4.56,15.64,5.69-6.74,10.36-5.6,16.12-2.13-5.69-7,.56-9.91,4.38-14.74C296,99.86,292.78,96.76,291.28,90.17ZM159.53,47.86c4.15,4,10.16,6.4,3.71,13.43,6.38-1.31,10.71-3.78,17.27,1.24-4.43-8.32.74-10.78,4.68-15.33-8,2.36-11.1-1.34-13.31-8.2C171.73,47.82,166.32,48.21,159.53,47.86Zm50-11.09-.43-.49c-.15.16-.4.32-.41.48s.26.32.4.48Z"/><path class="cls-2" d="M351.43,254.34c.28-11.71-1.41-23.48.91-35.14,33-.06,65.94-.07,98.91-.25,4.37,0,6.86,1.16,8.54,5.59,2.38,6.28,4.8,12.62,9.43,17.92,2.45,2.8,4,7.23,2.32,10.72s-5.91,1.67-9,1.68q-51.51.16-103,0C356.83,254.9,354.13,254.54,351.43,254.34Z"/><path class="cls-2" d="M351.85,182.44a240.87,240.87,0,0,1-.07-35.94q38.09,0,76.17-.06c2.89,0,7.08-1.18,8.15,2,2,5.89,8.3,11.59,6.07,17.16s1.2,8.39,1,12.9c4-1.21,1.81-6.18,4.53-6.59,3.19-.48,5.06,2.7,7.12,4.82,1.27,1.31,3.09,2.62,1.24,4.7a4,4,0,0,1-5.28.73c-3.2-2.34-5.81-5.13-9,0-.5.79-3.1.34-4.74.34Z"/><path class="cls-2" d="M380,364.74c1.76-1.76,3.79-1,5.6-1,31.94-.05,63.88.11,95.82-.16,5.84-.05,6.11,1.83,7,7.22,2.14,13.26-10.91,18.24-13.77,28.5-.16.59-3,.59-4.64.59-16.1,0-32.21-.11-48.32.12-3.93.06-5.71-1.42-7.31-4.83-4.9-10.44-11.33-20.55-23.91-21C382.59,373.84,381.66,369.79,380,364.74Z"/><path class="cls-2" d="M351.8,110.13a252.81,252.81,0,0,1,0-36c9.28,0,18.71-1.07,27.81.19,8.32,1.15,16.28-1,24.42-.31,3.78.34,6.1,1.1,7.05,5.73a141.73,141.73,0,0,0,7.19,23.93c2.47,6.16.23,6.68-5,6.62C392.76,110.08,372.28,110.16,351.8,110.13Z"/><path class="cls-2" d="M379.7,37.89c-2.17,0-4.5-.5-6.5.09-8.37,2.47-8.39-4.5-9.9-9-1.83-5.46.34-10,5.33-13,.85-.51,2.2-1,3-.72,9.79,3.88,19.74,7.48,29.12,12.21,2.32,1.17,1.53,5.33-2.22,7.52C392.48,38.5,386.11,37.84,379.7,37.89Z"/><path class="cls-3" d="M12,54c3.13-3.2,2.58-8.43,7.5-9-.31-3-2.81-1.69-3.78-2.81-1.82-2.09-1.15-6.44-.23-6,4.43,2.18,5.79-4.94,10.39-2.36,7,3.95,7.91,7.52,1.82,13.3S21.64,52.84,12,54Z"/><path class="cls-3" d="M325.62,241.83c-.16,2.6-1.17,4.47-4,3.82-2.53-.59-5.55-1.17-5.6-4.69-.05-3.07,2.73-4.52,4.83-4.5C323.57,236.48,325.77,238.5,325.62,241.83Z"/><path class="cls-1" d="M154.63,22.62c-6.14,3.78-7.1,8.42-3,15.72-6.46-4.45-11.43-7.74-16.45-.38,1.68-6.33,2.65-11.59-6.12-14.62,6.57-1.68,13.65-.38,12.64-9.58C144.89,18.92,146.77,24.67,154.63,22.62Z"/><path class="cls-1" d="M320.52,64.7c2,6.4,5.36,9.55,13.76,7.94-5.7,4.79-10.23,8.37-5.36,15-5.33-3.39-10-4.75-15.36-.38,2.76-6.27.77-10.28-6.72-13.78C314.56,73.11,320.39,72.86,320.52,64.7Z"/><path class="cls-1" d="M90.43,36.08c-7.83-2.88-7.83-2.88-14.29.37.54-5.27,2.45-11-5.66-13.41,7.6.4,11.44-2.31,12-10,3,5.41,4,12,12.68,9C90,26.3,88.52,30.78,90.27,36.19Z"/><path class="cls-1" d="M239.27,62.2c-5-4-9.49-4.42-15.43,1.59,2.84-7.7,1.56-12.3-4.43-15.42,7,.53,11-2.32,12.3-10.94,2,7.57,4,12.48,13.22,9.51C239.73,52,235.19,55.49,239.27,62.2Z"/><path class="cls-1" d="M303.13,48.32c-6.21,3.42-6.39,8.19-4,14.89-5.58-4.59-10.14-5.75-15.33.46.87-6.59,3.16-12.44-5.19-15,7.8.48,11.08-3.2,12.54-11C292.89,45.13,295.4,49.7,303.13,48.32Z"/><path class="cls-1" d="M291.28,90.17c1.5,6.59,4.74,9.69,12.36,8-3.82,4.83-10.07,7.78-4.38,14.74-5.76-3.47-10.43-4.61-16.12,2.13,2-7.48,3.3-12.93-4.56-15.64C286.35,99.83,289.69,96.21,291.28,90.17Z"/><path class="cls-1" d="M159.53,47.86c6.79.35,12.2,0,12.35-8.86,2.21,6.86,5.31,10.56,13.31,8.2-3.94,4.55-9.11,7-4.68,15.33-6.56-5-10.89-2.55-17.27-1.24C169.69,54.26,163.68,51.88,159.53,47.86Z"/><path class="cls-1" d="M90.27,36.19a2.07,2.07,0,0,1,.49.32c0,.06-.05.25-.08.38-.08-.27-.17-.54-.25-.81Z"/><path class="cls-1" d="M209.5,36.77l-.44.47c-.14-.16-.4-.33-.4-.48s.26-.32.41-.48Z"/></g></g></svg>