<?xml version="1.0" encoding="utf-8"?>
<!-- Generator: Adobe Illustrator 25.0.1, SVG Export Plug-In . SVG Version: 6.00 Build 0)  -->
<svg version="1.1" id="Layer_1" xmlns="http://www.w3.org/2000/svg" xmlns:xlink="http://www.w3.org/1999/xlink" x="0px" y="0px"
	 viewBox="0 0 493.7 472.3" style="enable-background:new 0 0 493.7 472.3;" xml:space="preserve">
<style type="text/css">
	.st0{fill:#B32838;}
	.st1{fill:#413E71;}
	.st2{fill:#FDFCFC;}
</style>
<path class="st0" d="M492.5,363.2c-35.5-0.1-70.9-0.3-106.4-0.5c-8.1,0-16.2-0.9-24.2-0.4c-4.4,0.3-5.4-1.5-6.7-4.8
	c-1-2.5-2.5-3.2,1.7-4.4c4.9-1.4,6-14.1,2.2-17.2c-1.4-1.1-2.4,0.6-3.6,0.9c-2.7,0.5-2.7,2.4-2,4.3s2.2,3.5,0.1,5
	c-2.3,1.8-4-0.3-5.7-1.5c-5.6-4.1-7.1-11.2-12-16.2c3.1-2.7,6.2-1.7,9-1.7c44-0.1,87.9,0.1,131.9-0.2c7.7-0.1,12.5,1.3,13.3,9.8
	c0.2,1.8-0.2,4.6,2.5,5.6L492.5,363.2z"/>
<path class="st1" d="M350.8,217.7c-0.6,12.3-1.6,24.5,0.5,36.8c-2.3,11.7-0.6,23.4-0.9,35.1c-6,0.2-12,0.2-18,0.6
	c-6,0.4-4.7-3.1-2.9-5.9c2-3.2,4.8-5.9,7.3-8.7c2-2.2,2.8-4.6,1.6-7.5c-0.5-1.3-1.7-2.2-3.1-2.2c-2.3-0.3-1.5,1.6-1.7,2.7
	c-0.2,1.1,0.6,3-1.6,2.9c-0.9,0-1.8-0.7-1.8-1.6c0-0.2,0-0.4,0.1-0.6c2.1-6.4-2-8.5-6.7-10.8c-1.6-0.8-2.4-3.3-3.8-5.3
	c-0.4,0.8-0.8,1.5-1.4,2.2c-1.2,1.5-0.4,5.3-3.5,4.5c-2.9-0.8-0.7-3.7-1-5.6c-1.2-10.6,2.8-21,8.3-28.1c3.7-4.7,0.8-13.2,9.5-14.7
	c-8-0.1-11.6-5.4-11.4-11.1c0.3-8.7-4.6-15-7.3-22.3c-1.4-3.8,4.6-8.7,8.5-7.2c1.9,0.7,3.5,2.1,6.8,4.2c-3.3-6.9-3-11.7,3.6-15.1
	c-7,0.6-10.6-2.6-12.1-11c-1.8,8.1-4.5,12.3-11.5,9.9c0,3.4,2.2,3.9,3.6,4.8c4.4,3.1,0.2,6.5,0.2,9.7c0,2.7-3.3,1.2-5.2,1.4
	c-10,1.1-13.3-7.2-17.8-13.3c-2.5-3.4-4-7-8.5-9s-8.1-5.5-7-11.6c0.4-2.3-0.6-4.2-3-5.2c-6.9-2.9-9.3-9.2-11.7-15.8
	c4.2-1.5,5.4,3.3,9,3.3c-1.3-5-3.3-10.2,6.3-13.8c-8.8-0.4-12.9-2.8-13.4-9.9c-3.1,3.8-2.6,10.4-9.4,8.9c-1.2-0.2-2.4,0.4-2.1,2.5
	c0.7,5.2-1.7,3.5-3.8,1.4c-9.2-9-20.1-8.5-31.1-5.3c-6.6,2-11.7,2.3-13.2-8.5c-2.3,7.4-5.2,11.2-12.1,10.3c6,4.3,7,9.1,3.1,14.5
	s-14.4,8.4-19.4,4.9c-2.8-2-3-1.3-3.5,1c-0.7,2.8-2.3,4.3-5.2,3.8c-4.8-0.7-10.9,5.7-13.3,1.3c-2.9-5.2-1.3-12.6-3.1-19
	c-0.4-1.3,3.2-3.8,5.1-5.8c-8-2.1-8-2.1-11.2-8.2c-6.9,6-11,5.1-18.3-0.8c-4.3-3.4,0.8-7.1-2.2-10c-2.3-2.3-2-2.6,2.7-7.5
	c-7.3,1.6-10.4-2.1-12.2-9.5c-2.1,6.8-3.7,12.1-10.8,9.1c-0.4,4.5,5,4.1,4.6,8.4c-8.3-2.2-16-6.1-24.7-7.3
	c5.5-3.9,11.2-2.5,17.3-0.4c-2.3-5.5-5.7-8.1-10.5-6.9c-6.9,1.8-14.8-1.5-21,5.6c-3,3.5-11.1-0.8-14.2-7.2c-1,2.1-1.6,4-2.8,5.4
	c-1.6,1.9-4.4,1.5-6.1,0.8c-3-1.2,1.9-1.8,0.7-2.9c-1.8-1.7-2.9-6.2-5.1-5.1c-7.5,4-7.1-4-9.7-6.3c-3.2-2.9,1.8-4.6,3.5-6.7
	c0.3-0.6,0.6-1.3,0.8-2c-6,0.3-10-2.1-10.4-8.9C16.6,60.6,8.5,60.5,2.1,49.5c-3-5.2,0.9-12.4,6.8-12.4c51.9,0.1,103.8,0.3,155.7,0.1
	c7.3,0,9.1,5,9.8,9.7c1.3,7.8,3.7,12.3,12.8,12.4c7.2,0.1,9.1,5.3,5.8,13.7c5.4-3.9,9.4-6.2,14.9-0.2c-2.7-12.7,3.7-12.6,11.3-11.8
	c9.2,0.9,18.5,0.9,27.8,1.5c7.9,0.6,7.9,0.7,6.5,8.7c3.8,0,7.1-4.9,11-1.4c0.2,0.2,1.3-0.3,1.3-0.5c1.4-10.1,8.7-4.3,13.1-4.4
	c9.2-0.2,18.5,0.9,27.8,1.6c2.5,0.2,6.8-1.5,5.8,4c-0.1,0.4,0.3,0.8,0.5,1.3c4-5.5,10,0.1,14.4-2.6c2.1-1.3,19.8-1,21.4,0.6
	c2,1.9,1.4,4.6,1.4,6.9c0.3,10.9,0.4,21.8,0.6,32.7c-0.9,12-0.9,24,0,36c-0.8,12.1-0.8,24.3,0,36.4
	C349.9,193.8,349.9,205.8,350.8,217.7z M89.4,71.4l0.3,0.8c0-0.1,0.1-0.3,0.1-0.4c-0.1-0.1-0.3-0.2-0.5-0.3
	c-1.8-5.4-0.3-9.9,4.9-14.1c-8.6,3-9.7-3.6-12.7-9c-0.6,7.7-4.4,10.4-12,10c8.1,2.4,6.2,8.1,5.7,13.4C81.6,68.5,81.6,68.5,89.4,71.4
	z M153.6,57.9c-7.9,2-9.7-3.7-13-8.9c1,9.2-6.1,7.9-12.6,9.6c8.8,3,7.8,8.3,6.1,14.6c5-7.4,10-4.1,16.4,0.4
	C146.5,66.3,147.5,61.7,153.6,57.9z M319.5,100c-0.1,8.2-6,8.4-13.7,8.8c7.5,3.5,9.5,7.5,6.7,13.8c5.4-4.4,10-3,15.4,0.4
	c-4.9-6.7-0.3-10.2,5.4-15C324.9,109.5,321.5,106.4,319.5,100z M238.3,97.5c-4.1-6.7,0.5-10.2,5.7-15.3c-9.2,3-11.2-1.9-13.2-9.5
	c-1.3,8.6-5.3,11.5-12.3,10.9c6,3.1,7.3,7.7,4.4,15.4C228.8,93.1,233.3,93.5,238.3,97.5L238.3,97.5z M302.1,83.6
	c-7.7,1.4-10.2-3.2-12-10.7c-1.5,7.8-4.7,11.5-12.5,11c8.4,2.6,6.1,8.5,5.2,15c5.2-6.2,9.8-5,15.3-0.5
	C295.7,91.8,295.9,87,302.1,83.6z M290.3,125.5c-1.6,6-4.9,9.7-12.7,9.2c7.9,2.7,6.5,8.2,4.6,15.6c5.7-6.7,10.4-5.6,16.1-2.1
	c-5.7-7,0.6-9.9,4.4-14.7C295,135.2,291.8,132.1,290.3,125.5z M158.5,83.2c4.1,4,10.2,6.4,3.7,13.4c6.4-1.3,10.7-3.8,17.3,1.2
	c-4.4-8.3,0.7-10.8,4.7-15.3c-8,2.4-11.1-1.3-13.3-8.2C170.7,83.1,165.3,83.5,158.5,83.2z M208.5,72.1l-0.4-0.5
	c-0.1,0.2-0.4,0.3-0.4,0.5c0,0.2,0.3,0.3,0.4,0.5L208.5,72.1z"/>
<path class="st0" d="M350.4,289.6c0.3-11.7-1.4-23.5,0.9-35.1c33-0.1,65.9-0.1,98.9-0.2c4.4,0,6.9,1.2,8.5,5.6
	c2.4,6.3,4.8,12.6,9.4,17.9c2.5,2.8,4,7.2,2.3,10.7c-1.7,3.5-5.9,1.7-9,1.7c-34.3,0.1-68.7,0.1-103,0
	C355.8,290.2,353.1,289.8,350.4,289.6z"/>
<path class="st0" d="M350.8,217.7c-0.9-12-0.9-24-0.1-35.9c25.4,0,50.8,0,76.2-0.1c2.9,0,7.1-1.2,8.1,2c2,5.9,8.3,11.6,6.1,17.2
	s1.2,8.4,1,12.9c4-1.2,1.8-6.2,4.5-6.6c3.2-0.5,5.1,2.7,7.1,4.8c1.3,1.3,3.1,2.6,1.2,4.7c-1.3,1.6-3.6,1.9-5.3,0.7
	c-3.2-2.3-5.8-5.1-9,0c-0.5,0.8-3.1,0.3-4.7,0.3L350.8,217.7z"/>
<path class="st0" d="M379,400c1.8-1.8,3.8-1,5.6-1c31.9,0,63.9,0.1,95.8-0.2c5.8,0,6.1,1.8,7,7.2c2.1,13.3-10.9,18.2-13.8,28.5
	c-0.2,0.6-3,0.6-4.6,0.6c-16.1,0-32.2-0.1-48.3,0.1c-3.9,0.1-5.7-1.4-7.3-4.8c-4.9-10.4-11.3-20.5-23.9-21
	C381.6,409.1,380.6,405.1,379,400z"/>
<path class="st0" d="M350.8,145.4c-0.9-12-0.9-24,0-36c9.3,0,18.7-1.1,27.8,0.2c8.3,1.2,16.3-1,24.4-0.3c3.8,0.3,6.1,1.1,7,5.7
	c1.7,8.2,4.1,16.2,7.2,23.9c2.5,6.2,0.2,6.7-5,6.6C391.7,145.4,371.3,145.5,350.8,145.4z"/>
<path class="st0" d="M378.7,73.2c-2.2,0-4.5-0.5-6.5,0.1c-8.4,2.5-8.4-4.5-9.9-9c-1.8-5.5,0.3-10,5.3-13c0.9-0.5,2.2-1,3-0.7
	c9.8,3.9,19.7,7.5,29.1,12.2c2.3,1.2,1.5,5.3-2.2,7.5C391.5,73.8,385.1,73.1,378.7,73.2z"/>
<path class="st1" d="M11,89.3c3.1-3.2,2.6-8.4,7.5-9c-0.3-3-2.8-1.7-3.8-2.8c-1.8-2.1-1.1-6.4-0.2-6c4.4,2.2,5.8-4.9,10.4-2.4
	c7,3.9,7.9,7.5,1.8,13.3S20.6,88.1,11,89.3z"/>
<path class="st1" d="M324.6,277.1c-0.2,2.6-1.2,4.5-4,3.8c-2.5-0.6-5.5-1.2-5.6-4.7c0-3.1,2.7-4.5,4.8-4.5
	C322.6,271.8,324.8,273.8,324.6,277.1z"/>
<path class="st2" d="M153.6,57.9c-6.1,3.8-7.1,8.4-3,15.7c-6.5-4.5-11.4-7.7-16.4-0.4c1.7-6.3,2.6-11.6-6.1-14.6
	c6.6-1.7,13.6-0.4,12.6-9.6C143.9,54.2,145.8,60,153.6,57.9z"/>
<path class="st2" d="M319.5,100c2,6.4,5.4,9.6,13.8,7.9c-5.7,4.8-10.2,8.4-5.4,15c-5.3-3.4-10-4.8-15.4-0.4
	c2.8-6.3,0.8-10.3-6.7-13.8C313.5,108.4,319.4,108.2,319.5,100z"/>
<path class="st2" d="M89.4,71.4c-7.8-2.9-7.8-2.9-14.3,0.4c0.5-5.3,2.4-11-5.7-13.4c7.6,0.4,11.4-2.3,12-10c3,5.4,4,12,12.7,9
	c-5.2,4.3-6.6,8.7-4.9,14.1L89.4,71.4z"/>
<path class="st2" d="M238.3,97.5c-5-4-9.5-4.4-15.4,1.6c2.8-7.7,1.6-12.3-4.4-15.4c7,0.5,11-2.3,12.3-10.9c2,7.6,4,12.5,13.2,9.5
	C238.7,87.3,234.2,90.8,238.3,97.5z"/>
<path class="st2" d="M302.1,83.6c-6.2,3.4-6.4,8.2-4,14.9c-5.6-4.6-10.1-5.8-15.3,0.5c0.9-6.6,3.2-12.4-5.2-15
	c7.8,0.5,11.1-3.2,12.5-11C291.9,80.4,294.4,85,302.1,83.6z"/>
<path class="st2" d="M290.3,125.5c1.5,6.6,4.7,9.7,12.4,8c-3.8,4.8-10.1,7.8-4.4,14.7c-5.8-3.5-10.4-4.6-16.1,2.1
	c2-7.5,3.3-12.9-4.6-15.6C285.3,135.1,288.7,131.5,290.3,125.5z"/>
<path class="st2" d="M158.5,83.2c6.8,0.3,12.2,0,12.4-8.9c2.2,6.9,5.3,10.6,13.3,8.2c-3.9,4.5-9.1,7-4.7,15.3
	c-6.6-5-10.9-2.5-17.3-1.2C168.7,89.6,162.7,87.2,158.5,83.2z"/>
<path class="st2" d="M89.3,71.5c0.2,0.1,0.3,0.2,0.5,0.3c0,0.1-0.1,0.2-0.1,0.4c-0.1-0.3-0.2-0.5-0.2-0.8L89.3,71.5z"/>
<path class="st2" d="M208.5,72.1l-0.4,0.5c-0.1-0.2-0.4-0.3-0.4-0.5c0-0.1,0.3-0.3,0.4-0.5L208.5,72.1z"/>
</svg>
