<svg xmlns="http://www.w3.org/2000/svg" viewBox="0 0 478.97 366.34"><defs><style>.cls-1{fill:#231f20;}</style></defs><g id="Layer_2" data-name="Layer 2"><g id="Layer_1-2" data-name="Layer 1"><path class="cls-1" d="M137.68,311.73q-3.56,2.1-8-.23-3.84-2-9.75-8.44l-9-9.91Q102,284.21,75,251.74l10.21,47.41,3.48,14.79A83.06,83.06,0,0,1,90.89,329q.18,6.63-4.49,9.38-3.87,2.28-8.59-.61A41.64,41.64,0,0,1,71,332.29l-6.21-6.18q-20.31-19.31-41-42.83l4.57,13.17,12,39.73a166,166,0,0,1,7.36,20q1.05,6.3-3.49,9a7.34,7.34,0,0,1-6.49.72,8.54,8.54,0,0,1-4.51-3.9q-6.47-11-11.34-29.64l-8.38-30.77-8.39-23Q-.52,262.38.06,256q.38-5.35,4.26-7.65c2.85-1.67,5.93-1.31,9.25,1.11q6,4.35,19.58,20.62a449.51,449.51,0,0,0,38.44,40.44,565.82,565.82,0,0,0-14.23-62.66l-3.68-10.77a39.85,39.85,0,0,1-2.41-11.16q-.3-6.37,4.17-9,5.66-3.33,15,5.84,3.27,3.13,11.71,14,21.39,27.45,39.58,45.09l9.88,9.41q7.84,7.61,9.09,9.71a7.07,7.07,0,0,1,.65,6A8.2,8.2,0,0,1,137.68,311.73Z"/><path class="cls-1" d="M186.69,223.77q2.79,4.74,8.44,14.17t8.43,14.17q.85,1.45,2.83,4.27t2.82,4.27a7.08,7.08,0,0,1,.82,5.77,7.56,7.56,0,0,1-3.6,4.55q-5.07,3-10.13-2.45A46.89,46.89,0,0,1,179.88,284q-8.62,5.08-16.52,4.6-8.73-.54-14.68-7.93a250.84,250.84,0,0,1-20.85-29.53,142.22,142.22,0,0,1-10.11-21.69c-1.63-4.17-.68-7.31,2.88-9.4a7.71,7.71,0,0,1,5.8-1,7.1,7.1,0,0,1,4.64,3.52,90.55,90.55,0,0,1,4.74,10.23,89.81,89.81,0,0,0,5,10.69q6.47,11,11.8,18.38a75.62,75.62,0,0,0,9.57,11.29,26.1,26.1,0,0,0,5.34-.71A16.85,16.85,0,0,0,172,270.6a77.58,77.58,0,0,0,17-13.79L181,243.5l-7.64-12.69a243.27,243.27,0,0,1-13.28-25.4q-2.84-6.47,2.82-9.81a7.59,7.59,0,0,1,5.82-.94,6.62,6.62,0,0,1,4.48,3.56Z"/><path class="cls-1" d="M248.24,173.8q4.38,8.49-1.74,12.09-5.66,3.33-9.49-3.18-.73-1.25-2.91-4.49l-3.45-5.41q-9.66,7.38-13.19,15.66-3.35,7.72-2.14,18.62l21.36,36q3.91,6.65-2.6,10.48-5.79,3.41-9.7-3.24l-27.2-46.17q-1.27-2.17-3.67-6.61c-1.59-3-2.82-5.16-3.67-6.61q-3.92-6.63,1.88-10,6.43-3.8,12.94,7.09,5.46-19.6,20.85-28.68c3.55-2.09,7-2.31,10.32-.67s6.59,5.16,9.76,10.55Q247.62,172.57,248.24,173.8Z"/><path class="cls-1" d="M253.94,123.75a8.78,8.78,0,0,1-6.78,1,8.66,8.66,0,0,1-6.35-10.79,8.75,8.75,0,0,1,4.14-5.45,8.64,8.64,0,0,1,6.74-1,8.76,8.76,0,0,1,6.36,10.79A8.69,8.69,0,0,1,253.94,123.75Zm34.41,51.67q2.32,3.95,7.19,11.67t7.18,11.67a7.58,7.58,0,0,1,1,5.78,7.86,7.86,0,0,1-9.3,5.48,7.47,7.47,0,0,1-4.6-3.67q-2.32-3.94-7.19-11.67T275.46,183q-3.65-6.18-8.43-15.81t-8.42-15.81a7.6,7.6,0,0,1-1-5.87,7.84,7.84,0,0,1,9.27-5.46,7.6,7.6,0,0,1,4.64,3.74q3.64,6.18,8.43,15.81T288.35,175.42Z"/><path class="cls-1" d="M360.34,178.82q-13.48,8-27.3,5.09-14.51-3-22.76-17-7.86-13.35-7.35-32.79.57-21.6,12.94-28.88a47.59,47.59,0,0,1,16.18-5.46q12.36-2,15.65,3.55a7.78,7.78,0,0,1,1,5.41,6,6,0,0,1-2.94,4.34,5.86,5.86,0,0,1-4,.8c-1.39-.21-2.75-.43-4.06-.66q-5.71-.8-14.52,4.39-6.7,3.95-6.24,19.79.49,14.52,5.21,22.54,5.11,8.68,14,10.19,8.28,1.42,17-3.69a23.11,23.11,0,0,0,7.18-7.07l5.23-8.57a8.33,8.33,0,0,1,2.21-2.72,6.45,6.45,0,0,1,5.35-.54,7.44,7.44,0,0,1,4.39,3.4q2.82,4.8-4.67,15.24Q366.2,175.37,360.34,178.82Z"/><path class="cls-1" d="M451.29,125.52q-1.25.74-6.24-.22a34.08,34.08,0,0,1-7.23-2.21,97.38,97.38,0,0,1-8.08,11.71,28.3,28.3,0,0,1-7,6.47q-15.39,9.07-27.54,4.53-11.44-4.25-21.36-21.08A43.8,43.8,0,0,1,368.75,91Q373,73.28,388.23,64.32a39.44,39.44,0,0,1,14.57-4.59q11.11-1.57,14.18,3.61a5.24,5.24,0,0,1,.54,3.94,56.19,56.19,0,0,0,3.82,8.82q3,5.93,8.22,14.92a61.86,61.86,0,0,0,8.71,12.23,113.35,113.35,0,0,0,11,9.14c.77.6,2,1.47,3.56,2.59l1.06.89a6.56,6.56,0,0,1,.71,5.42A7,7,0,0,1,451.29,125.52Zm-40.6-37.65a65.93,65.93,0,0,1-3.26-6.37q-1.59-3.52-3.08-7.71a36.63,36.63,0,0,0-5.26.62,10.92,10.92,0,0,0-3.15,1q-10.19,6-12.69,18.69a32.48,32.48,0,0,0,3.89,23.53q6.36,10.78,13.35,13.93t14.62-1.34a26.51,26.51,0,0,0,9.36-8.62,45.56,45.56,0,0,0,3.7-8.91Q415.81,96.54,410.69,87.87Z"/><path class="cls-1" d="M420.2,3.68l43.12,73.21q3.44,5.85-2.41,9.3t-9.3-2.4q-1.59-2.7-4.91-8t-4.87-7.9q-5.62-9.54-16.67-28.67T408.49,10.58Q405,4.73,410.9,1.28T420.2,3.68Zm57.9,98.17a6.32,6.32,0,0,1,.55,5.21,7.05,7.05,0,0,1-3.22,4.24c-1.75,1-4.18.93-7.27-.32s-5-2.61-6.06-4.41a6.22,6.22,0,0,1-.52-5.18,7.22,7.22,0,0,1,3.3-4.25c1.71-1,4.13-.9,7.28.32Q476.55,99.22,478.1,101.85Z"/></g></g></svg>