<svg xmlns="http://www.w3.org/2000/svg" viewBox="0 0 450.48 501.62"><defs><style>.cls-1{fill:#2bb673;}</style></defs><title>Asset 1</title><g id="Layer_2" data-name="Layer 2"><g id="Layer_1-2" data-name="Layer 1"><path class="cls-1" d="M312.53,402.37c-4.42,10.94-8.53,22-13.3,32.74-6.85,15.43-15.28,30-27,42.34a101,101,0,0,1-15.72,13.8c-21,14.47-44.54,13.69-65-1.64-16-12-27.07-28-35.74-45.58-5.78-11.76-10.28-24.14-15.32-36.25-.75-1.82-1.32-3.72-1.81-5.14-14.41,1.9-28.34,4.12-42.36,5.49-18,1.77-35.95.68-53.35-4.85C8.85,392.44-6.91,362.45,2.85,326.56,9.46,302.27,23.31,282,39,262.74c3.36-4.12,6.91-8.08,10.25-12-8-10.46-16.24-20.46-23.58-31.1C14.53,203.56,5.38,186.45,2.23,166.74c-5.34-33.38,10.53-58.87,43.2-68.86,16.78-5.14,34.06-6.15,51.41-4.47,13.89,1.35,27.69,3.47,42.19,5.33,1.68-4.64,3.47-9.92,5.49-15.12,7.87-20.25,17.31-39.68,31.46-56.4C187.42,13.7,200.78,3.07,219.08.48c13.8-1.95,26,2.19,37.2,9.83,16,10.9,27.18,26.05,35.76,43,6.83,13.45,12.17,27.65,18.15,41.53.51,1.19.9,2.44,1.43,3.91,19.88-4.31,39.72-7.39,59.94-6.89,15.77.38,31.15,2.67,45.51,9.69,25.8,12.6,35.15,36,31.68,62-3.28,24.69-16.1,45.19-30.64,64.67-5.56,7.45-11.71,14.47-17.35,21.38,9,11.84,18.26,23.33,26.67,35.45,10.31,14.84,18.67,30.84,21.76,48.87,6.22,36.22-10.19,61.31-45.87,70.73-19.62,5.18-39.55,5.08-59.5,2.56C333.31,405.86,322.86,404,312.53,402.37ZM145,250.93c.62,12.66,1.42,26.45,1.9,40.26a7.25,7.25,0,0,0,4.2,6.65c23.45,13.21,46.86,26.51,70.42,39.51a9.33,9.33,0,0,0,7.35.11,495.52,495.52,0,0,0,71.5-40.58,8.57,8.57,0,0,0,3.23-5.52,205.07,205.07,0,0,0,1.29-22.42c-.17-19.47-.65-38.94-1.29-58.4a7.67,7.67,0,0,0-3.32-5.39q-35.58-20.62-71.45-40.75a7.93,7.93,0,0,0-6.32-.15,570.52,570.52,0,0,0-71.68,40.32c-2.62,1.74-4,3.6-4.09,6.76C146.25,224.14,145.62,237,145,250.93Zm-15.32-121.2a12.15,12.15,0,0,0-2.47-.8c-13.2-1.7-26.35-4-39.6-4.84-14.34-.93-28.66.37-42,6.41-14.6,6.58-20.36,17.73-16.62,33.3,6.33,26.36,23.19,46.35,40.05,65.59,16.86-13.4,33.41-26.5,49.86-39.72a7.22,7.22,0,0,0,2.26-4.2C124,167.1,126.78,148.71,129.67,129.73ZM379.57,271c-1.27,1-1.93,1.47-2.56,2-14.79,12.14-29.6,24.26-44.32,36.5a7.86,7.86,0,0,0-2.59,4.39c-1.32,8.2-2.16,16.48-3.5,24.68-1.83,11.1-4,22.15-6,33.66,18.43,3.57,36.81,6.93,55.48,4.93a109.85,109.85,0,0,0,28.45-6.51c14.32-5.65,19.76-17.29,16.24-32.41C414.5,311.46,397.35,291.29,379.57,271ZM320.93,129.28c3,19.6,5.74,38.14,8.67,56.65a7.79,7.79,0,0,0,2.5,4.54c16,12.91,32.18,25.68,49.32,39.3,8.11-10.93,16.91-22.16,25-33.88A90.56,90.56,0,0,0,421,162.8c3.07-14.72-2.4-25.86-16-32.26a52,52,0,0,0-7.43-2.81c-16.44-4.88-33.19-4.47-50-2.53C338.54,126.25,329.58,127.93,320.93,129.28Zm-191.39,243c-2.88-19.2-5.55-37.58-8.49-55.93a10.71,10.71,0,0,0-3.36-6.13c-10.32-8.4-21-16.42-31.32-24.76C81,281.16,76,276.43,70.44,271.61c-5,5.95-9.87,11.4-14.36,17.17-11.59,14.9-21.95,30.52-26.22,49.32-3.55,15.68,2.45,28.1,17.54,33.5a112.81,112.81,0,0,0,26.67,5.56C92.93,379.05,111.46,375.89,129.54,372.31Zm36,23.57c6.5,13.74,12.31,28.11,19.94,41.43a109.43,109.43,0,0,0,19.59,24.34c12.26,11.63,26.37,11.59,39.76,1.21a69.54,69.54,0,0,0,10.42-10c10.2-12.07,17.37-25.95,23.19-40.55,2.25-5.65,4.2-11.42,6.17-16.83-.69-.72-.88-1.07-1.16-1.18q-28-10.56-56-21a6.48,6.48,0,0,0-4.28,0C204.47,380.52,185.8,387.9,165.53,395.88Zm.52-289.65a22.84,22.84,0,0,0,2.34,1.2c17.89,6.69,35.76,13.42,53.72,19.92a9.45,9.45,0,0,0,6-.46c9-3.47,17.81-7.39,26.83-10.79,9.59-3.62,19.34-6.84,29.29-10.33-6.4-19.4-14.09-37.95-26.73-53.9a80.64,80.64,0,0,0-16.19-15.39c-10.18-7.26-21.32-7.33-31.74-.27a71.62,71.62,0,0,0-14.09,12.55C181.19,65.48,173,85.46,166.05,106.23Zm-48.7,167.53V228.64L90.8,251.3Zm242.13-22.92L333.3,228.76v44.47Zm-59.9,81.46-38.09,22.41,31.72,10.76C295.35,354.34,297.37,343.81,299.58,332.3ZM189.32,354.68,151.45,332.9c2.22,11.46,4.17,21.57,6.28,32.45ZM262.48,146.9l36.81,21.38-6.11-31.83Zm-111,20.35,35.84-20.87-29.9-10C155.42,146.62,153.54,156.44,151.46,167.25Z"/><circle class="cls-1" cx="228.15" cy="251.2" r="30.82"/></g></g></svg>