<svg xmlns="http://www.w3.org/2000/svg" viewBox="0 0 98.53 116.22"><defs><style>.cls-1{fill:#04314a;}</style></defs><title>Asset 7</title><g id="Layer_2" data-name="Layer 2"><g id="Layer_1-2" data-name="Layer 1"><path class="cls-1" d="M48.57,54.08c-13.49,0-27,0-40.47,0-2,0-3-.58-2.68-2.73.08-.53.25-1.14.75-1.17,2.5-.1,1.88-2.05,2.05-3.43C10.41,29.36,21.54,17.34,38.64,14c1-.19,2-.2,3-.32.64-.07,1.52,0,1.47-.94-.06-1.46.37-2.16,2-2,1.06.13.84-.79.85-1.4,0-2.58.1-5.17,0-7.74C45.8,0,46.71,0,47.89,0S50.07-.2,50,1.57c-.13,2.41,0,4.83,0,7.25,0,.49,0,1,0,1.49,1.5.15,2.67.48,2.67,2.7,0,1.09,1.1.41,2.8.85C71,15.2,81.53,23.6,87.09,38.17a29.64,29.64,0,0,1,1.92,10c0,.77-.23,1.74,1.11,1.79,1.6.06,1.81,1.19,1.72,2.47-.12,1.66-1.34,1.65-2.55,1.65H48.57Z"/><path class="cls-1" d="M49.28,116.21H4.55a11.12,11.12,0,0,1-2.24-.09A2.6,2.6,0,0,1,0,113.56a2.37,2.37,0,0,1,2.35-2.7c1.58,0,1.66-.74,1.66-2Q4,96.51,4,84.14C4,83,4,82.27,2.45,82.29A2.35,2.35,0,0,1,0,79.7,2.58,2.58,0,0,1,2.46,77,23.86,23.86,0,0,1,6,76.85q28.35,0,56.69.09,16.11,0,32.22,0a3.7,3.7,0,0,1,3,1,2.58,2.58,0,0,1,.47,2.81,2.46,2.46,0,0,1-2.81,1.61c-2.13-.32-2.43.73-2.41,2.56.08,7.91,0,15.82,0,23.74,0,1.25-.08,2.35,1.75,2.16s3.65.35,3.59,2.7c-.06,2.51-2,2.72-3.93,2.72Zm-29-19.82v-8c0-6.17,0-6.1-6.06-6.09-1.68,0-2.11.51-2.1,2.11.07,6.81,0,13.63,0,20.44,0,6.07,0,6,6.19,5.95,1.52,0,2-.44,2-2C20.19,104.7,20.25,100.54,20.25,96.39Zm16.19.14V88.3c0-6.09,0-6-6.13-6-1.54,0-2,.44-2,2,.08,6.82,0,13.64,0,20.46,0,6.23,0,6.18,6.27,6.07,1.4,0,1.84-.38,1.81-1.8C36.38,104.85,36.44,100.69,36.44,96.53Zm8.06,0v8.23c0,6.11,0,6,6.07,6,1.69,0,2.06-.54,2-2.12-.08-6.73,0-13.46,0-20.19,0-6.51,0-6.47-6.44-6.18-1.35.06-1.68.52-1.66,1.76C44.54,88.25,44.5,92.4,44.5,96.55Zm24.38.27V88.1c0-5.81,0-5.7-5.86-5.79-2,0-2.28.73-2.26,2.45.09,6.64,0,13.29,0,19.94,0,6.27,0,6.2,6.23,6.12,1.64,0,1.9-.62,1.87-2C68.82,104.79,68.88,100.81,68.88,96.82Zm8.06-.22v8.49c0,5.71,0,5.63,5.6,5.73,1.87,0,2.55-.36,2.5-2.41-.14-6.65-.05-13.3-.05-20,0-6.28,0-6.24-6.24-6.12-1.38,0-1.87.35-1.84,1.8C77,88.29,76.94,92.45,76.94,96.6Z"/><path class="cls-1" d="M48.68,56.78q20.13,0,40.25,0c1.18,0,2.67-.41,2.89,1.47.19,1.53-.21,2.59-2.09,2.6-1,0-.66,1-.66,1.58,0,3.33-.07,6.67,0,10,0,1.3-.18,1.91-1.72,1.91-3.69,0-3.69.09-3.69-3.7,0-2.75-.1-5.51,0-8.25.08-1.7-.86-1.64-2-1.61s-2.14-.21-2.08,1.55c.12,3.33,0,6.67.06,10,0,1.44-.25,2-1.89,2-3.5-.06-3.51,0-3.51-3.36,0-2.83-.11-5.67,0-8.49.1-1.88-1-1.66-2.18-1.72s-2,.16-1.92,1.71c.11,3.25-.15,6.52.08,9.75.19,2.58-1.43,2-2.84,2.06s-2.82.44-2.66-2c.22-3.24,0-6.5.1-9.75.08-1.75-.76-1.79-2.1-1.83s-2.08.25-2,1.89c.13,3.25,0,6.5.06,9.75,0,1.28-.16,1.93-1.72,1.95-3.72,0-3.72.12-3.72-3.63,0-2.75-.12-5.51,0-8.25.11-1.92-1.05-1.61-2.21-1.69-1.31-.09-2,.19-1.89,1.72.11,3.25,0,6.5.07,9.75,0,1.62-.42,2.14-2.08,2.1-3.39-.09-3.4,0-3.4-3.45,0-2.67-.07-5.34,0-8,.06-1.52-.23-2.21-2-2.16-1.56,0-2.18.35-2.1,2,.14,3.25,0,6.5.07,9.75,0,1.45-.47,1.79-1.85,1.8-3.63,0-3.63.08-3.63-3.45,0-2.58,0-5.16,0-7.75,0-1.44.1-2.46-2-2.42-1.86,0-2.16.68-2.1,2.31.12,3.17,0,6.34.07,9.5,0,1.43-.42,1.81-1.82,1.81-3.67,0-3.67.08-3.67-3.68,0-2.67-.11-5.34,0-8,.09-1.62-.51-1.91-2-1.91s-2.2.27-2.12,2c.15,3.24,0,6.5.07,9.74,0,1.39-.35,2-1.79,1.81a6.34,6.34,0,0,0-1.74,0c-1.5.19-2.05-.3-2-1.9.13-3.25-.05-6.5.08-9.75.06-1.6-.49-1.92-2-1.92s-2.21.28-2.13,2c.15,3.16-.05,6.34.08,9.5.06,1.63-.4,2.14-2.06,2.07-4.14-.18-3.34.45-3.4-3.46,0-2.83,0-5.67,0-8.5,0-.67.3-1.57-1-1.59-1.95,0-1.71-1.48-1.61-2.7.14-1.61,1.45-1.3,2.49-1.31Z"/></g></g></svg>