<svg xmlns="http://www.w3.org/2000/svg" viewBox="0 0 122.98 177.72"><defs><style>.cls-1{fill:#231f20;stroke:#fff;stroke-miterlimit:10;}</style></defs><title>Asset 2</title><g id="Layer_2" data-name="Layer 2"><g id="Layer_1-2" data-name="Layer 1"><path class="cls-1" d="M14.45,169.52a61.57,61.57,0,0,0,7.62,7.7h78.85a62.14,62.14,0,0,0,6.61-6.67,61.17,61.17,0,0,0,14.77-44.31c-1.16-14.54-5.11-28.25-10.78-41.75-4.19-10-6.7-20.78-9.06-31.41-1.61-7.24-.9-15-2.56-22.23-4.3-18.8-22.77-32-41-30.18C37.69,2.82,22.42,18.45,21.8,39.47A118.07,118.07,0,0,1,10,88.48c-6.43,13.2-8.8,27.45-9.48,43.23.22,2,.55,5.1,1,8.23A58.1,58.1,0,0,0,14.45,169.52ZM32.81,33.3C44,32.92,54.22,29.84,61.44,19.42c7.31,10.21,17.47,13.75,28.87,13.79,2.4,14-2.31,25.5-12.86,32.18a29.72,29.72,0,0,1-32.88-.61C34.56,57.81,30.09,46.11,32.81,33.3Z"/></g></g></svg>