<svg xmlns="http://www.w3.org/2000/svg" viewBox="0 0 242 261.56"><defs><style>.cls-1{fill:#d8be7f;}.cls-2{fill:#17130e;}</style></defs><title>Asset 2</title><g id="Layer_2" data-name="Layer 2"><g id="Layer_1-2" data-name="Layer 1"><path class="cls-1" d="M120.58,261.5c-33,0-66,.06-98.94,0-17.24,0-21.13-4-21.19-21.22C.31,204.14.6,168,.12,131.93-.37,96,.81,60.14.55,24.24a63.71,63.71,0,0,1,.52-8.95c1.16-8.58,6-12.89,14.7-13.62C32.56.27,49.39,1,66.2.84c23-.17,46,.52,69-.33,24-.9,47.94-.31,71.91-.41a132.47,132.47,0,0,1,21.84,1.49c9.45,1.54,11.81,4,11.93,13.74.18,15.16.14,30.32.19,45.48.05,13.49-.31,27,.3,40.47.45,10,.93,20,.5,29.92-1.56,36.45-.06,72.91-.82,109.36a27.09,27.09,0,0,1-.15,3c-2.1,13.83-1,17.56-20.83,17.8-33.15.4-66.3.11-99.45.11ZM112.4,52.42c-4.2-.41-9.17-.31-11.11,5.5-5.56,16.66-10.67,33.46-16.54,50-4.22,11.9-7.49,24.18-11.6,36.16-3.55,10.33-7,20.71-10.57,31-2.75,7.82-4.81,16-7.8,23.79-1.26,3.31-1.37,7.29,2.39,9.87,6.06,4.16,13.66,1.82,15.88-5.06,4.08-12.65,8.25-25.27,11.85-38,.78-2.78,1.68-3.47,4.1-3.48,16.65-.06,33.3,0,49.95-.32,3.86-.07,5.24,1.71,6.19,4.84,2.45,8,5,16,7.47,24,1.5,4.88,3.57,9.5,4.35,14.72.56,3.81,11.41,5.91,16.13,3.82,4-1.76,4.73-5.27,2.61-11.2C166.73,173,157.4,148,147.89,123c-7.66-20.09-14.33-40.57-21.43-60.87C123.09,52.51,123.1,52.5,112.4,52.42ZM216.19,209.94H216V188c0-2.22-.88-4-3-4.69a4.4,4.4,0,0,0-5.5,2.25c-2,3.63-5,5.51-9,6.39a4.21,4.21,0,0,0-2.69,6.81c1.45,2,3.48,1.86,5.43,1.22,4.6-1.5,5.55.29,5.33,4.71-.41,8.62-.17,17.26-.33,25.89-.06,3.25.65,5.5,4.47,5.6,4.06.11,5.63-1.76,5.52-5.78C216.06,223.58,216.19,216.76,216.19,209.94Z"/><path class="cls-2" d="M112.4,52.42c10.7.08,10.69.09,14.06,9.73,7.1,20.3,13.77,40.78,21.43,60.87C157.4,148,166.73,173,175.7,198.08c2.12,5.93,1.37,9.44-2.61,11.2-4.72,2.09-15.57,0-16.13-3.82-.78-5.22-2.85-9.84-4.35-14.72-2.45-8-5-16-7.47-24-.95-3.13-2.33-4.91-6.19-4.84-16.65.31-33.3.26-49.95.32-2.42,0-3.32.7-4.1,3.48-3.6,12.78-7.77,25.4-11.85,38-2.22,6.88-9.82,9.22-15.88,5.06-3.76-2.58-3.65-6.56-2.39-9.87,3-7.84,5-16,7.8-23.79,3.62-10.3,7-20.68,10.57-31,4.11-12,7.38-24.26,11.6-36.16,5.87-16.58,11-33.38,16.54-50C103.23,52.11,108.2,52,112.4,52.42Zm10,92.24c2.33,0,4.66.05,7,0,8.32-.18,8.34-.2,5.73-8.05-2.2-6.62-4.52-13.2-6.65-19.84-1.94-6.05-5.47-11.34-6.76-17.86s-4.15-12.6-5.94-19c-.33-1.18-.58-2.94-2.18-3s-1.79,1.71-2.18,2.91Q108,90.21,104.7,100.68c-4.13,13.24-8.11,26.52-12.37,39.71-1.24,3.84,0,4.78,3.56,4.38,3.23-.37,6.69-1.55,9.67-.82C111.2,145.35,116.78,144.34,122.36,144.66Z"/><path class="cls-2" d="M216.19,209.94c0,6.82-.13,13.64.05,20.45.11,4-1.46,5.89-5.52,5.78-3.82-.1-4.53-2.35-4.47-5.6.16-8.63-.08-17.27.33-25.89.22-4.42-.73-6.21-5.33-4.71-1.95.64-4,.74-5.43-1.22a4.21,4.21,0,0,1,2.69-6.81c4-.88,7-2.76,9-6.39a4.4,4.4,0,0,1,5.5-2.25c2.12.66,3,2.47,3,4.69v21.95Z"/><path class="cls-1" d="M95.89,144.77c-3.52.4-4.8-.54-3.56-4.38,4.26-13.19,8.24-26.47,12.37-39.71q3.27-10.47,6.66-20.91c.39-1.2.46-3,2.18-2.91s1.85,1.83,2.18,3c1.79,6.43,4.68,12.64,5.94,19s4.82,11.81,6.76,17.86c2.13,6.64,4.45,13.22,6.65,19.84,2.61,7.85,2.59,7.87-5.73,8.05-2.32.06-4.65,0-7,0"/></g></g></svg>