<svg id="Layer_1" data-name="Layer 1" xmlns="http://www.w3.org/2000/svg" viewBox="0 0 242 261.57"><defs><style>.cls-1{fill:#d8be7f;}.cls-2{fill:#17130e;}.cls-3{fill:#231f20;}</style></defs><title>Untitled-2</title><path class="cls-1" d="M353.07,239.71c-.61-13.47-.25-27-.3-40.47,0-15.16,0-30.32-.19-45.48-.12-9.77-2.48-12.2-11.93-13.75a132.46,132.46,0,0,0-21.84-1.48c-24,.09-47.93-.49-71.91.4-23,.86-46,.17-69,.33-16.82.12-33.64-.56-50.44.84-8.7.72-13.54,5-14.7,13.61a63.85,63.85,0,0,0-.52,9c.26,35.9-.91,71.78-.43,107.68.49,36.11.19,72.22.33,108.33.06,17.25,4,21.17,21.19,21.22,33,.09,66,0,99,0v0c33.14,0,66.3.29,99.44-.11,19.81-.24,18.74-4,20.83-17.81a22.86,22.86,0,0,0,.15-3c.76-36.44-.74-72.9.83-109.35C354,259.68,353.52,249.69,353.07,239.71Zm-68.24,108c-4.72,2.09-15.57,0-16.13-3.82-.77-5.21-2.85-9.83-4.35-14.72-2.45-8-5-16-7.47-24-.95-3.14-2.33-4.92-6.19-4.85-16.65.31-33.3.27-49.95.32-2.42,0-3.32.7-4.1,3.49-3.59,12.78-7.77,25.4-11.85,38-2.22,6.88-9.82,9.23-15.88,5.07-3.76-2.58-3.64-6.57-2.38-9.88,3-7.83,5-16,7.79-23.79,3.62-10.29,7-20.68,10.57-31,4.12-12,7.38-24.27,11.6-36.17,5.88-16.57,11-33.37,16.54-50,1.94-5.82,6.91-5.91,11.11-5.51,10.7.09,10.69.09,14.06,9.73,7.11,20.31,13.77,40.78,21.43,60.87q14.28,37.41,27.81,75.07C289.56,342.43,288.81,345.94,284.83,347.7Z" transform="translate(-111.74 -138.43)"/><path class="cls-2" d="M224.14,190.84c10.7.09,10.69.09,14.06,9.73,7.11,20.31,13.77,40.78,21.43,60.87q14.28,37.41,27.81,75.07c2.12,5.92,1.37,9.43-2.61,11.19-4.72,2.09-15.57,0-16.13-3.82-.77-5.21-2.85-9.83-4.35-14.72-2.45-8-5-16-7.47-24-.95-3.14-2.33-4.92-6.19-4.85-16.65.31-33.3.27-49.95.32-2.42,0-3.32.7-4.1,3.49-3.59,12.78-7.77,25.4-11.85,38-2.22,6.88-9.82,9.23-15.88,5.07-3.76-2.58-3.64-6.57-2.38-9.88,3-7.83,5-16,7.79-23.79,3.62-10.29,7-20.68,10.57-31,4.12-12,7.38-24.27,11.6-36.17,5.88-16.57,11-33.37,16.54-50C215,190.53,219.94,190.44,224.14,190.84Zm10,92.25c2.33,0,4.66,0,7,0,8.33-.19,8.34-.2,5.73-8.05-2.2-6.62-4.51-13.21-6.65-19.85-1.94-6.05-5.47-11.33-6.76-17.85s-4.15-12.61-5.94-19c-.33-1.18-.58-2.94-2.18-3s-1.79,1.71-2.18,2.91c-2.24,7-4.48,13.93-6.66,20.91-4.12,13.23-8.11,26.52-12.37,39.71-1.24,3.84,0,4.78,3.56,4.38,3.23-.37,6.7-1.56,9.67-.82C222.94,283.78,228.52,282.77,234.1,283.09Z" transform="translate(-111.74 -138.43)"/><path class="cls-1" d="M207.63,283.2c-3.52.4-4.8-.54-3.56-4.38,4.26-13.19,8.25-26.48,12.37-39.71,2.18-7,4.42-14,6.66-20.91.39-1.2.46-3,2.18-2.91s1.85,1.83,2.18,3c1.79,6.42,4.68,12.63,5.94,19s4.82,11.8,6.76,17.85c2.14,6.64,4.45,13.23,6.65,19.85,2.61,7.85,2.6,7.86-5.73,8.05-2.32.05-4.65,0-7,0" transform="translate(-111.74 -138.43)"/><path class="cls-3" d="M317.8,370.32s0,0,0,0l-.15-2c-.45-4.12.92-8.63,4.74-13.21,3.43-4,5.34-7,5.34-10.46,0-3.89-2.44-6.49-7.25-6.56a13.58,13.58,0,0,0-7.68,2.34s0,0-.05,0l-1.8-4.75s0,0,0,0c2.52-1.82,6.86-3,10.89-3,8.78,0,12.75,5.42,12.75,11.23,0,5.19-2.9,8.93-6.56,13.28-3.36,4-4.58,7.33-4.36,11.22l.08,2a0,0,0,0,1,0,0Zm-1.7,10.25a4.47,4.47,0,0,1,4.57-4.37c2.67,0,4.5,2,4.5,4.81a4.44,4.44,0,0,1-3.64,4.65A4.76,4.76,0,0,1,316.1,380.57Z" transform="translate(-111.74 -138.43)"/></svg>