<svg xmlns="http://www.w3.org/2000/svg" viewBox="0 0 1026.76 662.97"><defs><style>.cls-1{stroke:#000;stroke-width:3px;}.cls-1,.cls-2,.cls-3{stroke-miterlimit:10;}.cls-2,.cls-3{fill:none;stroke:#fff;}.cls-3{stroke-width:4px;}</style></defs><title>Asset 1</title><g id="Layer_2" data-name="Layer 2"><g id="Layer_1-2" data-name="Layer 1"><path class="cls-1" d="M978,6.5l-5.5,5-2.5-2c-2.5-2-2.6-2-3.6-.2-2.6,4.8-4.3,19.7-3.6,30.9.5,9.2.4,11.7-1,14.2a9.85,9.85,0,0,0-.9,6.5c.9,4.9-.3,7.6-4,9.1s-5.2,3.1-5.7,5.9c-.5,2.4-9.7,6.5-35.8,16-10.1,3.7-19.5,7.4-20.8,8.3-3.2,2.1-7.1,8.9-9.3,16.4a37.34,37.34,0,0,1-5,10,28.73,28.73,0,0,0-3,4.3c0,.3,1.8.9,4,1.2,4.3.7,5.1,2.6,2.8,6.4-1,1.6-.9,2.3,1.1,4.3l2.2,2.5-3.3,3.1c-1.8,1.8-7.5,5.3-12.5,7.7-7.3,3.6-10.5,4.6-15.1,4.8-4.3.2-7.4,1.1-12,3.6-3.7,1.9-5.9,3.7-5.5,4.4a49.21,49.21,0,0,0,3.5,4.8c2.1,2.7,2.7,4.4,2.3,5.9-1.1,3.3-20.4,22.8-26.5,26.7a115.33,115.33,0,0,0-12.5,10.2c-7,6.7-18.6,14.3-23.8,15.6a5.2,5.2,0,0,1-4.5-.8c-.9-.9-3.5-1.8-5.6-2.1s-4.6-1.3-5.4-2.1c-1.3-1.3-1.3-1.8.2-4.1,1.1-1.7,2.1-6,2.6-11.3,1-10.7,1.5-12,4.9-12.9,5.5-1.3,5.4-5-.4-16.8-7.7-15.6-9.6-16.5-16.2-7.4-5.4,7.6-8.4,8.6-9.8,3.2-.4-1.9,0-3.5,1.6-5.6,2.5-3.4,4.9-11.6,4.9-16.8a10.91,10.91,0,0,0-2-6.2,10.24,10.24,0,0,1-2-5.4c0-2.8-.3-3-9.2-5.7-5.1-1.5-10.6-3.2-12.2-3.6-3.3-1.1-6,0-7.7,3.2-.9,1.7-.8,2.3.6,3.1,1.7.9,1.7,1.1-.3,2.6-1.7,1.2-2.3,2.9-2.5,7.3-.2,3.2-.7,6.1-1.1,6.5-1,1-3.9-1-5.2-3.5-1-2-1.3-1.9-4.9,2.9l-3.9,5.1v13.8c-.1,12.5.1,14.1,2,16.7,6,8.1,7.5,16.5,5,28.3-2.3,10.7-6.1,17.8-11,20.3-3.5,1.8-4.1,1.9-6.5.6-4.7-2.7-8.3-10-9.1-18.7a84.79,84.79,0,0,0-3-15c-1.9-6.2-2.1-8-1.2-11.5a97.7,97.7,0,0,0,1.6-13.7,53.46,53.46,0,0,1,3-16.6,60.19,60.19,0,0,0,2.6-8.4c0-2.3-2.9,1-6.1,7.1s-6.5,9.7-7.6,8.5c-1.6-1.5,2.8-17.4,7.4-26.6,2.6-5.2,4.8-9.7,5-9.9s.9.2,1.7.8c1,.8,1.6.9,2.1.1.9-1.4,4.5-1.3,4.5.2,0,.7,1,.1,2.3-1.3a70.75,70.75,0,0,1,8.6-7.4c7-5.2,6.6-5.1,17.9-1.9,1.9.5,2.2.3,2.2-2.1s.3-2.5,2.3-1.9c6.3,2.1,8.4.1,3.3-3.4-3-2.1-3.7-2.2-7.8-1.1-3.8,1.1-4.8,1-7.1-.6a5,5,0,0,1-2.7-4.5v-2.8l-8.1,3.1c-4.9,1.9-9.9,4.7-12.5,7-4.1,3.6-4.8,3.9-8.7,3.3-2.3-.3-7.9-2.5-12.5-4.8-7-3.6-8.6-4-10.2-3-3.1,1.9-4,1.4-4-2,0-2.4,1-4.1,4.7-7.7,2.7-2.5,4.2-4.6,3.5-4.9-3.2-1-9.1,2.6-18.3,11.4-5.4,5.2-10.3,9.4-11,9.4s-2.8,1.4-4.6,3.2c-2.9,2.8-4.1,3.3-9.8,3.6l-6.5.4v-3.1c0-3.7-.4-3.7-7.2-1.1-5,1.9-12.8,2.7-12.8,1.4,0-.3,2.3-3.2,5.2-6.3a113.7,113.7,0,0,0,8.4-10.6c4.4-6.8,7.7-9.7,15.9-13.8l7-3.5-4.7-.7a32.43,32.43,0,0,0-8.2-.1,11.91,11.91,0,0,1-6-.5c-2.1-1-3.3-.9-6.3.5-3.7,1.6-3.9,1.6-10.8-1.3-4.4-1.9-7.4-2.6-8-2-1.6,1.6-2.4,1-4-2.7-1.1-2.8-1.9-3.5-3.2-3a59.85,59.85,0,0,1-8.8,1.6c-5.9.7-7.3.6-8.8-.8-1.2-1-4.2-1.8-8.3-2l-6.5-.4-2.9-5.2c-5-8.8-4.6-8.5-6.3-4.3-1,2.3-2.6,4.1-4.2,4.7-7.4,2.8-112.2,4.3-147,2.1-99.8-6.2-196.7-24.3-286.7-53.4-7.6-2.5-13.8-4.3-13.8-4a26.1,26.1,0,0,0,2.5,4.1c2.9,4.3,3,5,.9,7.3-1.5,1.7-1.5,2.2,0,6.5,2.2,6.4,2,8.3-.9,11a7.37,7.37,0,0,0-2.5,5.7,10.67,10.67,0,0,1-1.2,4.9c-1.5,1.8-6.6,5.2-9,6.1s-5.8-2.8-5.8-5.9c0-2,.6-2.3,4.1-2.6,5.6-.4,7.4-3.1,4-5.9l-2.4-2,2.3-2.4c2.3-2.4,2.3-2.5.4-4.6-1-1.1-6-4-11-6.4s-10.4-5.5-12.1-6.9l-3.1-2.6-1.1,2.8c-.9,2.1-.9,5-.2,11.3a135.93,135.93,0,0,1,1.1,14c0,3.7.5,5.9,1.3,6.2s.6.9-.8,2c-2,1.5-2,1.6-.1,4.7s1.8,3.2-.3,6.1c-2.7,3.6-2.6,4.3.4,6.3,3.5,2.3,3.1,3.4-1.1,3.8-3.7.3-3.7.4-5.9,7.8a92.57,92.57,0,0,1-5.2,13.5c-1.7,3.3-4.5,9.7-6.2,14.2a139.28,139.28,0,0,1-8.2,16.4c-10.7,17.8-11.6,20.6-13.9,41.8a75.32,75.32,0,0,0-.3,11.2c.9,6.1-2.5,16.4-7,21.5-5.4,6.2-5.8,9.7-1.7,18.6l3.3,7.2L5.76,248c-2.1,12.8-1.7,16,2.7,24.2,2.8,5.2,3,6.2,2,9.7-1.3,4.9-.1,8.2,3.3,9.8,2,.9,2.8.8,4.4-.6,1.7-1.6,1.9-1.6,2.5.6a30.22,30.22,0,0,1,.6,5.7c0,2.5-.4,3.2-1.4,2.8s-1.7.5-2.2,3.8c-1,7.2.1,10.7,5.1,15.4,2.5,2.3,4.5,4.5,4.5,4.9a19.84,19.84,0,0,1-2.5,4.6l-2.4,3.9,2.8,5.6a42.58,42.58,0,0,1,3.6,9.8,20.62,20.62,0,0,0,3.5,8.1,60.73,60.73,0,0,1,5.5,10.6c2.3,5.8,2.5,7.4,1.9,13.5l-.6,7,3.3,2a42.79,42.79,0,0,0,9.2,3.7c5,1.5,6.5,2.5,11.9,8.6,3.6,4.1,8.1,7.9,10.9,9.3,3.2,1.7,4.9,3.2,5.1,4.7.2,1.2,1.9,3.2,3.8,4.5,7,4.4,8.6,6.2,11.9,12.8,2.1,4.4,3.3,8.5,3.4,11.6.1,2.8.7,5.1,1.5,5.3a3.67,3.67,0,0,1,1.2,3c0,2.9-1.7,2.4,26.5,7.1,14.9,2.5,21.2,3.9,21.8,5,1.1,2,7.8,6.3,31.1,19.7,10.5,6.1,22,13.2,25.6,15.8a103.35,103.35,0,0,0,10.5,6.8c5.2,2.5,19.5,5.8,31.5,7.1,17.7,1.9,37,3.4,37.6,2.9.3-.3.6-3,.7-5.8l.2-5.3,15,.7c8.3.3,16.6,1,18.6,1.5,4.4,1,14.9,11,16.4,15.5.7,2,2.9,4.3,6.7,6.8a44.64,44.64,0,0,1,8.3,7.2c3.2,4.3,7.5,14.7,7.5,18.4,0,3.3,4,9.2,9.3,13.9,5,4.4,16.6,11.1,20.5,11.9,3,.6,3.7.2,10-6.4,4.1-4.4,8.6-7.9,11.4-9.2,4.3-1.9,5.4-2,11.5-.9,6.4,1,7.1,1.5,12.4,6.9,3,3.2,10,12.7,15.4,21.1,5.8,9,12,17.5,15.1,20.4,5.8,5.5,7.5,9,12.3,24.2,3.6,11.7,4.4,12.5,14.1,14.6a45.75,45.75,0,0,1,9.5,3.1,16.44,16.44,0,0,0,6.6,1.6,10.91,10.91,0,0,1,6.2,2c2.6,2.1,6.3,2.6,8.5,1.1,1.1-.7,1.1-.9-.2-1.4a3.67,3.67,0,0,1-1.6-3.3c0-1.5-1.2-6.2-2.7-10.5-2.4-7.3-2.5-8.2-1.3-12s1.3-4.2-1-5.9l-2.4-1.8,3.2-3c3.6-3.4,3.8-3.9,1.7-6.9-1.4-2-1.4-2.3.5-3.6a12.29,12.29,0,0,0,3.5-5.1c.9-2,2-3.4,2.6-3,1.4.9,4.8-2.4,6.5-6.4,1-2.6,1.8-3.2,3.2-2.8,3.3,1.1,5.2-.3,4.6-3.2l-.5-2.7,7.3-.1c4.6,0,8.4-.6,10.4-1.7,7.4-3.9,16.4-16.9,14.3-20.8-1.2-2.4-.6-3.5,3.1-5.4,2.8-1.5,2.9-1.4,4,2,.6,1.9,1.6,3.7,2.1,4s4.2-1,8.1-3a78.8,78.8,0,0,1,14.3-5c6.6-1.3,7.5-1.3,13.5.5a46.11,46.11,0,0,0,10.5,2c3.4,0,4.4-.5,6.8-3.5,3.2-4,4.8-4.2,11.2-1.5,2.6,1.1,4.9,2,5.1,2s-.7-2.2-2.3-4.9c-3.1-5.6-2.8-6.6,1.1-5.1,3.4,1.3,5.6,6.3,5.6,13,0,3.7.5,5.5,2,7,2.5,2.5,3.7,2.5,7.5,0,2.2-1.4,3.9-1.8,7.1-1.3,3.5.5,4.4.2,5.8-1.8,2.3-3.3,2-4.6-1.5-7.8-2.3-2.2-2.9-3.4-2.4-5,1-3.1,3.3-2.6,7.4,1.8a36.53,36.53,0,0,0,8.8,6.5c2.9,1.4,5.6,3.4,6.2,4.3.9,1.7,1.1,1.7,3-.1,4.1-3.7,2.3-6.9-5.1-9.1-3.5-1-4.4-1.7-4.6-3.9-.4-3.4,1.3-5.6,4.4-5.6s3.1-1.7-.2-3.2c-2-.9-3-.9-4.5,0-3.3,2.1-5.9,1.5-5.9-1.3s-1.2-3.2-3-1c-2.1,2.6-7.8,1.9-11.1-1.4-1.6-1.6-2.9-3.3-2.9-3.8s1.9-1.6,4.3-2.6c4.3-1.7,4.4-1.7,10.9.7l6.5,2.5,5.8-4c4.9-3.3,6.5-3.9,11.2-3.9,6.1,0,10.9-1.7,13.7-4.9,2.4-2.7,3-2.7,4.4.4,1,2.3,1.7,2.5,7.2,2.5h6v-3c0-2.8.2-3,4-3a37.8,37.8,0,0,0,8.5-1.2c3.8-1,5.9-1,13,.5,8,1.6,8.9,2.1,14.2,7.2l5.6,5.4,6.9-3.5c5.3-2.7,7.2-4.2,8-6.4,1-2.9,1.2-3,7.7-3,7.2,0,8.3.7,12.4,7.2,1,1.6,4.1,4,7,5.4,6.3,3.2,11.3,6.9,12.6,9.3.6,1,1.5,5.8,2,10.7,2.1,17.2,2.2,18,3.2,16.1a3,3,0,0,1,5.4.3,10.41,10.41,0,0,1-.6,5.3c-1,2.9-.9,3.8,1,7.5,3.4,6.7,5.6,8.4,9.6,7.6,2.8-.5,3.5-.3,3.5.9,0,.9,1.5,2.8,3.4,4.2,2.1,1.6,3.3,3.2,2.9,4.1s.6,2.6,2,3.9a13.26,13.26,0,0,1,3,5.4c.4,1.9,1.4,3.2,2.9,3.6,1.2.4,4.5,2.9,7.2,5.5s6.1,5.3,7.4,5.9c1.7.9,2.1,1.8,1.7,3.2-.6,1.9-.5,2,1.7.7a11.15,11.15,0,0,1,5.5-1.7c4.1-.4,6.2-15,5.2-36.6-.3-6.1-.9-8.7-2.5-11a21.48,21.48,0,0,1-2.8-6c-.4-1.7-4.5-9.2-9.2-16.8s-8.4-14-8.4-14.3.9-.4,2-.4c1.7,0,.9-1.4-4.4-8.4-7.7-10.1-13.3-19.8-15.6-27.4-1.5-4.7-2-5.4-2.7-3.7a29.14,29.14,0,0,0-.8,7.2c0,2.9-.2,5.3-.5,5.3-.9,0-3-8.6-3-11.9a6.14,6.14,0,0,1,1.5-4.1c1.8-1.5,1.9-6.9.4-12.4-1.3-4.9.6-19.4,3.3-24.8a19.23,19.23,0,0,0,1.8-6.7c0-1.6.5-3.3,1-3.6s.9-1.9.8-3.3c-.2-1.6.2-2.6.8-2.5s2-.7,2.9-1.7a6.18,6.18,0,0,1,2.7-2c1.9,0,10.6-8.3,11.2-10.6.4-1.3,1.1-2.4,1.6-2.4,1.4,0,6-7.2,6-9.4a7.46,7.46,0,0,1,2-4.1c1.2-1.2,3.7-5.5,5.8-9.6,3-6.1,4.6-8,8.7-10.6,7.6-4.7,10.5-7.8,10.5-10.9s4.1-10.6,8.3-15.1a22.52,22.52,0,0,1,7.9-4.9c5-1.6,8.5-5.1,6.9-6.7-.6-.6-2.2.1-4.2,1.7-3.7,3.1-7.4,3.2-7.4.1,0-1.4.8-2.1,2.8-2.3,2.2-.3,2.7-.8,2.7-3.2s-.6-3-3.2-4c-3.1-1.1-3.2-1.2-1.1-2a7.76,7.76,0,0,0,3.3-2.9c1.2-2.4,3.1-2.6,6.1-.9,1.8,1.1,2.3,1,4.4-1.5,3.3-3.7,4.9-10,3.4-12.9-1.1-2.1-1.2-2.1-2.4.9s-1.3,3-6.3,2c-4.2-.9-5.4-.8-7.6.6a15,15,0,0,1-3,1.7c-.8,0-2.8-10.1-2.2-10.8.4-.3,2,.2,3.6,1.1,2.9,1.7,2.9,1.7,7.4-1.6l4.4-3.4-1.9-2.9a7.87,7.87,0,0,1-1.4-5.5c.8-3.6-2.6-5.7-9-5.6-2.8,0-6.1-.5-7.4-1.2-2.2-1.2-2.3-1.4-.7-2.3a6.59,6.59,0,0,1,4.2-.5c2.4.4,2.3.3-.8-2.4l-3.3-2.9,2.3-1.7,2.3-1.6-5.2-3.5c-4.2-2.8-4.9-3.6-3.6-4.3a5.31,5.31,0,0,1,4.1.1c4.1,1.5,4.2-.8.2-4.9s-4.4-5.1-2.2-5.1c2.6,0,2.8-2,.3-3.1-1.8-.8-3.3-3.3-5.6-9.1-1.7-4.3-3.1-8.9-3.1-10.1,0-2.7,4.3-9.3,7-10.7s3.8,1.1,2.2,4.3c-1.8,3.8-1,10.3,1.7,13,1.2,1.4,2.1,3,1.7,3.5s1.2,2.6,3.4,4.7,4.1,4.8,4.4,6.1c.5,1.9,1.3,2.4,3.6,2.4,3.5,0,3.8,1.3,1.4,6.4-1.6,3.3-1.2,7.9.5,6,.5-.5,1.8-6.7,3-13.7,2.7-16.2,2.2-19-4.8-24-3.8-2.8-5-4.3-5.5-7.2-.4-2-.6-3.8-.4-4s2.6.2,5.4.8c5.6,1.3,8.3,3.1,8.5,5.6.2,3.5,8.9-30.2,8.9-34.5,0-.9-1.2-1.4-3.5-1.4h-3.5v-4.9c0-4.2.7-6,4.9-12.3,6.7-9.9,10-12.8,21.1-18.8s14.6-9.1,16.2-14.2c1.3-4.3,1.5-4.4,3.9-2.2,1.6,1.4,2,1.2,5-2.6,2.2-2.7,3.6-3.7,4.3-3,1.7,1.7,2.4,1.2,6.5-4,4-5,4.4-7.3,1.4-8.4-2.2-.9-2.8.1-1.4,1.8,1.8,2.2.5,5.2-2.9,6.6-4.1,1.7-7.2.7-9.4-3.1a13.32,13.32,0,0,0-5.2-4.5c-3.1-1.3-3.4-1.8-3.4-5.9,0-2.4.5-4.7,1.1-5.1.8-.4.2-1.2-1.5-2.1-3.2-1.7-3.3-3.8-.6-15.1,2.3-9.5,4.2-13.7,7.1-15.5,1.1-.6,3.7-3.5,5.8-6.2,3.1-4.1,3.9-6.1,4.3-10.8.5-6.7,3.1-10.6,4.9-7.5,1.8,3.3,1.4,3.7,16-12,3.7-3.9,5.9-7.1,5.9-8.6,0-3.4-3.4-7.1-8-9a11.57,11.57,0,0,1-5.8-4.7,7.51,7.51,0,0,0-4.5-3.6c-3.3-.7-5-3.7-9.3-16.2-3.2-9.5-7.6-15.1-11.7-15.1C984.26,1.5,981.56,3.2,978,6.5Z"/><path class="cls-1" d="M963.16,185.3a82.66,82.66,0,0,0-10.5,5.2c-2.5,1.9-5.4,6-5.4,7.7,0,2.4,2.7,1.3,9.2-3.5,6-4.3,16.6-13.3,15.7-13.2C972,181.6,967.86,183.3,963.16,185.3Z"/><line class="cls-2" x1="923.66" y1="211.5" x2="930.16" y2="220.2"/><line class="cls-2" x1="930.16" y1="211.5" x2="923.66" y2="220.2"/><line class="cls-2" x1="923.66" y1="211.5" x2="930.16" y2="220.2"/><line class="cls-2" x1="930.16" y1="211.5" x2="923.66" y2="220.2"/><line class="cls-2" x1="936.76" y1="190.5" x2="943.26" y2="199.2"/><line class="cls-2" x1="943.26" y1="190.5" x2="936.76" y2="199.2"/><line class="cls-2" x1="28.66" y1="289.1" x2="35.26" y2="297.8"/><line class="cls-2" x1="35.26" y1="289.1" x2="28.66" y2="297.8"/><path class="cls-3" d="M940.06,194.9c-9.7,4.5-13.5,11.7-13.1,21-284.3-28.8-894.9,77.6-894.9,77.6"/><line class="cls-2" x1="71.86" y1="73.1" x2="65.26" y2="64.3"/><line class="cls-2" x1="71.86" y1="64.3" x2="65.26" y2="73.1"/><path class="cls-3" d="M68.56,68.7c306.9,27,596.1,72.7,858.4,147.1"/></g></g></svg>