<svg xmlns="http://www.w3.org/2000/svg" xmlns:xlink="http://www.w3.org/1999/xlink" viewBox="0 0 383.5 353.5"><defs><style>.cls-1{fill:none;}.cls-2{clip-path:url(#clip-path);}.cls-3{fill:#fff;}</style><clipPath id="clip-path" transform="translate(-0.33 -0.2)"><circle class="cls-1" cx="191.16" cy="175.05" r="165.05"/></clipPath></defs><title>Asset 1</title><g id="Layer_2" data-name="Layer 2"><g id="Layer_1-2" data-name="Layer 1"><g class="cls-2"><path class="cls-3" d="M.33,42.71v-33c4.5-1.84,7.85-5.11,11.46-9H.33C.41.54.48.24.58.23c.66,0,1.33,0,2,0H383.83v353.5h-4c-.24-.58-.32-1.43-.75-1.69-1.67-1-7.23.16-8.75,1.69h-53.5c-1.29-2.14-2.63-4.18-5.41-4.61-5.2-.81-9.49.9-13.09,4.61H19.83l-3.71-2.54-.79,2.54H.33v-42.5a20.74,20.74,0,0,1,2.95.27c8,1.8,16,3.87,24.07,5.43,10.29,2,20.63,3.69,31,5.34,9,1.43,17.92,2.85,26.92,3.86,12.07,1.35,24.18,2.25,36.26,3.49a24.84,24.84,0,0,1,6.67,1.82A169.22,169.22,0,0,0,167.57,342a179.08,179.08,0,0,0,40.86.76c8.57-.73,17.08-2.6,25.48-4.53,5.71-1.32,11.19-3.63,16.78-5.47,3.21-1.06,6.37-2.64,9.66-3,14.45-1.72,28.95-3,43.41-4.63,8.84-1,17.67-2.17,26.44-3.65,9.58-1.61,19.1-3.61,28.63-5.54,7.66-1.56,15.29-3.26,22.91-5,.58-.13,1.44-.82,1.46-1.28.13-3.29.07-6.58.07-10.1a718.57,718.57,0,0,1-99.55,17.21c.74-.87,1.09-1.32,1.47-1.73a5.14,5.14,0,0,1,.75-.65,165.21,165.21,0,0,0,32.56-29.18,152.21,152.21,0,0,0,20.4-30c1.67-3.33,3.78-4.6,7.59-4.5,11,.27,22,.1,33,.1,3.83,0,3.84,0,3.84-3.71,0-1.42-.12-2.85,0-4.25.22-2.1-.62-2.71-2.67-2.68-8.42.09-16.83,0-25.25,0-2.16,0-4.33,0-6.5,0-1.56,0-2.32-.65-1.64-2.4a72.39,72.39,0,0,0,2.43-7c2.37-8.72,5.07-17.38,6.87-26.22,2.56-12.55,2.66-25.36,1.94-38.08A162.61,162.61,0,0,0,355,139.71c-2.09-9.19-5.51-18.08-8.48-27.07-1-3-.69-3.79,2.49-3.8,6.25,0,12.5,0,18.75,0,4.42,0,8.83.06,13.25-.06.77,0,2.16-.72,2.18-1.18.2-3.2.11-6.42.11-9.89H380c-12.33,0-24.66,0-37,0-2.18,0-3.66-.44-4.76-2.68a91.23,91.23,0,0,0-6.29-10.71c-11.33-16.91-24.86-31.76-41.44-43.7-.88-.63-1.66-1.41-2.49-2.13l.32-.88c16,1.11,31.85,3.9,47.63,6.71s31.48,6.47,47.37,9.79c0-2.32-.1-4.65,0-7a2.36,2.36,0,0,0-2.14-2.8c-2.84-.62-5.67-1.28-8.51-1.89C367.34,41.3,362,40.11,356.61,39c-9.12-1.87-18.22-3.86-27.39-5.46C318,31.6,306.72,30,295.44,28.29c-6.83-1-13.69-1.78-20.54-2.68-4.2-.56-8.56-.62-12.55-1.87-6.85-2.15-13.44-5.14-20.2-7.62-10-3.7-20.51-5.63-31.06-6.89a158.42,158.42,0,0,0-38.62-.08,240.38,240.38,0,0,0-25.22,4.76c-5.45,1.28-10.65,3.63-16,5.27-5.89,1.79-11.12,5.12-17.68,5.51-11.69.68-23.31,2.47-34.94,3.87-6.11.74-12.22,1.54-18.3,2.49q-11.22,1.74-22.38,3.77c-6.3,1.14-12.59,2.39-18.85,3.7S6.57,41.31.33,42.71ZM12.85.84A15.38,15.38,0,0,0,14.74,3c4.07,3,8.36,2,12.57.43,1.73-.64,3.15-1.18,4.77.37a7.42,7.42,0,0,0,3.68,1.88c5.1.87,8.78-2.36,12.74-4.87ZM364.79.37C366.15,4,367.91,6,371,6.17a57.26,57.26,0,0,0,8.88-.24c3.77-.44,4.13-1.25,3-5.22-2,.25-4.09.56-6.16.73a25.39,25.39,0,0,1-4.36,0C370,1.2,367.68.79,364.79.37ZM134.84.73c-2.69,0-5.25.06-7.8,0-1.53,0-2.09.64-2.09,2.06,0,2.16-.16,4.34.07,6.47a3.31,3.31,0,0,0,1.66,2.39,3.43,3.43,0,0,0,2.83-.74C132.49,8.28,134,4.82,134.84.73ZM340,.83c2.76,5.64,12.95,5.49,20.49,0ZM383.3,149.76c0-2.43,0-4.15,0-5.88a1.62,1.62,0,0,0-.44-1.09c-.88-.74-6.55.56-6.82,1.68-.18.77.11,2.21.65,2.5A66,66,0,0,0,383.3,149.76Z" transform="translate(-0.33 -0.2)"/><path d="M.33,42.71c6.24-1.4,12.47-2.87,18.73-4.19S31.61,36,37.91,34.82q11.18-2,22.38-3.77c6.08-.95,12.19-1.75,18.3-2.49,11.63-1.4,23.25-3.19,34.94-3.87,6.56-.39,11.79-3.72,17.68-5.51,5.39-1.64,10.59-4,16-5.27a240.38,240.38,0,0,1,25.22-4.76,158.42,158.42,0,0,1,38.62.08c10.55,1.26,21,3.19,31.06,6.89,6.76,2.48,13.35,5.47,20.2,7.62,4,1.25,8.35,1.31,12.55,1.87,6.85.9,13.71,1.67,20.54,2.68C306.72,30,318,31.6,329.22,33.55c9.17,1.6,18.27,3.59,27.39,5.46,5.38,1.1,10.73,2.29,16.09,3.46,2.84.61,5.67,1.27,8.51,1.89a2.36,2.36,0,0,1,2.14,2.8c-.13,2.31,0,4.64,0,7-15.89-3.32-31.55-7-47.37-9.79s-31.61-5.6-47.63-6.71l-.32.88c.83.72,1.61,1.5,2.49,2.13,16.58,11.94,30.11,26.79,41.44,43.7A91.23,91.23,0,0,1,338.22,95c1.1,2.24,2.58,2.69,4.76,2.68,12.33,0,24.66,0,37,0h3.32c0,3.47.09,6.69-.11,9.89,0,.46-1.41,1.16-2.18,1.18-4.42.12-8.83.06-13.25.06-6.25,0-12.5,0-18.75,0-3.18,0-3.49.75-2.49,3.8,3,9,6.39,17.88,8.48,27.07a162.61,162.61,0,0,1,3.53,26.67c.72,12.72.62,25.53-1.94,38.08-1.8,8.84-4.5,17.5-6.87,26.22a72.39,72.39,0,0,1-2.43,7c-.68,1.75.08,2.36,1.64,2.4,2.17.06,4.34,0,6.5,0,8.42,0,16.83.06,25.25,0,2.05,0,2.89.58,2.67,2.68-.14,1.4,0,2.83,0,4.25,0,3.7,0,3.71-3.84,3.71-11,0-22,.17-33-.1-3.81-.1-5.92,1.17-7.59,4.5a152.21,152.21,0,0,1-20.4,30,165.21,165.21,0,0,1-32.56,29.18,5.14,5.14,0,0,0-.75.65c-.38.41-.73.86-1.47,1.73a718.57,718.57,0,0,0,99.55-17.21c0,3.52.06,6.81-.07,10.1,0,.46-.88,1.15-1.46,1.28-7.62,1.71-15.25,3.41-22.91,5-9.53,1.93-19.05,3.93-28.63,5.54-8.77,1.48-17.6,2.65-26.44,3.65-14.46,1.64-29,2.91-43.41,4.63-3.29.39-6.45,2-9.66,3-5.59,1.84-11.07,4.15-16.78,5.47-8.4,1.93-16.91,3.8-25.48,4.53a179.08,179.08,0,0,1-40.86-.76,169.22,169.22,0,0,1-39.39-10.54,24.84,24.84,0,0,0-6.67-1.82c-12.08-1.24-24.19-2.14-36.26-3.49-9-1-18-2.43-26.92-3.86-10.35-1.65-20.69-3.34-31-5.34-8.07-1.56-16-3.63-24.07-5.43a20.74,20.74,0,0,0-2.95-.27v-11c1.79.31,3.61.54,5.39.93,5.51,1.22,11,2.6,16.51,3.75q9.52,2,19.1,3.65c8.18,1.43,16.38,2.77,24.58,4.07,5.09.8,10.2,1.5,15.31,2.15,5.65.72,11.31,1.34,17.4,2.05-.78-.95-1.2-1.55-1.71-2.05a10.39,10.39,0,0,0-1.42-1,168.87,168.87,0,0,1-30.75-27.49A163.83,163.83,0,0,1,43,254.74c-1.64-3.1-3.42-4.08-6.74-4-12,.15-24,0-36,0v-10.5q16,0,32-.05c3,0,3.44-.61,2.48-3.45-.82-2.42-2.05-4.73-2.72-7.18-1.84-6.71-3.92-13.4-5.11-20.23a224.07,224.07,0,0,1-3.35-27.16A157.84,157.84,0,0,1,24.48,157a187.27,187.27,0,0,1,4.59-24.47,170.86,170.86,0,0,1,6.43-19.32c1.44-3.82,1.35-4.34-2.7-4.36L.33,108.71v-11c13.15,0,26.31,0,39.46,0,2.2,0,3.54-.69,4.41-2.81a43.2,43.2,0,0,1,3.38-6.09A170.7,170.7,0,0,1,92.37,40.25c.69-.5,1.3-1.12,2.06-1.78-4.7-2.24-64.89,7.65-94.1,15.24ZM348,176.06c.58-86.85-70.46-156-153.68-157.21C103.65,17.47,35.48,90.05,34.18,172.77c-1.43,90.53,71.3,158.12,152.93,160C277.53,335,348.88,260.76,348,176.06Z" transform="translate(-0.33 -0.2)"/><path class="cls-3" d="M.33,250.71c12,0,24,.14,36,0,3.32,0,5.1.94,6.74,4a163.83,163.83,0,0,0,21.7,31.52,168.87,168.87,0,0,0,30.75,27.49,10.39,10.39,0,0,1,1.42,1c.51.5.93,1.1,1.71,2.05-6.09-.71-11.75-1.33-17.4-2.05-5.11-.65-10.22-1.35-15.31-2.15-8.2-1.3-16.4-2.64-24.58-4.07q-9.57-1.68-19.1-3.65c-5.53-1.15-11-2.53-16.51-3.75-1.78-.39-3.6-.62-5.39-.93Z" transform="translate(-0.33 -0.2)"/><path class="cls-3" d="M.33,53.71c29.21-7.59,89.4-17.48,94.1-15.24-.76.66-1.37,1.28-2.06,1.78A170.7,170.7,0,0,0,47.58,88.82a43.2,43.2,0,0,0-3.38,6.09C43.33,97,42,97.73,39.79,97.72c-13.15,0-26.31,0-39.46,0Z" transform="translate(-0.33 -0.2)"/><path class="cls-3" d="M.33,108.71l32.47.12c4.05,0,4.14.54,2.7,4.36a170.86,170.86,0,0,0-6.43,19.32A187.27,187.27,0,0,0,24.48,157a157.84,157.84,0,0,0-.88,25.16A224.07,224.07,0,0,0,27,209.3c1.19,6.83,3.27,13.52,5.11,20.23.67,2.45,1.9,4.76,2.72,7.18,1,2.84.49,3.44-2.48,3.45q-16,0-32,.05v-28.5a30.78,30.78,0,0,0,9-8.41c3.75-5.47,4.22-15.11.2-20.36C6.7,179.2,3.42,175.77.33,172.21v-14.5c.74,2.26,1.67,4.92,4.46,4.41s2.84-3.31,2.87-5.71q0-.37,0-.75c-.17-4.15-.12-8.33-.64-12.44-.19-1.5-1.59-3-2.77-4.14-.37-.36-1.87.22-2.73.63-.52.24-.8,1-1.19,1.5Z" transform="translate(-0.33 -0.2)"/><path d="M.33,172.21c3.09,3.56,6.37,7,9.23,10.73,4,5.25,3.55,14.89-.2,20.36a30.78,30.78,0,0,1-9,8.41v-13a17.24,17.24,0,0,0,2.57-3.36c1.56-3.65-.48-6.44-2.57-9.14Z" transform="translate(-0.33 -0.2)"/><path d="M.33,141.21c.39-.52.67-1.26,1.19-1.5.86-.41,2.36-1,2.73-.63,1.18,1.16,2.58,2.64,2.77,4.14.52,4.11.47,8.29.64,12.44q0,.38,0,.75c0,2.4-.16,5.21-2.87,5.71S1.07,160,.33,157.71Z" transform="translate(-0.33 -0.2)"/><path d="M298.33,353.71c3.6-3.71,7.89-5.42,13.09-4.61,2.78.43,4.12,2.47,5.41,4.61Z" transform="translate(-0.33 -0.2)"/><path d="M.33.71H11.79c-3.61,3.89-7,7.16-11.46,9Z" transform="translate(-0.33 -0.2)"/><path class="cls-3" d="M.33,186.21c2.09,2.7,4.13,5.49,2.57,9.14a17.24,17.24,0,0,1-2.57,3.36Z" transform="translate(-0.33 -0.2)"/><path d="M370.33,353.71c1.52-1.53,7.08-2.69,8.75-1.69.43.26.51,1.11.75,1.69Z" transform="translate(-0.33 -0.2)"/><path d="M15.33,353.71l.79-2.54,3.71,2.54Z" transform="translate(-0.33 -0.2)"/><path d="M12.85.84H48.5c-4,2.51-7.64,5.74-12.74,4.87a7.42,7.42,0,0,1-3.68-1.88c-1.62-1.55-3-1-4.77-.37C23.1,5,18.81,6,14.74,3A15.38,15.38,0,0,1,12.85.84Z" transform="translate(-0.33 -0.2)"/><path d="M364.79.37c2.89.42,5.21.83,7.55,1.07a25.39,25.39,0,0,0,4.36,0c2.07-.17,4.12-.48,6.16-.73,1.16,4,.8,4.78-3,5.22a57.26,57.26,0,0,1-8.88.24C367.91,6,366.15,4,364.79.37Z" transform="translate(-0.33 -0.2)"/><path d="M134.84.73c-.86,4.09-2.35,7.55-5.33,10.15a3.43,3.43,0,0,1-2.83.74A3.31,3.31,0,0,1,125,9.23c-.23-2.13,0-4.31-.07-6.47,0-1.42.56-2.1,2.09-2.06C129.59.79,132.15.73,134.84.73Z" transform="translate(-0.33 -0.2)"/><path d="M340,.83h20.49C352.9,6.32,342.71,6.47,340,.83Z" transform="translate(-0.33 -0.2)"/><path d="M383.3,149.76a66,66,0,0,1-6.63-2.79c-.54-.29-.83-1.73-.65-2.5.27-1.12,5.94-2.42,6.82-1.68a1.62,1.62,0,0,1,.44,1.09C383.32,145.61,383.3,147.33,383.3,149.76Z" transform="translate(-0.33 -0.2)"/><path class="cls-3" d="M348,176.06c.88,84.7-70.47,158.9-160.89,156.76-81.63-1.93-154.36-69.52-152.93-160,1.3-82.72,69.47-155.3,160.14-153.92C277.54,20.1,348.58,89.21,348,176.06ZM156.33,102.43l-.31.68c-3.45.43-6.94.67-10.33,1.37a3.33,3.33,0,0,1-3.67-1.31Q129,87.3,116,71.38A5.24,5.24,0,0,0,114.58,70c-.33-.2-.89,0-1.35,0,0,.45-.14,1,.06,1.34a123,123,0,0,0,6.45,10.56c4.92,6.69,10.16,13.14,15.2,19.74.43.57.64,2.11.41,2.25-3,1.74-1.21,3.77-.49,5.76.3.83.46,1.72.84,3.2a11.62,11.62,0,0,1-1.67-.92c-6.24-5.7-12.5-11.38-18.69-17.13-1.94-1.81-3.67-3.84-5.56-5.7a5.36,5.36,0,0,0-1.68-.74l-.41.55a16.26,16.26,0,0,0,1.41,2.21c3.79,4.29,7.46,8.72,11.5,12.77,5,5.06,10.29,9.94,15.68,14.63a19.9,19.9,0,0,1,7.31,13.76c-6.6-3.06-11.79-8.18-17.75-12.13-6.15-4.09-12.09-8.5-18.07-12.85S96.16,98.71,90.36,94.4l-.74.63a13.33,13.33,0,0,0,1.76,2.56c4.89,4.46,9.64,9.12,14.84,13.2,8.82,6.93,17.93,13.47,26.93,20.18,1.68,1.26,3.37,2.51,5.57,4.14a14.11,14.11,0,0,1-2.82.45c-3.2-.31-6.37.69-9.63-1.2-4.18-2.41-9-3.67-13.36-5.84-6.08-3-11.94-6.49-18-9.63-7.35-3.84-14.77-7.56-22.86-9.68-1.06-.28-2.08-.69-3.11-1l-.5.58a7.22,7.22,0,0,0,1.24,2.12,30.89,30.89,0,0,0,4.62,3.35c12.76,7.25,25.58,14.42,38.33,21.69.72.42,1.61,1.64,1.46,2.27a39.1,39.1,0,0,1-2.09,5.49c-7.45-2.37-14.8-4.66-22.11-7.07s-14.41-5.27-21.86-7.1l-.66,1.11c.39.15.79.28,1.16.45,3.22,1.5,6.38,3.15,9.67,4.49,5,2,10.06,3.84,15.11,5.72l17.72,6.61c2.13.8,2.81,2.33,2.26,4.81-9.34-1.08-18.35-3.61-27.53-4.9l-.3,1.29c4.84,1.54,9.64,3.23,14.54,4.57,3.67,1,7.48,1.54,11.21,2.34.73.15,1.75.32,2,.83a9.75,9.75,0,0,1,1,3.5A4.93,4.93,0,0,1,112,161c-1.74-.06-3.47-.41-5.2-.58q-9.8-1-19.58-1.91c-4.71-.46-9.41-1-14.13-1.33-2.23-.17-4.49,0-6.74,0a3.82,3.82,0,0,0,2.28,1.12c4.58.75,9.16,1.54,13.76,2.18,7.22,1,14.46,1.91,21.69,2.86,3,.39,5.9.76,8.84,1.24.53.09,1.41.81,1.35,1.09a2.52,2.52,0,0,1-1.15,1.67,6.1,6.1,0,0,1-2.44.34c-2.49.1-5,.06-7.49.23-5.72.39-11.42,1-17.15,1.27-7.81.38-15.63.53-23.45.82a7.1,7.1,0,0,0-2.19.43c-1.3.47-3.49,0-3.3,2.13,0,.57,2.28,1.33,3.51,1.34,10.17.09,20.34.17,30.5-.07,7-.17,13.92-.94,20.88-1.27.92,0,2.55.73,2.7,1.39.32,1.37.42,3.35-.35,4.32-2.81,3.55-2,6.48,2.47,7.77.77.22,1.91.91,2,1.48.26,2.53,2,2.79,3.9,2.93l5.29.36.24.77a9.86,9.86,0,0,1-2.4,1.76c-3.28,1.1-6.59,2.58-10.08.57-1-.55-3,.24-2.69-1.69.13-.83,1.67-1.43,2.56-2.15a3.27,3.27,0,0,0,.36-.47c-.37-2.19-2-2.05-3.6-1.75s-2.86.92-4.33,1.18c-4.44.8-6.89,3.55-8.24,7.71a6.44,6.44,0,0,1-2.42,2.83c-1.9,1.38-4.44,2-4.59,5.06,0,.5-.91,1-1.49,1.4-2.44,1.54-4.93,3-7.35,4.54-1.37.88-2.58,2-4,2.78-2.14,1.17-4,2.38-3.91,5.22a3,3,0,0,1-1.16,2.22c-3.69,2.21-5.83,5.68-7.54,9.37-.77,1.64-1.6,2.57-3.31,2.89a6.41,6.41,0,0,0-5,4.34,14.28,14.28,0,0,0,.16,11.81c1.71,3.7,4.1,5.68,8.11,5.72a20.67,20.67,0,0,1,3.39.49c3.76.66,7.49,1.55,11.27,2,3.94.42,7.94.2,11.88.61,6.25.64,12.48,1.6,18.72,2.35,4.84.58,9.7,1,14.54,1.56s9.57,1.14,14.36,1.67c4.58.52,9.18.93,13.75,1.5,3.13.38,6.21,1.1,9.33,1.4,3.8.37,7.63.48,11.44.68,8.38.43,16.76.83,25.13,1.26,2.65.13,5.32.12,7.95.46,5.24.67,10.45,1.59,15.69,2.29,1.21.16,2.52-.46,3.71-.25,11.27,2,21.77-1.08,32.18-4.79,6.33-2.25,12.7-4.41,19-6.71,7.06-2.57,14.13-5.13,21.09-8,3.37-1.35,6.3-3.34,6.51-7.67a28.44,28.44,0,0,0-1.68-12,24.21,24.21,0,0,1-1.93-7.9c-.12-4.64.46-9.29.69-13.95.52-10.21,1.06-20.42,1.47-30.64.17-4.24,0-4.35,4.28-4.23a209.74,209.74,0,0,0,29.65-1.44c1.44-.16,2.83-.38,3.19-2.39a20.77,20.77,0,0,0-9.67-1.89l-25.13,1.37a2.31,2.31,0,0,1-2.75-2.25c-.2-2.71-.3-5.43-.27-8.14,0-.59.69-1.23,1.17-1.74.61-.66,1.69-1.1,2-1.85,1.39-4,4.5-4.48,8.06-4.22a1.46,1.46,0,0,0,.73-.1c1.29-.78,2.82-1.38,3.67-2.5.29-.37-1.17-2.08-2.07-3.57a9.75,9.75,0,0,1,2-1.47c2.54-1.19,5.17-2.2,7.71-3.4.39-.19.49-1,1-2.15L324.61,141c-4.5,1.72-9,3.51-13.51,5.1a4.26,4.26,0,0,1-3.28-.13c-2.28-1.47-4.32-3.29-6.69-5.17l6.87-6.22-.57-.76a17.92,17.92,0,0,0-2.3,1.08c-2,1.32-3.89,2.89-6,4a5.8,5.8,0,0,1-3.83.39c-3.08-.82-6-1.2-8.91.51-3.09,1.82-6.12.49-9.14-.34-.72-.2-1.41-.52-2.12-.78,10-6.91,19.27-12.52,28.34-18.48,5.18-3.39,10.39-6.91,14-12.11a9.41,9.41,0,0,0,.85-2.84,9.55,9.55,0,0,0-2.68.62c-2.8,1.63-5.5,3.42-8.24,5.13q-20.3,12.6-40.61,25.16a9.7,9.7,0,0,1-2.57.76l-.32-.78c12-13.69,22.31-28.63,32.77-43.44l-1-.82c-5.94,6-10.9,13-16.34,19.44s-10.74,13.2-16.61,20.44c-.36-1.62-.63-2.43-.71-3.25-.27-2.73-.29-5.5-.76-8.19a5.9,5.9,0,0,1,1-4.67q8.08-12,16.08-24a11.83,11.83,0,0,0,.86-2l-.67-.5a16.93,16.93,0,0,0-2.4,2.22q-3.18,4.31-6.17,8.74-3.84,5.67-7.56,11.43c-.7,1.08-2.13,2.12-2.49.74-.88-3.42-3.57-6.34-1-10.73,4.66-7.9,8.23-16.44,12.18-24.76,1-2.16,1.78-4.45,2.66-6.68l-.87-.53a7.89,7.89,0,0,0-1.53,1.46c-4.58,7.6-9.19,15.19-13.64,22.86-3.08,5.32-3,5.38-9.13,4.32-.25,0-.5,0-.75-.08-2.33-.3-2.85-1.25-1.68-3.31,1.28-2.23,2.75-4.36,3.95-6.63q7.54-14.16,15-28.39a5.58,5.58,0,0,0,.19-2c-.77.1-1.81-.07-2.27.37a24.79,24.79,0,0,0-3.14,3.85c-6,8.65-12,17.29-17.91,26-1.75,2.6-3.09,5.49-4.59,8.25-.89,1.63-3,2.53-4.39,1.66-1.65-1-.59-2.28-.08-3.47,1.1-2.51,2.24-5,3.23-7.55q5.24-13.44,10.33-26.92a12.84,12.84,0,0,0,.36-3.07l-1.13-.3c-6.71,13.46-13.16,27-19.43,41-.71-1.24-1.48-2.59-1.24-3.73,1.12-5.44-.39-11.45,3.56-16.32a1.67,1.67,0,0,0-.9-2.78,27.65,27.65,0,0,1-5.13-2.57,2.78,2.78,0,0,1-.9-2.32c.44-2.36,1.23-4.66,1.78-7q1.41-6,2.65-11.94c.1-.51-.34-1.14-.53-1.72-.43.41-1.09.74-1.24,1.23-1.63,5.39-3.38,10.76-4.69,16.23-1.09,4.51-1.2,4.74-5.89,4.78-2.42,0-3.13-.88-3.11-3.24.1-7.74,0-15.49-.08-23.23a8.62,8.62,0,0,0-.58-2.17l-.68,0a15.58,15.58,0,0,0-1.44,3.59c-.37,2.78-.47,5.61-.61,8.42-.24,4.87-.42,9.75-.65,14.63a2.45,2.45,0,0,1-.37,1.39c-1.08,1.32-8.32.22-9.07-1.35a2.62,2.62,0,0,1-.19-1c-.52-6.84-.91-13.7-1.6-20.52-.47-4.75-1.35-9.46-2-14.19l-1.07-.25c-.5.95-1.33,1.86-1.43,2.85-.59,5.79-1.24,11.59-1.38,17.39-.09,3.45.82,6.92,1.07,10.4A28.66,28.66,0,0,1,190,69.1l-3.84-.58a4.23,4.23,0,0,0-.5,0c-1.7-.08-2.42-1.06-2.77-2.66-.51-2.35-1.18-4.67-1.85-7-.6-2.08-1.29-4.13-1.94-6.19l-.87.14c.24,1.79.43,3.58.73,5.36.55,3.18,2.2,6.6,1.5,9.47-.81,3.35-3.63,6.22-5.93,9.85-2.53-6-4.69-11.16-6.95-16.3a15.82,15.82,0,0,0-2.21-2.78c-.27,1.16-.47,1.51-.39,1.78,1.62,5.66,3.33,11.29,4.89,17,.83,3,1.89,6.06,2,9.11.08,4.1-.68,8.22-1.09,12.34-.08.75-.24,1.5-.37,2.25l-.93.23c-3.49-4.83-4.65-10.81-7.11-16.14-2.56-5.57-4.71-11.32-7.21-16.92s-5.11-10.89-7.68-16.34l-1,.24a12.93,12.93,0,0,0,.27,2.94c.75,2.28,1.7,4.49,2.54,6.74,2.34,6.3,4.59,12.63,7,18.91,2.5,6.5,5.14,13,7.74,19.42.49,1.23.07,1.78-1.18,2.14-2.35.68-2.67-1.13-3.53-2.52-6.49-10.43-13-20.86-19.62-31.19a114.2,114.2,0,0,0-7.24-9.52c-.5-.61-1.49-.82-2.25-1.21a24.59,24.59,0,0,0-.64,2.49,2.1,2.1,0,0,0,.26,1.21c2.28,4.79,4.4,9.67,6.94,14.31,3.63,6.61,7.34,13.2,11.49,19.49C150.24,98.08,150.66,103.07,156.33,102.43ZM325,161.05c-1.49-2-16.45.74-19,3.37C312.79,164.47,318.73,162.74,325,161.05Z" transform="translate(-0.33 -0.2)"/><path d="M156.33,102.43c-5.67.64-6.09-4.35-8.05-7.32-4.15-6.29-7.86-12.88-11.49-19.49-2.54-4.64-4.66-9.52-6.94-14.31a2.1,2.1,0,0,1-.26-1.21,24.59,24.59,0,0,1,.64-2.49c.76.39,1.75.6,2.25,1.21a114.2,114.2,0,0,1,7.24,9.52c6.65,10.33,13.13,20.76,19.62,31.19.86,1.39,1.18,3.2,3.53,2.52,1.25-.36,1.67-.91,1.18-2.14-2.6-6.47-5.24-12.92-7.74-19.42-2.42-6.28-4.67-12.61-7-18.91-.84-2.25-1.79-4.46-2.54-6.74a12.93,12.93,0,0,1-.27-2.94l1-.24c2.57,5.45,5.23,10.85,7.68,16.34s4.65,11.35,7.21,16.92c2.46,5.33,3.62,11.31,7.11,16.14l.93-.23c.13-.75.29-1.5.37-2.25.41-4.12,1.17-8.24,1.09-12.34-.07-3-1.13-6.11-2-9.11-1.56-5.68-3.27-11.31-4.89-17-.08-.27.12-.62.39-1.78a15.82,15.82,0,0,1,2.21,2.78c2.26,5.14,4.42,10.33,6.95,16.3,2.3-3.63,5.12-6.5,5.93-9.85.7-2.87-.95-6.29-1.5-9.47-.3-1.78-.49-3.57-.73-5.36l.87-.14c.65,2.06,1.34,4.11,1.94,6.19.67,2.31,1.34,4.63,1.85,7,.35,1.6,1.07,2.58,2.77,2.66a4.23,4.23,0,0,1,.5,0l3.84.58a28.66,28.66,0,0,0,.42-4.86c-.25-3.48-1.16-6.95-1.07-10.4.14-5.8.79-11.6,1.38-17.39.1-1,.93-1.9,1.43-2.85l1.07.25c.7,4.73,1.58,9.44,2,14.19.69,6.82,1.08,13.68,1.6,20.52a2.62,2.62,0,0,0,.19,1c.75,1.57,8,2.67,9.07,1.35a2.45,2.45,0,0,0,.37-1.39c.23-4.88.41-9.76.65-14.63.14-2.81.24-5.64.61-8.42a15.58,15.58,0,0,1,1.44-3.59l.68,0a8.62,8.62,0,0,1,.58,2.17c.08,7.74.18,15.49.08,23.23,0,2.36.69,3.26,3.11,3.24,4.69,0,4.8-.27,5.89-4.78,1.31-5.47,3.06-10.84,4.69-16.23.15-.49.81-.82,1.24-1.23.19.58.63,1.21.53,1.72Q224.82,57,223.4,63c-.55,2.34-1.34,4.64-1.78,7a2.78,2.78,0,0,0,.9,2.32,27.65,27.65,0,0,0,5.13,2.57,1.67,1.67,0,0,1,.9,2.78c-4,4.87-2.44,10.88-3.56,16.32-.24,1.14.53,2.49,1.24,3.73,6.27-13.92,12.72-27.5,19.43-41l1.13.3a12.84,12.84,0,0,1-.36,3.07Q241.34,73.57,236.1,87c-1,2.55-2.13,5-3.23,7.55-.51,1.19-1.57,2.46.08,3.47,1.42.87,3.5,0,4.39-1.66,1.5-2.76,2.84-5.65,4.59-8.25,5.88-8.74,11.91-17.38,17.91-26A24.79,24.79,0,0,1,263,58.24c.46-.44,1.5-.27,2.27-.37a5.58,5.58,0,0,1-.19,2q-7.43,14.22-15,28.39c-1.2,2.27-2.67,4.4-3.95,6.63-1.17,2.06-.65,3,1.68,3.31.25,0,.5,0,.75.08,6.15,1.06,6,1,9.13-4.32,4.45-7.67,9.06-15.26,13.64-22.86a7.89,7.89,0,0,1,1.53-1.46l.87.53c-.88,2.23-1.64,4.52-2.66,6.68-3.95,8.32-7.52,16.86-12.18,24.76-2.59,4.39.1,7.31,1,10.73.36,1.38,1.79.34,2.49-.74q3.74-5.75,7.56-11.43,3-4.42,6.17-8.74a16.93,16.93,0,0,1,2.4-2.22l.67.5a11.83,11.83,0,0,1-.86,2q-8,12-16.08,24a5.9,5.9,0,0,0-1,4.67c.47,2.69.49,5.46.76,8.19.08.82.35,1.63.71,3.25,5.87-7.24,11.14-13.92,16.61-20.44s10.4-13.4,16.34-19.44l1,.82c-10.46,14.81-20.75,29.75-32.77,43.44l.32.78a9.7,9.7,0,0,0,2.57-.76q20.32-12.54,40.61-25.16c2.74-1.71,5.44-3.5,8.24-5.13a9.55,9.55,0,0,1,2.68-.62,9.41,9.41,0,0,1-.85,2.84c-3.65,5.2-8.86,8.72-14,12.11-9.07,6-18.38,11.57-28.34,18.48.71.26,1.4.58,2.12.78,3,.83,6.05,2.16,9.14.34,2.91-1.71,5.83-1.33,8.91-.51a5.8,5.8,0,0,0,3.83-.39c2.12-1.11,4-2.68,6-4a17.92,17.92,0,0,1,2.3-1.08l.57.76-6.87,6.22c2.37,1.88,4.41,3.7,6.69,5.17a4.26,4.26,0,0,0,3.28.13c4.54-1.59,9-3.38,13.51-5.1l4.69-1.75c-.54,1.16-.64,2-1,2.15-2.54,1.2-5.17,2.21-7.71,3.4a9.75,9.75,0,0,0-2,1.47c.9,1.49,2.36,3.2,2.07,3.57-.85,1.12-2.38,1.72-3.67,2.5a1.46,1.46,0,0,1-.73.1c-3.56-.26-6.67.2-8.06,4.22-.26.75-1.34,1.19-2,1.85-.48.51-1.17,1.15-1.17,1.74,0,2.71.07,5.43.27,8.14a2.31,2.31,0,0,0,2.75,2.25l25.13-1.37a20.77,20.77,0,0,1,9.67,1.89c-.36,2-1.75,2.23-3.19,2.39A209.74,209.74,0,0,1,310,175c-4.25-.12-4.11,0-4.28,4.23-.41,10.22-.95,20.43-1.47,30.64-.23,4.66-.81,9.31-.69,13.95a24.21,24.21,0,0,0,1.93,7.9,28.44,28.44,0,0,1,1.68,12c-.21,4.33-3.14,6.32-6.51,7.67-7,2.82-14,5.38-21.09,8-6.31,2.3-12.68,4.46-19,6.71-10.41,3.71-20.91,6.77-32.18,4.79-1.19-.21-2.5.41-3.71.25-5.24-.7-10.45-1.62-15.69-2.29-2.63-.34-5.3-.33-7.95-.46-8.37-.43-16.75-.83-25.13-1.26-3.81-.2-7.64-.31-11.44-.68-3.12-.3-6.2-1-9.33-1.4-4.57-.57-9.17-1-13.75-1.5-4.79-.53-9.57-1.13-14.36-1.67s-9.7-1-14.54-1.56c-6.24-.75-12.47-1.71-18.72-2.35-3.94-.41-7.94-.19-11.88-.61-3.78-.41-7.51-1.3-11.27-2a20.67,20.67,0,0,0-3.39-.49c-4,0-6.4-2-8.11-5.72A14.28,14.28,0,0,1,59,237.34,6.41,6.41,0,0,1,64,233c1.71-.32,2.54-1.25,3.31-2.89,1.71-3.69,3.85-7.16,7.54-9.37A3,3,0,0,0,76,218.52c0-2.84,1.77-4.05,3.91-5.22,1.41-.77,2.62-1.9,4-2.78,2.42-1.55,4.91-3,7.35-4.54.58-.37,1.46-.9,1.49-1.4.15-3,2.69-3.68,4.59-5.06a6.44,6.44,0,0,0,2.42-2.83c1.35-4.16,3.8-6.91,8.24-7.71,1.47-.26,2.86-.9,4.33-1.18s3.23-.44,3.6,1.75a3.27,3.27,0,0,1-.36.47c-.89.72-2.43,1.32-2.56,2.15-.32,1.93,1.73,1.14,2.69,1.69,3.49,2,6.8.53,10.08-.57a9.86,9.86,0,0,0,2.4-1.76l-.24-.77-5.29-.36c-1.92-.14-3.64-.4-3.9-2.93-.06-.57-1.2-1.26-2-1.48-4.45-1.29-5.28-4.22-2.47-7.77.77-1,.67-2.95.35-4.32-.15-.66-1.78-1.43-2.7-1.39-7,.33-13.92,1.1-20.88,1.27-10.16.24-20.33.16-30.5.07-1.23,0-3.46-.77-3.51-1.34-.19-2.12,2-1.66,3.3-2.13a7.1,7.1,0,0,1,2.19-.43c7.82-.29,15.64-.44,23.45-.82,5.73-.28,11.43-.88,17.15-1.27,2.49-.17,5-.13,7.49-.23a6.1,6.1,0,0,0,2.44-.34,2.52,2.52,0,0,0,1.15-1.67c.06-.28-.82-1-1.35-1.09-2.94-.48-5.89-.85-8.84-1.24-7.23-.95-14.47-1.85-21.69-2.86-4.6-.64-9.18-1.43-13.76-2.18a3.82,3.82,0,0,1-2.28-1.12c2.25,0,4.51-.14,6.74,0,4.72.36,9.42.87,14.13,1.33q9.8.94,19.58,1.91c1.73.17,3.46.52,5.2.58a4.93,4.93,0,0,0,2.32-.66,9.75,9.75,0,0,0-1-3.5c-.28-.51-1.3-.68-2-.83-3.73-.8-7.54-1.33-11.21-2.34-4.9-1.34-9.7-3-14.54-4.57l.3-1.29c9.18,1.29,18.19,3.82,27.53,4.9.55-2.48-.13-4-2.26-4.81l-17.72-6.61c-5-1.88-10.12-3.7-15.11-5.72-3.29-1.34-6.45-3-9.67-4.49-.37-.17-.77-.3-1.16-.45l.66-1.11c7.45,1.83,14.58,4.7,21.86,7.1s14.66,4.7,22.11,7.07a39.1,39.1,0,0,0,2.09-5.49c.15-.63-.74-1.85-1.46-2.27-12.75-7.27-25.57-14.44-38.33-21.69a30.89,30.89,0,0,1-4.62-3.35,7.22,7.22,0,0,1-1.24-2.12l.5-.58c1,.35,2,.76,3.11,1,8.09,2.12,15.51,5.84,22.86,9.68,6,3.14,11.88,6.61,18,9.63,4.35,2.17,9.18,3.43,13.36,5.84,3.26,1.89,6.43.89,9.63,1.2a14.11,14.11,0,0,0,2.82-.45c-2.2-1.63-3.89-2.88-5.57-4.14-9-6.71-18.11-13.25-26.93-20.18-5.2-4.08-10-8.74-14.84-13.2A13.33,13.33,0,0,1,89.62,95l.74-.63c5.8,4.31,11.57,8.66,17.41,12.9s11.92,8.76,18.07,12.85c6,3.95,11.15,9.07,17.75,12.13a19.9,19.9,0,0,0-7.31-13.76c-5.39-4.69-10.64-9.57-15.68-14.63-4-4-7.71-8.48-11.5-12.77a16.26,16.26,0,0,1-1.41-2.21l.41-.55a5.36,5.36,0,0,1,1.68.74c1.89,1.86,3.62,3.89,5.56,5.7,6.19,5.75,12.45,11.43,18.69,17.13a11.62,11.62,0,0,0,1.67.92c-.38-1.48-.54-2.37-.84-3.2-.72-2-2.56-4,.49-5.76.23-.14,0-1.68-.41-2.25-5-6.6-10.28-13-15.2-19.74a123,123,0,0,1-6.45-10.56c-.2-.34-.05-.89-.06-1.34.46,0,1-.17,1.35,0A5.24,5.24,0,0,1,116,71.38Q129,87.27,142,103.17a3.33,3.33,0,0,0,3.67,1.31c3.39-.7,6.88-.94,10.33-1.37ZM128.81,204.17c2.31.42,2.84,1.23,1.33,2.76s-3.65,2.32-5.4,3.59c-.61.43-.89,1.33-1.31,2a10.19,10.19,0,0,0,1.94.94,2.05,2.05,0,0,0,1.45-.25c3.52-2.16,7-.5,10.41.2,2.67.54,3.39,3.16,1.43,5a14,14,0,0,1-4.07,2.7c-1.86.8-4.13,1.19-3.74,3.85s2.82,2.3,4.6,2.35c5.17.14,10.33.08,15.5,0a13.23,13.23,0,0,0,2.57-.54,18.21,18.21,0,0,1-.82-2.83c-.2-1.67-1.07-2.2-2.68-2.25-5.17-.17-5.45-.52-5.23-5.69s0-5.28-5.1-5.84a9.25,9.25,0,0,1-4.75-2.63c-1.29-1.2-.78-2.45,1-3.25a32.21,32.21,0,0,0,5.12-3,2.52,2.52,0,0,0,.71-2.11c-.07-.44-1-.87-1.69-1-1.21-.27-2.66,0-3.65-.57-1.36-.77-3.25-2.07-3.33-3.24s1.67-2.91,3-3.47c4.25-1.76,8.75-2.95,13.39-1.8a13,13,0,0,1,4.7,2.53,2.81,2.81,0,0,1,.23,2.68c-1.36,2.53-4,3-6.55,3.5-1.23.23-2.46.48-3.69.72l-.2,1a20.64,20.64,0,0,0,2.93,1.56c1.87.66,3.89.94,5.68,1.74,1,.45,2.49,1.8,2.35,2.42-.27,1.22-1.45,2.3-2.44,3.24-.49.46-1.44.38-2.11.69-2.77,1.3-3.19,2.61-1.74,5.22,3.94-1.63,7.83-2.12,11.68.3,1.86,1.18,2.13,3.32.45,4.73-.69.58-1.67.81-2.34,1.4a8.42,8.42,0,0,0-2.07,2.47,15.24,15.24,0,0,0-.77,3.48c2.91.53,5.81,1.44,8.73,1.51,7.91.22,15.83.08,23.74.08a6.89,6.89,0,0,0,2.23-.06c.84-.3,2.06-.83,2.2-1.46s-.72-1.62-1.25-2.36c-.21-.3-.75-.35-1.1-.56-3-1.79-3.36-3.47-1.42-6.41.84-1.26.36-4-1.12-4.6-3-1.25-5.56-2.89-6.36-5.95l-8.53,6.1c1,.27,1.76.39,2.46.66,2,.77,4.11,1.3,5.82,2.45,2.34,1.57,2.45,4.17.19,5.84-2.69,2-5.23,5.42-9.37,2.46-.52-.37-1.46-.17-2.2-.2-3.28-.13-4.33-1.4-3.62-4.65a12.48,12.48,0,0,1,1.36-3.35,2.77,2.77,0,0,0-1.47-4,19.71,19.71,0,0,0-2.46-.39c-3.36-.59-5-3.3-3.71-6.4.46-1.06,1.63-1.8,2.43-2.72.46-.52,1.28-1.27,1.15-1.62-.24-.61-1-1-1.67-1.47a6.79,6.79,0,0,0-1.18-.37c-2.12-.91-2.49-2.72-.8-4.28,3.87-3.56,8.33-4.72,13.37-2.94,2.68.94,3.27,3.37,1.51,5.57-.65.81-1.21,1.68-1.88,2.63a6.53,6.53,0,0,0,1.2.62c2.92.59,5.68,1.37,7,4.51A1.38,1.38,0,0,0,182,206c2.27-1.22,4.49-2.54,7.35-4.19-1.49-.63-2.37-1-3.21-1.37a41.84,41.84,0,0,1-4.76-2.44c-1.06-.69-1.33-1.67-.35-2.94,1.56-2,.62-4.06-.88-5.57-.88-.88-2.34-1.2-3.58-1.68a5.13,5.13,0,0,1-3.52-4.94c-.08-2.52,1.56-3.79,3.65-4.46a21.35,21.35,0,0,1,13,.18c3.94,1.25,4.55,4.57,1.25,7-1.94,1.44-4.49,2-6.66,3.17-.7.38-1.08,1.37-1.61,2.07a6.4,6.4,0,0,0,2.07,1c1.14.12,2.36-.35,3.48-.16a74.79,74.79,0,0,1,8.64,1.91,2.87,2.87,0,0,1,1.59,2.22,3.41,3.41,0,0,1-1.66,2.2,33.25,33.25,0,0,1-3.66,1.56,21.8,21.8,0,0,0-2.3,1.41c.71.69,1.31,1.64,2.16,2,2.11.94,4.46,1.37,6.47,2.46,2.39,1.3,2.5,2.73.32,4.41-1.66,1.27-3.77,2-5.63,3a12.35,12.35,0,0,0-1.86,1.63c.83.24,1.64.52,2.48.7a43.81,43.81,0,0,1,6.22,1.37c1.25.48,2.87,1.71,3,2.8s-1.14,2.62-2.21,3.41-2.94,1-4.28,1.73a11,11,0,0,0-2.24,2.32,17.63,17.63,0,0,0,2.39,1.62c1.92.9,3.9,1.68,5.87,2.46.64.25,1.47.68,2,.47,3-1.18,6-2.52,9.32-4-.64-.49-1.39-1.14-2.22-1.67s-1.94-1-2.81-1.57a2.77,2.77,0,0,1,0-4.59,10,10,0,0,1,1.7-1.06c1.29-.6,2.61-1.41,1.87-2.94-.36-.75-1.78-1.08-2.78-1.4-1.18-.38-2.59-.28-3.6-.89a5.89,5.89,0,0,1-2.65-2.92c-.19-.64,1.18-1.87,2-2.66s1.84-1.13,2.64-1.83c3.69-3.27,10.07-2,13.1,1.85a2.89,2.89,0,0,1-.17,2.85,30.73,30.73,0,0,1-4.53,2.86c-1,.6-1.88,1.27-3.33,2.25,1.38.63,2,.9,2.68,1.23,2.55,1.33,5.15,2.57,7.61,4,1.35.81,1,2.07-.13,2.83-1.5,1-3.18,1.7-4.74,2.59a12.88,12.88,0,0,0-1.62,1.31c2.83,1.22,5.41,2.13,7.79,3.41s2.31,3.34.11,4.65a23.46,23.46,0,0,1-6,2.33c-1.76.46-3.39.66-3.73,2.94-.08.53-1,1.08-1.62,1.31-.29.11-1.15-.46-1.24-.84-.57-2.55-2.62-2.93-4.67-3.46-1.33-.35-2.58-1-3.89-1.4a3.87,3.87,0,0,0-1.85-.12,53.61,53.61,0,0,1-5.38,1.24c-2.44.24-5.21-.59-6,3.11-.85-.59-1.53-.8-1.72-1.24-.73-1.7-2.06-1.82-3.67-1.85-10.56-.2-21.12-.3-31.67-.78-7.54-.35-15-1.34-22.58-1.86-2.14-.15-4.66-1.51-6.38,1.2-.16.26-1.14.26-1.58,0-2.11-1-4.14-2.25-6.25-3.31-2.48-1.25-2.83-3.16-.94-5.18s4.51-2.67,7.29-2.51c1.1.06,2.22,0,3.42,0-.66-3-5.34-6.61-7.7-6.29-.36,0-.66.45-1,.66-2.59,1.56-5.18,3.15-7.82,4.63a2.43,2.43,0,0,1-1.64-.12,36.29,36.29,0,0,1-5.46-2,21.07,21.07,0,0,1-4.54-3.37c-.33-.32-.06-1.89.43-2.34,3-2.66,6.37-4.77,10.44-4.59,3.22.15,6.4,1.11,9.85,1.76.88-1.46.36-2.55-1.72-3a8.66,8.66,0,0,1-2-.43c-1.79-.86-3.66-1.64-3.84-4.1s.86-3.46,3.09-4c2-.5,2.26-2.42,2.09-4.06-.08-.77-1.12-1.66-1.94-2.07-2.32-1.16-5.3-1.52-4.83-5.52-1.73.8-3.19,1.09-4,2A12.74,12.74,0,0,0,104,197c-.15.38,1.68,1.61,2.7,2.3,1.56,1.07,4,2,3.23,4.11-.57,1.54-2.84,2.45-4.37,3.62a1,1,0,0,1-.48.13c-1.59.17-2.28,1-2.32,2.64,0,.72-.77,1.42-1.2,2.13-.41-.7-1.1-1.36-1.19-2.1-.25-1.9-1.39-3-3-2.4a68.88,68.88,0,0,0-7.41,3.44l.17.75a9.32,9.32,0,0,1,3,.37,11.52,11.52,0,0,1,4,2.92c.26.33-1.25,2.37-2.26,3.25s-2.24,1-3.35,1.53a11.21,11.21,0,0,0-3.38,1.89c-1.09,1.17-1.61,1.55-2.5-.12a2.14,2.14,0,0,0-1.94-.77,54.3,54.3,0,0,0-5,2.83l0,.63c2.13,0,4.26-.06,6.38,0a7.64,7.64,0,0,1,2.45.63c2.18.86,3.92,3.86,6.6,2.27,4.73-2.81,9.7-2,14.57-1.31,1.47.19,3.28,2.06,3.88,3.57.77,2-1,3.38-2.81,4s-3.6.94-5.38,1.47a4.65,4.65,0,0,0-2.12,1c-1.86,2-2.35,2.06-3.84-.19-.54-.83-.88-1.79-1.34-2.67-1.15-2.18-3.72-3.74-5.87-2.67-2.88,1.42-6.89,1.39-8.28,6.36-2.28-4.32-7.56-4.44-8.85-9.57A35.39,35.39,0,0,1,71.78,230c-1.38,1.46-2.63,3.35-4.36,4.12a9.19,9.19,0,0,0-5.68,8.09c-.58,5.43,1.36,7.57,6.67,7.57,7.22,0,14.43-.17,21.64.07,4.2.14,8.37.94,12.56,1.42q8.53,1,17.07,1.91c1.64.18,3.3.22,4.95.39,6.5.68,13,1.41,19.51,2.09,3.13.33,6.29.49,9.42.9,5.41.71,10.79,1.73,16.21,2.31,5.74.62,11.52.83,17.28,1.33,8.43.72,16.86,1.53,25.29,2.34,2,.2,4,.59,6.08.82,1.3.15,2.62.17,3.93.25a39.13,39.13,0,0,0,4.7.23,3.5,3.5,0,0,0,3.28-4.1,10.57,10.57,0,0,1,0-2.45c.77-4.55,3.57-7.68,7.13-10.38,5-3.81,11.71-4.94,15.71-10.52,2.58-3.61,6.27-6.41,9.21-9.79A66.5,66.5,0,0,0,274.23,206c2.61-7,4.47-14.23,6.59-21.38,1.14-3.82,2.14-7.67,3.21-11.52l.66.1a12.75,12.75,0,0,1,.19,2.12c-.39,5.45-.48,10.95-1.34,16.34a88.89,88.89,0,0,1-3.86,15.41c-1.72,4.89-4.25,9.51-6.54,14.2-4.19,8.56-10.09,15.51-19,19.56a4,4,0,0,0-.85.5c-3.94,3-7.91,6-11.8,9a20.72,20.72,0,0,0-6.84,8.39c-.59,1.45-2,2.63-3.26,3.73s-1.13,1.78.11,2.69a10.55,10.55,0,0,0,10.22,1.34c8.5-3,16.89-6.36,25.29-9.64,7.82-3,15.59-6.17,23.95-7.49a23.8,23.8,0,0,0,6.19-2.09c2.42-1.13,4-5.46,3.06-7.86-.22-.55-.78-1.29-1.26-1.35-2.27-.3-3.13-1.93-3.44-3.76a57.06,57.06,0,0,1-1-9.37c0-5.19.45-10.39.71-15.58,0-.5.1-1,.14-1.49.68-8.49,1.29-17,2.06-25.45.56-6.17,1.25-12.33,2-18.48.24-1.87-.15-2.47-2.13-2.59-4.78-.3-9.61-.44-14.06-2.72a9.52,9.52,0,0,0-3.81-.5c-1.32-.07-2.65.08-4,0-2.91-.12-5.83-.58-8.72-.41-4.53.26-9,1.28-13.56,1.37-10.83.2-21.67.12-32.5,0-3.56,0-7.11-.65-10.68-.83-6.1-.31-12.2-.47-18.3-.75-2.9-.13-5.8-.48-8.7-.59-3.66-.14-7.34,0-11-.22-9.61-.63-19.2-1.49-28.81-2.1-5.73-.37-11.47-.46-17.2-.61-2.83-.08-5.7,2.66-5.59,5.21.23,5.06.38,10.14.78,15.19a4,4,0,0,0,1.87,2.72,43.55,43.55,0,0,0,7.21,2.66,3.26,3.26,0,0,0,2.58-.65,10.14,10.14,0,0,1,15.37,2.14c1.19,1.93.33,3.33-.91,4.38-3.07,2.57-11.2,2.43-14.17-.12a32.72,32.72,0,0,1-2.68-2.84c-1.75,1.08-3.33,2-4.8,3-.5.36-1.09,1.24-1,1.67s1,.92,1.64,1.17c2.09.81,4.22,1.54,6.71,2.44a19.9,19.9,0,0,1-10.84,5.52c-1.36.2-2.09.72-1.82,2,.21,1,.56,2.43,1.26,2.75a51.94,51.94,0,0,0,5.86,1.7c.53.17.92.8,1.37,1.22a27.26,27.26,0,0,0-4.16-.66,58.75,58.75,0,0,0-7.62.37c-1.56.18-2.22,1.56-1.19,2.72a7.24,7.24,0,0,0,3.8,2.31,17.24,17.24,0,0,0,5.67-.27A3.76,3.76,0,0,0,128.81,204.17Zm71.41-90.78c-1.69,2.65-.34,3.88,2.16,4.56-1.91,4.39,1.28,7.3,2.71,10.77,1-3,2.52-6,2.3-8.87-.42-5.66-1.79-11.25-2.78-16.87-.29-1.65-.85-3.45,1.4-4.15,3.36-1,6.75-1.94,10.44-.77.16-1.21.31-2.38.46-3.55l.81.06c0,.91-.06,1.83,0,2.73a1.72,1.72,0,0,0,.59,1.16,1.3,1.3,0,0,0,1.09-.19,25.14,25.14,0,0,0,.72-5.74c0-.71-1.45-1.77-2.36-1.94a10.34,10.34,0,0,1-8.22-6.5c-1-2.51-2.66-3.24-5.1-3.56a39.8,39.8,0,0,1-6-1.76l.12-.76a4.1,4.1,0,0,1,1.5-.38c1.63.26,3.23.68,4.85,1,2.23.44,4.65,1.8,6.66,0,1.74-1.6,3.32-1.18,5-.36a30.88,30.88,0,0,1,3.76,2.38,2.3,2.3,0,0,0,3.6-.75,8.86,8.86,0,0,0,.92-1.48,21,21,0,0,0,.67-2.22,16.57,16.57,0,0,0-2.1-.29c-2.56-.05-5.13.08-7.68-.1-4.6-.31-9.2-.7-13.77-1.26-5-.61-10-1.46-15-2.21-.59-.09-1.17-.21-1.76-.32l-.17.44,1.11.88c-.52,2-.93,3.53-1.39,5.25-2.57.14-1-3.16-2.71-3.77-2.51,2.12-2.87,3.38-1,4.75,2.5,1.86,5.28,3.23,8.6,2.5,2.13-.47,2.47-1.31,1.13-3.09-1-1.32-2.17-2.52-3.26-3.77l.62-.68a59.9,59.9,0,0,1,4.69,4.3c1.69,1.9,1,4.71-1.45,5.11-3.59.58-7.48,1.81-10.67-1.46-.39-.4-1.15-.45-2.46-.92-1,5.93-1.9,11.53-2.68,17.15-.06.43,1,1.34,1.68,1.48,1.09.22,2.43.33,2.62-1.42.17-1.59.38-3.18.62-5.19,3,1.93.28,4.46,1.73,6.3,1-.18,2.19-.77,3.14-.5,3.81,1.08,6.83,3,8.64,7C195.26,109.06,196.2,112.6,200.22,113.39Zm-49.31,8.69c.87.75,1.13.87,1.22,1.07,1.57,3.65,3.11,7.32,4.7,11,.24.57.72,1.52,1,1.51,3.18-.17,6.69.28,9.45-.94,6.36-2.81,12.72-3.61,19.05-1.11,4.06,1.6,8,1.8,12.18,1.73,1.41,0,2.42-.53,1.86-2.11-2.12-5.92-4.32-11.82-6.5-17.72-.52-1.4-1.54-1.41-2.61-.71-3.47,2.27-7.38,2.12-11.1,1.4A6.32,6.32,0,0,1,176,112.6c-.35-1.26,1.1-3.62,2.41-4.64,2.88-2.23,6.2-3.86,10-1.75,1-2.53.68-3.26-1.65-3-3.28.43-6.5,1.38-9.79,1.76-4.48.53-8.73,2.2-13.39,2-3.44-.14-6.92.69-10.39,1.09l-3.67.47c2.88,1.94,5.89,2.66,7.38,5.44l-3,.6.07.75,1.53.24,2,.32c-.31.89-.36,2.16-1,2.58a7.12,7.12,0,0,1-3.51,1c-2.7.14-5.41,0-8.28,0a8.92,8.92,0,0,0,.37,1.85c1.11,2.69,2.33,5.32,3.39,8,.57,1.46.75,3.09,1.42,4.5.35.73,1.38,1.14,2.09,1.69a6,6,0,0,0,.69-2.27c-.26-2-.84-3.9-1.17-5.87C151.2,125.92,151.13,124.33,150.91,122.08Zm64.39-4.17,1-.17a6.7,6.7,0,0,1,.78,1.88c.32,4,.52,8,.84,11.93a12.64,12.64,0,0,0,.71,2.5,8.75,8.75,0,0,0,2.63-.87,16.2,16.2,0,0,1,18.23-1.26c3.42,2,6.67,4.24,11,4,1.86-.12,2.75-.56,2.68-2.58-.06-1.78.19-3.57.3-5.36l.69,0c.3,2.06.6,4.13,1,6.64.49-.67.66-.8.67-.93.11-5.56.27-11.13.18-16.69,0-.51-1.62-1.36-2.53-1.42-2.4-.15-4.93.53-7.19,0a9.83,9.83,0,0,1-5.35-3.51c-1.18-1.73-.32-4,1.44-5.57.36-.33.72-1.29.56-1.46a2.75,2.75,0,0,0-1.66-.73c-3.29-.28-6.58-.49-9.87-.71-.42,0-1-.2-1.22,0-.84.78-1.56,1.68-2.33,2.54a8.07,8.07,0,0,0,2.35,1.17,15.09,15.09,0,0,0,2.93-.38,23.75,23.75,0,0,1,2.42.1c-1.63,2.9-5.11,3.9-7.08,2s-2.44-1.2-3.29.76c-2.08,4.75-3.09,5.34-8.41,5.14-1.24,0-2.46-.38-3.7-.52-1.47-.17-2.18.39-1.91,2,.94,5.62,3,11.08,2.61,16.9,0,.09.22.2.67.59C214.72,128.38,215,123.14,215.3,117.91ZM148,147.55a56.73,56.73,0,0,0-1.35-6,2.69,2.69,0,0,0-2-1.37c-5.75-.62-11.55-.86-17.27-1.7-3.3-.49-5.91.2-7.49,3a7,7,0,0,0-.71,5.26c.66,1.71,2.5,3.9,4.08,4.14,6.38,1,12.86,1.4,19.31,1.72C147.66,152.85,147.67,152.65,148,147.55Zm69.4-5.17c-.81.75-1.36,1.71-2.12,1.92-3.73,1-2.95,4.39-3.74,6.92-.09.31.62,1.19,1.07,1.29a36.51,36.51,0,0,0,6.6,1.09c10.06.27,20.11.42,30.17.52a13.65,13.65,0,0,0,3.39-.87c-.63-1-1.26-2-1.88-3-.09-.13-.11-.3-.08-.2a22.21,22.21,0,0,0,.77-4.11c0-.9-.42-2.37-1-2.59A2.66,2.66,0,0,0,247,144.9a9.63,9.63,0,0,1-2.65,2.83c-4,3.1-8.71,3.11-13.51,3.16C224.53,151,220.06,148.44,217.35,142.38ZM279.82,145c-.5-.05-1.45-.18-2.4-.23-5.31-.26-10.62-.57-15.93-.67a3.22,3.22,0,0,0-2.43,1.48,50.22,50.22,0,0,0-2.6,6.7c-.26.79-.41,2.09,0,2.49A3.18,3.18,0,0,0,259,155a26,26,0,0,1,13.51,0,13.49,13.49,0,0,0,4.95.13,2.65,2.65,0,0,0,1.62-1.85C279.49,150.67,279.58,148.08,279.82,145ZM166.15,233l-.07-1.1c-5,0-10,0-15.07,0a8.38,8.38,0,0,1-1.88-.1c-1.78-.42-3.53-1.31-5.3-1.32a63.18,63.18,0,0,1-17.1-2.6c-2.67-.77-5-.92-7.4.46a9.81,9.81,0,0,0-1.74,1.73c.71.56,1.37,1.53,2.14,1.63A119.63,119.63,0,0,0,132.24,233c9.86.27,19.73.28,29.6.36C163.27,233.35,164.71,233.13,166.15,233Zm136.2-80c-2.21-1.93-4.56-2.23-7.08-2.26-.79,0-1.58-.69-2.38-1.07a17.65,17.65,0,0,1,2.23-1.85,10.42,10.42,0,0,1,2.43-.69,12.35,12.35,0,0,0-8.29-2.66c-2,.07-3.59.8-4.24,2.8-.74,2.24.15,5.68,1.86,6.51,4.46,2.16,9.08,2,13.67.37A10.08,10.08,0,0,0,302.35,153ZM153.53,141.17l-.92-.06c-2.19,3.25,0,7.2-1.54,10.48,2.81,1.24,16.74,1,18.38-.23-3.45-1.74-6.28-4-7.43-7.9-.22-.74-1.48-1.17-2.26-1.74a8.3,8.3,0,0,0-1.24,2.54c-.24,2.14-.36,4.24-2.91,5.92C154.86,147,154.2,144.06,153.53,141.17Zm52.87,93.22c1.33.61,2.51,1.62,3.65,1.58,3.7-.14,7.39-.62,11.07-1.09.57-.07,1.54-1,1.47-1.22a2.91,2.91,0,0,0-1.39-1.77,32.1,32.1,0,0,0-5.27-1.44C212.9,229.86,208,231.76,206.4,234.39Zm-18.49-82.86.11.9c3.41,0,6.82,0,10.23,0a1.47,1.47,0,0,0,1.08-.87,37.29,37.29,0,0,0,1.47-6.76c.07-.92-1.16-1.93-1.79-2.9-.79.6-1.88,1-2.32,1.83-1.44,2.59-3,4.92-5.86,6.19C189.82,150.33,188.88,151,187.91,151.53Zm24-69.72c-.27,3.35,2.32,4.65,4.6,5.85,1.07.57,2.74,0,4.14-.06-.16-1.49.2-3.4-.59-4.36a15.13,15.13,0,0,0-5-3.5C212.77,78.58,212,79.22,211.94,81.81Zm16.36,59.67c.77,2.54.77,2.54,3.46,4.37a7.59,7.59,0,0,0,9.71-.48,8,8,0,0,0,1.19-2.22c-.9-.16-1.79-.4-2.69-.47-1.41-.1-2.83,0-4.23-.15C233.43,142.28,231.14,141.89,228.3,141.48Zm-33.69,81.93A57.61,57.61,0,0,0,200.7,221a1.53,1.53,0,0,0-.28-3,16,16,0,0,0-6.5-.48c-1.71.34-3.19,1.89-4.77,2.9Zm-15.94,8.79,0,.52a6.28,6.28,0,0,0,1.31.43c5.5.63,11,1.27,16.52,1.82a7.23,7.23,0,0,0,3.18-.32c.67-.26,1.08-1.19,1.61-1.82-.63-.37-1.26-1-1.9-1.05-3.9-.09-7.8-.08-11.69,0C184.67,231.84,181.67,232.05,178.67,232.2Zm-10.38-23,.16.34c2.07-.69,4.22-1.23,6.21-2.11,1.41-.63,1.36-1.86.11-2.71-1.69-1.16-9.18-.42-10.78,1a2.12,2.12,0,0,0-.64,1.66,2,2,0,0,0,1.27,1.24A29.77,29.77,0,0,0,168.29,209.2Zm-16.58-16.38c-3.22-3.08-13.29-1.91-14.51,1.69C141.84,196.44,149.93,195.5,151.71,192.82Zm-42.12,27.05a13.81,13.81,0,0,0,3.83-.41c.94-.37,1.6-1.44,2.39-2.19-.75-.68-1.4-1.71-2.27-2a11.8,11.8,0,0,0-8.69,1c-.53.26-1.36,1-1.28,1.2.34.67.86,1.55,1.5,1.72A32.07,32.07,0,0,0,109.59,219.87ZM197.39,208c-1.64-2-10-3.3-12-1.74-1,.79-1.1,1.67.09,2.61C188.17,211,194.81,210.61,197.39,208Zm12-63.76c-.49-.74-.92-2.18-1.73-2.44-1.93-.62-1.83,1.22-2.23,2.44-.62,1.88-1.29,3.75-2.09,5.56-1,2.19-.51,3.08,1.84,2.71a3.72,3.72,0,0,0,2.54-1.77A48.81,48.81,0,0,0,209.42,144.27ZM145,182.12c-1.6-2.62-4.19-2.9-6.61-2.9a3.93,3.93,0,0,0-4.08,2.93C137.55,184.78,141.39,184.8,145,182.12Zm49.1,13.75c-2.2-2.48-9.37-2.44-11.92,0C184.68,199,190.69,199,194.07,195.87Zm20.83,11.49-.11-.4c-1.46.46-2.95.82-4.35,1.41-.59.24-1,1-1.46,1.47.65.57,1.33,1.65,1.94,1.61a42.81,42.81,0,0,0,6.73-1,1.75,1.75,0,0,0,.81-1.51,2.52,2.52,0,0,0-1.36-1.47A6.19,6.19,0,0,0,214.9,207.36ZM109.15,229.48c-3.58-2.24-9.23-2.25-10.65-.07C102.57,232.73,107,232.84,109.15,229.48Zm107.75-5.34a13.6,13.6,0,0,0,2.77-.42,2.47,2.47,0,0,0,1.41-1.39,1.77,1.77,0,0,0-.88-1.5c-1.44-.55-3-1.3-4.45-1.13s-2.52,1.4-3.77,2.16c1.17.72,2.33,1.48,3.53,2.14A4.18,4.18,0,0,0,216.9,224.14Zm-67-18.75-.33-1c-3,0-6,0-9,0-.39,0-.83.53-1.13.9-.95,1.17-.73,2.11.85,2.13a52.14,52.14,0,0,0,7.39-.4C148.48,207,149.14,206,149.87,205.39ZM244.38,109c2,2.57,4.59,4,6.69,3.3a3.15,3.15,0,0,0,1.85-1.65,2.4,2.4,0,0,0-.67-2.13C250.44,107,246.39,107.28,244.38,109ZM176,147.19c-1.91-1.64-3.68-3.21-5.51-4.71a3.65,3.65,0,0,0-4.51-.17C168.91,146.89,173.19,148.93,176,147.19Zm-44.94,68.5v-.1a21.43,21.43,0,0,0-3.43.4c-.62.17-1.09.88-1.62,1.34.54.56,1,1.51,1.62,1.61a12.33,12.33,0,0,0,4.65,0c1.14-.25,2.11-1.29,3.16-2-1.21-.44-2.41-.89-3.63-1.3A2.28,2.28,0,0,0,131.08,215.69Zm41-19.84c-1.94-1.9-6.69-2.11-8.3-.2a2.35,2.35,0,0,0,.53,2.22C166.49,199,170.34,197.86,172.07,195.85Zm-54.9-14.39-.27,1.27c.73.47,1.48,1.37,2.18,1.33a35.05,35.05,0,0,0,6-1c.48-.11.81-.84,1.22-1.28-.56-.38-1.14-1.11-1.68-1.08C122.13,180.83,119.65,181.18,117.17,181.46Zm52.16,39.47c2.67,0,4.92.12,7.14-.08.57,0,1.14-1,1.53-1.72.11-.18-.34-.87-.68-1.1C175.11,216.57,171,217.77,169.33,220.93ZM186.49,114c-2.05-2.18-4.42-3.33-3.61-6.5a13,13,0,0,0-4.15,2.79,2.55,2.55,0,0,0,.45,2.25C181.32,113.13,183.54,113.43,186.49,114Zm0,31.42c-.82-2.26-7-3.24-9.85-1.56C179.85,146.11,183.47,146.69,186.52,145.4ZM97.34,203c2.77,2,5.61,1.64,8.41,1,.44-.11.88-1.16.88-1.78,0-.33-1-1-1.4-.95C102.58,201.77,100,202.42,97.34,203Zm120.23-98.86,4,6.62,1,0c.37-1.14,1.27-2.41,1-3.39C222.91,105.06,220,103.57,217.57,104.16ZM83.31,216.77c4.46,1.1,7.78.62,9.25-1.26C89.4,214.21,84.61,214.78,83.31,216.77Zm74.23,1.31c-1.54-2.74-5.93-2.85-7.22-1-.16.24.55,1.59.83,1.58C153.29,218.56,155.42,218.28,157.54,218.08Zm-9-104.93c-1.1-1-1.92-2.15-2.48-2a12.52,12.52,0,0,0-3.39,1.77,38.77,38.77,0,0,0,3.88,2.56C146.69,115.52,147.52,114.32,148.52,113.15ZM83.29,226c.73,3.56,1.84,4.54,4.25,4.14.59-.09,1.47-.7,1.51-1.14a2.05,2.05,0,0,0-1-1.7A39.92,39.92,0,0,0,83.29,226ZM217.93,110.48c-.48-2.88-.85-5.22-1.33-7.53,0-.1-1.48-.2-1.63.07C214,104.78,215.4,109.15,217.93,110.48Zm-41,73.17c1.57,1.11,5.25,1.38,6.5.33a1.57,1.57,0,0,0,0-1.53C182.22,181.46,178,182.32,176.93,183.65Zm9.38-75.88c1.22,2.75,3.45,3.8,5,2.61C190.55,108,188.84,107.4,186.31,107.77Zm-47.19,3.9L142,109c-1.59-1.24-3-2.14-4.35-.72C137.36,108.57,138.49,110.25,139.12,111.67Zm69.26,15.59h-.62V134h.87C209.57,131.72,208.86,129.49,208.38,127.26Zm3.33-23.38-.82,0v4.74h.82Zm11,38.4c2.16,2.6,2.35,2.68,4.09,1.78C224.93,141.72,224.93,141.72,222.73,142.28Z" transform="translate(-0.33 -0.2)"/><path d="M325,161.05c-6.28,1.69-12.22,3.42-19,3.37C308.56,161.79,323.52,159.1,325,161.05Z" transform="translate(-0.33 -0.2)"/><path class="cls-3" d="M128.88,204.25c-.45-.42-.84-1.05-1.37-1.22a51.94,51.94,0,0,1-5.86-1.7c-.7-.32-1.05-1.76-1.26-2.75-.27-1.31.46-1.83,1.82-2A19.9,19.9,0,0,0,133.05,191c-2.49-.9-4.62-1.63-6.71-2.44-.63-.25-1.48-.66-1.64-1.17s.46-1.31,1-1.67c1.47-1.06,3.05-2,4.8-3a32.72,32.72,0,0,0,2.68,2.84c3,2.55,11.1,2.69,14.17.12,1.24-1,2.1-2.45.91-4.38a10.14,10.14,0,0,0-15.37-2.14,3.26,3.26,0,0,1-2.58.65,43.55,43.55,0,0,1-7.21-2.66,4,4,0,0,1-1.87-2.72c-.4-5-.55-10.13-.78-15.19-.11-2.55,2.76-5.29,5.59-5.21,5.73.15,11.47.24,17.2.61,9.61.61,19.2,1.47,28.81,2.1,3.65.24,7.33.08,11,.22,2.9.11,5.8.46,8.7.59,6.1.28,12.2.44,18.3.75,3.57.18,7.12.8,10.68.83,10.83.12,21.67.2,32.5,0,4.52-.09,9-1.11,13.56-1.37,2.89-.17,5.81.29,8.72.41,1.33.05,2.66-.1,4,0a9.52,9.52,0,0,1,3.81.5c4.45,2.28,9.28,2.42,14.06,2.72,2,.12,2.37.72,2.13,2.59-.78,6.15-1.47,12.31-2,18.48-.77,8.48-1.38,17-2.06,25.45,0,.49-.12,1-.14,1.49-.26,5.19-.69,10.39-.71,15.58a57.06,57.06,0,0,0,1,9.37c.31,1.83,1.17,3.46,3.44,3.76.48.06,1,.8,1.26,1.35,1,2.4-.64,6.73-3.06,7.86a23.8,23.8,0,0,1-6.19,2.09c-8.36,1.32-16.13,4.45-23.95,7.49-8.4,3.28-16.79,6.61-25.29,9.64a10.55,10.55,0,0,1-10.22-1.34c-1.24-.91-1.32-1.62-.11-2.69s2.67-2.28,3.26-3.73a20.72,20.72,0,0,1,6.84-8.39c3.89-3.06,7.86-6,11.8-9a4,4,0,0,1,.85-.5c8.88-4.05,14.78-11,19-19.56,2.29-4.69,4.82-9.31,6.54-14.2a88.89,88.89,0,0,0,3.86-15.41c.86-5.39.95-10.89,1.34-16.34a12.75,12.75,0,0,0-.19-2.12l-.66-.1c-1.07,3.85-2.07,7.7-3.21,11.52-2.12,7.15-4,14.41-6.59,21.38a66.5,66.5,0,0,1-11.85,20.63c-2.94,3.38-6.63,6.18-9.21,9.79-4,5.58-10.7,6.71-15.71,10.52-3.56,2.7-6.36,5.83-7.13,10.38a10.57,10.57,0,0,0,0,2.45,3.5,3.5,0,0,1-3.28,4.1,39.13,39.13,0,0,1-4.7-.23c-1.31-.08-2.63-.1-3.93-.25-2-.23-4-.62-6.08-.82-8.43-.81-16.86-1.62-25.29-2.34-5.76-.5-11.54-.71-17.28-1.33-5.42-.58-10.8-1.6-16.21-2.31-3.13-.41-6.29-.57-9.42-.9-6.51-.68-13-1.41-19.51-2.09-1.65-.17-3.31-.21-4.95-.39q-8.54-.93-17.07-1.91c-4.19-.48-8.36-1.28-12.56-1.42-7.21-.24-14.42-.07-21.64-.07-5.31,0-7.25-2.14-6.67-7.57a9.19,9.19,0,0,1,5.68-8.09c1.73-.77,3-2.66,4.36-4.12A35.39,35.39,0,0,0,74,227.07c1.29,5.13,6.57,5.25,8.85,9.57,1.39-5,5.4-4.94,8.28-6.36,2.15-1.07,4.72.49,5.87,2.67.46.88.8,1.84,1.34,2.67,1.49,2.25,2,2.21,3.84.19a4.65,4.65,0,0,1,2.12-1c1.78-.53,3.63-.85,5.38-1.47s3.58-2.07,2.81-4c-.6-1.51-2.41-3.38-3.88-3.57-4.87-.65-9.84-1.5-14.57,1.31-2.68,1.59-4.42-1.41-6.6-2.27a7.64,7.64,0,0,0-2.45-.63c-2.12-.09-4.25,0-6.38,0l0-.63a54.3,54.3,0,0,1,5-2.83,2.14,2.14,0,0,1,1.94.77c.89,1.67,1.41,1.29,2.5.12a11.21,11.21,0,0,1,3.38-1.89c1.11-.54,2.47-.75,3.35-1.53s2.52-2.92,2.26-3.25a11.52,11.52,0,0,0-4-2.92,9.32,9.32,0,0,0-3-.37l-.17-.75a68.88,68.88,0,0,1,7.41-3.44c1.63-.55,2.77.5,3,2.4.09.74.78,1.4,1.19,2.1.43-.71,1.19-1.41,1.2-2.13,0-1.67.73-2.47,2.32-2.64a1,1,0,0,0,.48-.13c1.53-1.17,3.8-2.08,4.37-3.62.79-2.08-1.67-3-3.23-4.11-1-.69-2.85-1.92-2.7-2.3a12.74,12.74,0,0,1,2.88-4.44c.86-.87,2.32-1.16,4-2-.47,4,2.51,4.36,4.83,5.52.82.41,1.86,1.3,1.94,2.07.17,1.64-.1,3.56-2.09,4.06-2.23.55-3.26,1.67-3.09,4s2,3.24,3.84,4.1a8.66,8.66,0,0,0,2,.43c2.08.43,2.6,1.52,1.72,3-3.45-.65-6.63-1.61-9.85-1.76-4.07-.18-7.48,1.93-10.44,4.59-.49.45-.76,2-.43,2.34a21.07,21.07,0,0,0,4.54,3.37,36.29,36.29,0,0,0,5.46,2,2.43,2.43,0,0,0,1.64.12c2.64-1.48,5.23-3.07,7.82-4.63.35-.21.65-.61,1-.66,2.36-.32,7,3.31,7.7,6.29-1.2,0-2.32,0-3.42,0-2.78-.16-5.29.37-7.29,2.51s-1.54,3.93.94,5.18c2.11,1.06,4.14,2.26,6.25,3.31.44.22,1.42.22,1.58,0,1.72-2.71,4.24-1.35,6.38-1.2,7.53.52,15,1.51,22.58,1.86,10.55.48,21.11.58,31.67.78,1.61,0,2.94.15,3.67,1.85.19.44.87.65,1.72,1.24.79-3.7,3.56-2.87,6-3.11a53.61,53.61,0,0,0,5.38-1.24,3.87,3.87,0,0,1,1.85.12c1.31.41,2.56,1,3.89,1.4,2.05.53,4.1.91,4.67,3.46.09.38.95,1,1.24.84.64-.23,1.54-.78,1.62-1.31.34-2.28,2-2.48,3.73-2.94a23.46,23.46,0,0,0,6-2.33c2.2-1.31,2.13-3.44-.11-4.65s-5-2.19-7.79-3.41a12.88,12.88,0,0,1,1.62-1.31c1.56-.89,3.24-1.61,4.74-2.59,1.17-.76,1.48-2,.13-2.83-2.46-1.48-5.06-2.72-7.61-4-.64-.33-1.3-.6-2.68-1.23,1.45-1,2.37-1.65,3.33-2.25a30.73,30.73,0,0,0,4.53-2.86,2.89,2.89,0,0,0,.17-2.85c-3-3.82-9.41-5.12-13.1-1.85-.8.7-1.87,1.1-2.64,1.83s-2.21,2-2,2.66a5.89,5.89,0,0,0,2.65,2.92c1,.61,2.42.51,3.6.89,1,.32,2.42.65,2.78,1.4.74,1.53-.58,2.34-1.87,2.94a10,10,0,0,0-1.7,1.06,2.77,2.77,0,0,0,0,4.59c.87.61,1.9,1,2.81,1.57s1.58,1.18,2.22,1.67c-3.31,1.43-6.28,2.77-9.32,4-.53.21-1.36-.22-2-.47-2-.78-4-1.56-5.87-2.46a17.63,17.63,0,0,1-2.39-1.62,11,11,0,0,1,2.24-2.32c1.34-.74,3.08-.85,4.28-1.73s2.37-2.38,2.21-3.41-1.79-2.32-3-2.8a43.81,43.81,0,0,0-6.22-1.37c-.84-.18-1.65-.46-2.48-.7a12.35,12.35,0,0,1,1.86-1.63c1.86-1,4-1.73,5.63-3,2.18-1.68,2.07-3.11-.32-4.41-2-1.09-4.36-1.52-6.47-2.46-.85-.38-1.45-1.33-2.16-2a21.8,21.8,0,0,1,2.3-1.41,33.25,33.25,0,0,0,3.66-1.56,3.41,3.41,0,0,0,1.66-2.2,2.87,2.87,0,0,0-1.59-2.22,74.79,74.79,0,0,0-8.64-1.91c-1.12-.19-2.34.28-3.48.16a6.4,6.4,0,0,1-2.07-1c.53-.7.91-1.69,1.61-2.07,2.17-1.15,4.72-1.73,6.66-3.17,3.3-2.44,2.69-5.76-1.25-7a21.35,21.35,0,0,0-13-.18c-2.09.67-3.73,1.94-3.65,4.46a5.13,5.13,0,0,0,3.52,4.94c1.24.48,2.7.8,3.58,1.68,1.5,1.51,2.44,3.54.88,5.57-1,1.27-.71,2.25.35,2.94a41.84,41.84,0,0,0,4.76,2.44c.84.41,1.72.74,3.21,1.37-2.86,1.65-5.08,3-7.35,4.19a1.38,1.38,0,0,1-1.22-.51c-1.3-3.14-4.06-3.92-7-4.51a6.53,6.53,0,0,1-1.2-.62c.67-.95,1.23-1.82,1.88-2.63,1.76-2.2,1.17-4.63-1.51-5.57-5-1.78-9.5-.62-13.37,2.94-1.69,1.56-1.32,3.37.8,4.28a6.79,6.79,0,0,1,1.18.37c.63.42,1.43.86,1.67,1.47.13.35-.69,1.1-1.15,1.62-.8.92-2,1.66-2.43,2.72-1.32,3.1.35,5.81,3.71,6.4a19.71,19.71,0,0,1,2.46.39,2.77,2.77,0,0,1,1.47,4,12.48,12.48,0,0,0-1.36,3.35c-.71,3.25.34,4.52,3.62,4.65.74,0,1.68-.17,2.2.2,4.14,3,6.68-.47,9.37-2.46,2.26-1.67,2.15-4.27-.19-5.84-1.71-1.15-3.85-1.68-5.82-2.45-.7-.27-1.45-.39-2.46-.66l8.53-6.1c.8,3.06,3.33,4.7,6.36,5.95,1.48.61,2,3.34,1.12,4.6-1.94,2.94-1.58,4.62,1.42,6.41.35.21.89.26,1.1.56.53.74,1.4,1.69,1.25,2.36s-1.36,1.16-2.2,1.46a6.89,6.89,0,0,1-2.23.06c-7.91,0-15.83.14-23.74-.08-2.92-.07-5.82-1-8.73-1.51a15.24,15.24,0,0,1,.77-3.48,8.42,8.42,0,0,1,2.07-2.47c.67-.59,1.65-.82,2.34-1.4,1.68-1.41,1.41-3.55-.45-4.73-3.85-2.42-7.74-1.93-11.68-.3-1.45-2.61-1-3.92,1.74-5.22.67-.31,1.62-.23,2.11-.69,1-.94,2.17-2,2.44-3.24.14-.62-1.34-2-2.35-2.42-1.79-.8-3.81-1.08-5.68-1.74a20.64,20.64,0,0,1-2.93-1.56l.2-1c1.23-.24,2.46-.49,3.69-.72,2.56-.49,5.19-1,6.55-3.5a2.81,2.81,0,0,0-.23-2.68,13,13,0,0,0-4.7-2.53c-4.64-1.15-9.14,0-13.39,1.8-1.33.56-3.07,2.35-3,3.47s2,2.47,3.33,3.24c1,.57,2.44.3,3.65.57.64.14,1.62.57,1.69,1a2.52,2.52,0,0,1-.71,2.11,32.21,32.21,0,0,1-5.12,3c-1.74.8-2.25,2.05-1,3.25a9.25,9.25,0,0,0,4.75,2.63c5.1.56,5.32.58,5.1,5.84s.06,5.52,5.23,5.69c1.61.05,2.48.58,2.68,2.25a18.21,18.21,0,0,0,.82,2.83,13.23,13.23,0,0,1-2.57.54c-5.17.05-10.33.11-15.5,0-1.78,0-4.21.29-4.6-2.35s1.88-3.05,3.74-3.85a14,14,0,0,0,4.07-2.7c2-1.87,1.24-4.49-1.43-5-3.42-.7-6.89-2.36-10.41-.2a2.05,2.05,0,0,1-1.45.25,10.19,10.19,0,0,1-1.94-.94c.42-.68.7-1.58,1.31-2,1.75-1.27,3.91-2.09,5.4-3.59s1-2.34-1.33-2.76Zm89.29,51.57.35-1a11,11,0,0,0-2.93-1.77q-7.38-1.68-14.84-3-6.62-1.2-13.31-2.05c-6.56-.84-13.12-1.7-19.71-2.23-5.88-.48-11.81-.35-17.69-.83-7.27-.58-14.49-1.62-21.75-2.26-5.91-.52-11.83-.75-17.75-1.09-8.45-.48-16.9-1.14-25.35-1.34-3.53-.08-7.1.77-10.62,1.34-.54.09-.95.94-1.42,1.43a8.09,8.09,0,0,0,1.62.85,31.77,31.77,0,0,0,5,1.23c5.85.68,11.7,1.31,17.57,1.78,7,.56,14.09.94,21.14,1.41,2.4.17,4.81.29,7.21.54,7.74.81,15.46,1.87,23.21,2.45s15.57.56,23.34,1.07c7.45.48,14.88,1.27,22.31,1.95,5.29.48,10.58,1.08,15.88,1.48C213,256,215.6,255.82,218.17,255.82Zm53.33-85.36-.18-.79a13.69,13.69,0,0,0-2.27-.68c-8.08-.91-16.15-2.09-24.25-2.56-8.3-.48-16.65-.29-25-.3q-34-.06-68,0a26.54,26.54,0,0,0-11.61,2.4,8.75,8.75,0,0,0,3.49,1.74,98.83,98.83,0,0,0,11.56,1.6c13.46.66,26.92,1.23,40.39,1.57,9.64.24,19.3.07,29,0,2.4,0,4.81-.27,7.22-.36,6.64-.26,13.28-.52,19.92-.74,5.65-.19,11.31-.28,17-.57C269.68,171.74,270.58,170.93,271.5,170.46Zm-17.21,34.89-.43-.75c-2.65-.54-5.35-.93-7.93-1.7-1-.29-1.71-1.44-2.55-2.2,1-.89,1.79-2.36,2.87-2.56a16.74,16.74,0,0,1,6.19.11,7.9,7.9,0,0,1,4.12,2.17c.38.41-.75,2.24-1.19,3.43a4.76,4.76,0,0,0,5.06-2.36c.8-1.93-.32-3.16-1.91-3.71-3-1-6.14-1.76-9.19-2.7a10.43,10.43,0,0,1-2-1.21,10.24,10.24,0,0,1,1.91-1.54c.73-.35,1.67-.24,2.41-.57,1.75-.8,3.55-1.71,3.7-4,.13-2-1.27-3-2.9-3.9-3.8-2.18-7.86-2.07-11.89-1.41a4.53,4.53,0,0,0-4.13,4,5.22,5.22,0,0,0,3.81,5.21,3.78,3.78,0,0,1,3,3.2,3.63,3.63,0,0,1-1.14,2.82c-.45.41-1.79.17-2.57-.16-1.51-.63-2.83-2-4.35-2.21-2.43-.37-5,0-7.45-.12-.76,0-2.07-.52-2.11-.9a4.42,4.42,0,0,1,.83-2.58,3.51,3.51,0,0,1,1.74-.92c2.18-.72,4.26-1.93,4.45-4.23.21-2.53-2.1-3.78-4.09-4.85-4.18-2.25-8.71-1.3-11.37,2.31-1.79,2.42-1.08,5.58,1.44,6.46,2.79,1,4.74,5,3.65,7.77-.85,2.18-.08,3.51,1.89,4.38,1.54.68,2.73,1.38,2.13,3.52a21.45,21.45,0,0,0-.51,5.2,2.91,2.91,0,0,0,.68,2,13.48,13.48,0,0,0,3.77,2.78c2.25.92,3.94,2,4.15,4.69,0,.57,1,1.06,1.51,1.59.53-.56,1.53-1.14,1.51-1.69-.08-2.9,2-3.43,4-4.23a14.61,14.61,0,0,0,4.66-2.69c1.85-1.72,1.52-3.38-.68-4.52-4.24-2.2-8.59-4-13.56-2.64-1.57.42-2.48-.35-2.7-2.07a8.53,8.53,0,0,1,1-.37c2.7-.64,5.39-1.3,8.1-1.86a3.06,3.06,0,0,1,1.85.29,40.12,40.12,0,0,1,5.4,2.92,8.63,8.63,0,0,1,2.25,2.83,18.81,18.81,0,0,1,1.14,3.08C251.7,209.72,249.76,205.18,254.29,205.35ZM160.1,175.78l-.31.67c-3-.12-6.31,1.65-7.13,4.07-.94,2.79.17,4.92,2.35,6.79,1.39,1.19,2.33,2.89,3.72,4.07a3,3,0,0,0,2.61-.12,41.57,41.57,0,0,0,3.38-2.51c1.3-.87,2.82-1.45,4-2.42,2.38-1.92,2.49-4.86-.07-6.51S163,177.1,160.1,175.78Zm43.2,17.74c1.53-2.62,1.56-2.52,4.43-3.41a11.14,11.14,0,0,0,3.68-2c2.05-1.69,1.9-4.05-.42-5.29a30.32,30.32,0,0,0-6.89-2.75,7.93,7.93,0,0,0-8.69,2.9c-1.91,2.47-.87,5,2,6.22C199.5,190.13,202.85,189.39,203.3,193.52Zm-3,5.51c4.95,4.82,10.85,4.57,16.72,3.34a4.35,4.35,0,0,0,2.22-7c-2.71-2.81-9.77-2.45-12.3.67l7.24.88-.11.89c-3.08,2-6.11,1-9-.49C202.5,196.09,201.48,196.35,200.27,199Z" transform="translate(-0.33 -0.2)"/><path class="cls-3" d="M200.22,113.39c-4-.79-5-4.33-6.22-7.08-1.81-4-4.83-5.89-8.64-7-1-.27-2.15.32-3.14.5-1.45-1.84,1.24-4.37-1.73-6.3-.24,2-.45,3.6-.62,5.19-.19,1.75-1.53,1.64-2.62,1.42-.66-.14-1.74-1.05-1.68-1.48.78-5.62,1.72-11.22,2.68-17.15,1.31.47,2.07.52,2.46.92,3.19,3.27,7.08,2,10.67,1.46,2.46-.4,3.14-3.21,1.45-5.11a59.9,59.9,0,0,0-4.69-4.3l-.62.68c1.09,1.25,2.26,2.45,3.26,3.77,1.34,1.78,1,2.62-1.13,3.09-3.32.73-6.1-.64-8.6-2.5-1.84-1.37-1.48-2.63,1-4.75,1.72.61.14,3.91,2.71,3.77.46-1.72.87-3.29,1.39-5.25l-1.11-.88.17-.44c.59.11,1.17.23,1.76.32,5,.75,10,1.6,15,2.21,4.57.56,9.17.95,13.77,1.26,2.55.18,5.12,0,7.68.1a16.57,16.57,0,0,1,2.1.29,21,21,0,0,1-.67,2.22,8.86,8.86,0,0,1-.92,1.48,2.3,2.3,0,0,1-3.6.75,30.88,30.88,0,0,0-3.76-2.38c-1.66-.82-3.24-1.24-5,.36-2,1.84-4.43.48-6.66,0-1.62-.32-3.22-.74-4.85-1a4.1,4.1,0,0,0-1.5.38l-.12.76a39.8,39.8,0,0,0,6,1.76c2.44.32,4.09,1,5.1,3.56a10.34,10.34,0,0,0,8.22,6.5c.91.17,2.32,1.23,2.36,1.94a25.14,25.14,0,0,1-.72,5.74,1.3,1.3,0,0,1-1.09.19,1.72,1.72,0,0,1-.59-1.16c-.09-.9,0-1.82,0-2.73l-.81-.06c-.15,1.17-.3,2.34-.46,3.55-3.69-1.17-7.08-.28-10.44.77-2.25.7-1.69,2.5-1.4,4.15,1,5.62,2.36,11.21,2.78,16.87.22,2.89-1.29,5.9-2.3,8.87-1.43-3.47-4.62-6.38-2.71-10.77C199.88,117.27,198.53,116,200.22,113.39Zm.3-10.41c1.62-3,.66-5.8.88-8.44s.42-5.42.53-8.13a10.38,10.38,0,0,0-.4-2.3c-.65.48-1.62.82-1.91,1.46-2.33,5.14-1.38,10.43-.45,15.68C199.25,101.73,199.83,102.12,200.52,103Zm-3.77-16.24-.89-.09A44.54,44.54,0,0,1,193.58,92c-1.16,2-.58,3.71.39,5.36.42.71,1.46,1,2.22,1.54.06-.9.15-1.81.16-2.72,0-1.2-.09-2.41,0-3.62C196.42,90.62,196.6,88.68,196.75,86.74Z" transform="translate(-0.33 -0.2)"/><path class="cls-3" d="M150.91,122.08c.22,2.25.29,3.84.55,5.39.33,2,.91,3.9,1.17,5.87a6,6,0,0,1-.69,2.27c-.71-.55-1.74-1-2.09-1.69-.67-1.41-.85-3-1.42-4.5-1.06-2.7-2.28-5.33-3.39-8a8.92,8.92,0,0,1-.37-1.85c2.87,0,5.58.09,8.28,0a7.12,7.12,0,0,0,3.51-1c.63-.42.68-1.69,1-2.58l-2-.32-1.53-.24-.07-.75,3-.6c-1.49-2.78-4.5-3.5-7.38-5.44l3.67-.47c3.47-.4,6.95-1.23,10.39-1.09,4.66.19,8.91-1.48,13.39-2,3.29-.38,6.51-1.33,9.79-1.76,2.33-.3,2.68.43,1.65,3-3.75-2.11-7.07-.48-10,1.75-1.31,1-2.76,3.38-2.41,4.64a6.32,6.32,0,0,0,4.22,3.57c3.72.72,7.63.87,11.1-1.4,1.07-.7,2.09-.69,2.61.71,2.18,5.9,4.38,11.8,6.5,17.72.56,1.58-.45,2.09-1.86,2.11-4.15.07-8.12-.13-12.18-1.73-6.33-2.5-12.69-1.7-19.05,1.11-2.76,1.22-6.27.77-9.45.94-.32,0-.8-.94-1-1.51-1.59-3.65-3.13-7.32-4.7-11C152,123,151.78,122.83,150.91,122.08Zm14.7-4.63-.62,0a5.09,5.09,0,0,0-.32,1.94,91.27,91.27,0,0,0,2.7,9.23c.68,1.78,4.93,1.86,6,.21a6.06,6.06,0,0,0,1.22-3.26c-.11-1.42-.93-2.78-1.48-4.27l-1.34.24c.14-1.4.27-2.75.34-3.4L168,116.45l-.9,4Zm-6.15-3.87c2.86,1.39,11.86-.85,13.45-3.25C170.09,108.38,161.63,110.33,159.46,113.58Z" transform="translate(-0.33 -0.2)"/><path class="cls-3" d="M215.3,117.91c-.29,5.23-.58,10.47-.88,16-.45-.39-.67-.5-.67-.59.36-5.82-1.67-11.28-2.61-16.9-.27-1.62.44-2.18,1.91-2,1.24.14,2.46.48,3.7.52,5.32.2,6.33-.39,8.41-5.14.85-2,1.45-2.54,3.29-.76s5.45.92,7.08-2a23.75,23.75,0,0,0-2.42-.1,15.09,15.09,0,0,1-2.93.38,8.07,8.07,0,0,1-2.35-1.17c.77-.86,1.49-1.76,2.33-2.54.22-.2.8,0,1.22,0,3.29.22,6.58.43,9.87.71a2.75,2.75,0,0,1,1.66.73c.16.17-.2,1.13-.56,1.46-1.76,1.58-2.62,3.84-1.44,5.57a9.83,9.83,0,0,0,5.35,3.51c2.26.56,4.79-.12,7.19,0,.91.06,2.52.91,2.53,1.42.09,5.56-.07,11.13-.18,16.69,0,.13-.18.26-.67.93-.37-2.51-.67-4.58-1-6.64l-.69,0c-.11,1.79-.36,3.58-.3,5.36.07,2-.82,2.46-2.68,2.58-4.29.27-7.54-1.94-11-4a16.2,16.2,0,0,0-18.23,1.26,8.75,8.75,0,0,1-2.63.87,12.64,12.64,0,0,1-.71-2.5c-.32-4-.52-8-.84-11.93a6.7,6.7,0,0,0-.78-1.88Zm14-5.8c-.39.76-1,1.38-1,2-.17,3.92-.34,7.86-.21,11.77.05,1.54,1.09,2.55,3,1.81a19.34,19.34,0,0,1,3.22-.63l1.47,1.91c.63-1.12,1.65-2.06,1.59-2.93-.26-3.74-.84-7.46-1.3-11.18l-.62.5c-.87-.52-1.73-1.08-2.63-1.55C231.7,113.26,230.59,112.75,229.27,112.11Z" transform="translate(-0.33 -0.2)"/><path class="cls-3" d="M148,147.55c-.28,5.1-.29,5.3-5.42,5-6.45-.32-12.93-.76-19.31-1.72-1.58-.24-3.42-2.43-4.08-4.14a7,7,0,0,1,.71-5.26c1.58-2.76,4.19-3.45,7.49-3,5.72.84,11.52,1.08,17.27,1.7a2.69,2.69,0,0,1,2,1.37A56.73,56.73,0,0,1,148,147.55Z" transform="translate(-0.33 -0.2)"/><path class="cls-3" d="M217.35,142.38c2.71,6.06,7.18,8.57,13.51,8.51,4.8,0,9.5-.06,13.51-3.16A9.63,9.63,0,0,0,247,144.9a2.66,2.66,0,0,1,3.49-1.51c.6.22,1,1.69,1,2.59a22.21,22.21,0,0,1-.77,4.11c0-.1,0,.07.08.2.62,1,1.25,2,1.88,3a13.65,13.65,0,0,1-3.39.87c-10.06-.1-20.11-.25-30.17-.52a36.51,36.51,0,0,1-6.6-1.09c-.45-.1-1.16-1-1.07-1.29.79-2.53,0-5.91,3.74-6.92C216,144.09,216.54,143.13,217.35,142.38Z" transform="translate(-0.33 -0.2)"/><path class="cls-3" d="M279.82,145c-.24,3.11-.33,5.7-.71,8.25a2.65,2.65,0,0,1-1.62,1.85,13.49,13.49,0,0,1-4.95-.13A26,26,0,0,0,259,155a3.18,3.18,0,0,1-2.55-.23c-.43-.4-.28-1.7,0-2.49a50.22,50.22,0,0,1,2.6-6.7,3.22,3.22,0,0,1,2.43-1.48c5.31.1,10.62.41,15.93.67C278.37,144.79,279.32,144.92,279.82,145Z" transform="translate(-0.33 -0.2)"/><path class="cls-3" d="M166.15,233c-1.44.11-2.88.33-4.31.32-9.87-.08-19.74-.09-29.6-.36a119.63,119.63,0,0,1-12.51-1.26c-.77-.1-1.43-1.07-2.14-1.63a9.81,9.81,0,0,1,1.74-1.73c2.36-1.38,4.73-1.23,7.4-.46a63.18,63.18,0,0,0,17.1,2.6c1.77,0,3.52.9,5.3,1.32a8.38,8.38,0,0,0,1.88.1c5,0,10.05,0,15.07,0Z" transform="translate(-0.33 -0.2)"/><path class="cls-3" d="M302.35,153a10.08,10.08,0,0,1-1.8,1.15c-4.59,1.61-9.21,1.79-13.67-.37-1.71-.83-2.6-4.27-1.86-6.51.65-2,2.23-2.73,4.24-2.8a12.35,12.35,0,0,1,8.29,2.66,10.42,10.42,0,0,0-2.43.69,17.65,17.65,0,0,0-2.23,1.85c.8.38,1.59,1.06,2.38,1.07C297.79,150.79,300.14,151.09,302.35,153Z" transform="translate(-0.33 -0.2)"/><path class="cls-3" d="M153.53,141.17c.67,2.89,1.33,5.78,2.08,9,2.55-1.68,2.67-3.78,2.91-5.92a8.3,8.3,0,0,1,1.24-2.54c.78.57,2,1,2.26,1.74,1.15,3.92,4,6.16,7.43,7.9-1.64,1.28-15.57,1.47-18.38.23,1.52-3.28-.65-7.23,1.54-10.48Z" transform="translate(-0.33 -0.2)"/><path class="cls-3" d="M206.4,234.39c1.58-2.63,6.5-4.53,9.53-3.94a32.1,32.1,0,0,1,5.27,1.44,2.91,2.91,0,0,1,1.39,1.77c.07.26-.9,1.15-1.47,1.22-3.68.47-7.37,1-11.07,1.09C208.91,236,207.73,235,206.4,234.39Z" transform="translate(-0.33 -0.2)"/><path class="cls-3" d="M187.91,151.53c1-.55,1.91-1.2,2.92-1.65,2.83-1.27,4.42-3.6,5.86-6.19.44-.79,1.53-1.23,2.32-1.83.63,1,1.86,2,1.79,2.9a37.29,37.29,0,0,1-1.47,6.76,1.47,1.47,0,0,1-1.08.87c-3.41.07-6.82,0-10.23,0Z" transform="translate(-0.33 -0.2)"/><path class="cls-3" d="M128.81,204.17a3.76,3.76,0,0,1-3.43,4.55,17.24,17.24,0,0,1-5.67.27,7.24,7.24,0,0,1-3.8-2.31c-1-1.16-.37-2.54,1.19-2.72a58.75,58.75,0,0,1,7.62-.37,27.26,27.26,0,0,1,4.16.66Z" transform="translate(-0.33 -0.2)"/><path class="cls-3" d="M211.94,81.81c0-2.59.83-3.23,3.16-2.07a15.13,15.13,0,0,1,5,3.5c.79,1,.43,2.87.59,4.36-1.4.05-3.07.63-4.14.06C214.26,86.46,211.67,85.16,211.94,81.81Z" transform="translate(-0.33 -0.2)"/><path class="cls-3" d="M228.3,141.48c2.84.41,5.13.8,7.44,1.05,1.4.16,2.82.05,4.23.15.9.07,1.79.31,2.69.47a8,8,0,0,1-1.19,2.22,7.59,7.59,0,0,1-9.71.48C229.07,144,229.07,144,228.3,141.48Z" transform="translate(-0.33 -0.2)"/><path class="cls-3" d="M194.61,223.41l-5.46-2.92c1.58-1,3.06-2.56,4.77-2.9a16,16,0,0,1,6.5.48,1.53,1.53,0,0,1,.28,3A57.61,57.61,0,0,1,194.61,223.41Z" transform="translate(-0.33 -0.2)"/><path class="cls-3" d="M178.67,232.2c3-.15,6-.36,9-.42,3.89-.08,7.79-.09,11.69,0,.64,0,1.27.68,1.9,1.05-.53.63-.94,1.56-1.61,1.82a7.23,7.23,0,0,1-3.18.32c-5.51-.55-11-1.19-16.52-1.82a6.28,6.28,0,0,1-1.31-.43Z" transform="translate(-0.33 -0.2)"/><path class="cls-3" d="M168.29,209.2a29.77,29.77,0,0,1-3.67-.54,2,2,0,0,1-1.27-1.24,2.12,2.12,0,0,1,.64-1.66c1.6-1.46,9.09-2.2,10.78-1,1.25.85,1.3,2.08-.11,2.71-2,.88-4.14,1.42-6.21,2.11Z" transform="translate(-0.33 -0.2)"/><path class="cls-3" d="M151.71,192.82c-1.78,2.68-9.87,3.62-14.51,1.69C138.42,190.91,148.49,189.74,151.71,192.82Z" transform="translate(-0.33 -0.2)"/><path class="cls-3" d="M109.59,219.87a32.07,32.07,0,0,1-4.52-.67c-.64-.17-1.16-1-1.5-1.72-.08-.16.75-.94,1.28-1.2a11.8,11.8,0,0,1,8.69-1c.87.26,1.52,1.29,2.27,2-.79.75-1.45,1.82-2.39,2.19A13.81,13.81,0,0,1,109.59,219.87Z" transform="translate(-0.33 -0.2)"/><path class="cls-3" d="M197.39,208c-2.58,2.58-9.22,3-11.91.87-1.19-.94-1.13-1.82-.09-2.61C187.41,204.73,195.75,206,197.39,208Z" transform="translate(-0.33 -0.2)"/><path class="cls-3" d="M209.42,144.27a48.81,48.81,0,0,1-1.67,6.5,3.72,3.72,0,0,1-2.54,1.77c-2.35.37-2.81-.52-1.84-2.71.8-1.81,1.47-3.68,2.09-5.56.4-1.22.3-3.06,2.23-2.44C208.5,142.09,208.93,143.53,209.42,144.27Z" transform="translate(-0.33 -0.2)"/><path class="cls-3" d="M145,182.12c-3.58,2.68-7.42,2.66-10.69,0a3.93,3.93,0,0,1,4.08-2.93C140.78,179.22,143.37,179.5,145,182.12Z" transform="translate(-0.33 -0.2)"/><path class="cls-3" d="M194.07,195.87c-3.38,3.13-9.39,3.15-11.92,0C184.7,193.43,191.87,193.39,194.07,195.87Z" transform="translate(-0.33 -0.2)"/><path class="cls-3" d="M214.9,207.36a6.19,6.19,0,0,1,2.2.06,2.52,2.52,0,0,1,1.36,1.47,1.75,1.75,0,0,1-.81,1.51,42.81,42.81,0,0,1-6.73,1c-.61,0-1.29-1-1.94-1.61.48-.51.87-1.23,1.46-1.47,1.4-.59,2.89-1,4.35-1.41Z" transform="translate(-0.33 -0.2)"/><path class="cls-3" d="M109.15,229.48c-2.15,3.36-6.58,3.25-10.65-.07C99.92,227.23,105.57,227.24,109.15,229.48Z" transform="translate(-0.33 -0.2)"/><path class="cls-3" d="M216.9,224.14a4.18,4.18,0,0,1-1.39-.14c-1.2-.66-2.36-1.42-3.53-2.14,1.25-.76,2.45-2,3.77-2.16s3,.58,4.45,1.13a1.77,1.77,0,0,1,.88,1.5,2.47,2.47,0,0,1-1.41,1.39A13.6,13.6,0,0,1,216.9,224.14Z" transform="translate(-0.33 -0.2)"/><path class="cls-3" d="M149.87,205.39c-.73.6-1.39,1.61-2.19,1.72a52.14,52.14,0,0,1-7.39.4c-1.58,0-1.8-1-.85-2.13.3-.37.74-.89,1.13-.9,3-.08,6,0,9,0Z" transform="translate(-0.33 -0.2)"/><path class="cls-3" d="M244.38,109c2-1.7,6.06-2,7.87-.48a2.4,2.4,0,0,1,.67,2.13,3.15,3.15,0,0,1-1.85,1.65C249,112.93,246.33,111.55,244.38,109Z" transform="translate(-0.33 -0.2)"/><path class="cls-3" d="M176,147.19c-2.83,1.74-7.11-.3-10-4.88a3.65,3.65,0,0,1,4.51.17C172.34,144,174.11,145.55,176,147.19Z" transform="translate(-0.33 -0.2)"/><path class="cls-3" d="M131.08,215.69a2.28,2.28,0,0,1,.74,0c1.22.41,2.42.86,3.63,1.3-1,.69-2,1.73-3.16,2a12.33,12.33,0,0,1-4.65,0c-.61-.1-1.08-1.05-1.62-1.61.53-.46,1-1.17,1.62-1.34a21.43,21.43,0,0,1,3.43-.4Z" transform="translate(-0.33 -0.2)"/><path class="cls-3" d="M172.07,195.85c-1.73,2-5.58,3.13-7.77,2a2.35,2.35,0,0,1-.53-2.22C165.38,193.74,170.13,194,172.07,195.85Z" transform="translate(-0.33 -0.2)"/><path class="cls-3" d="M117.17,181.46c2.48-.28,5-.63,7.44-.78.54,0,1.12.7,1.68,1.08-.41.44-.74,1.17-1.22,1.28a35.05,35.05,0,0,1-6,1c-.7,0-1.45-.86-2.18-1.33Z" transform="translate(-0.33 -0.2)"/><path class="cls-3" d="M169.33,220.93c1.69-3.16,5.78-4.36,8-2.9.34.23.79.92.68,1.1-.39.67-1,1.67-1.53,1.72C174.25,221.05,172,220.93,169.33,220.93Z" transform="translate(-0.33 -0.2)"/><path class="cls-3" d="M186.49,114c-3-.55-5.17-.85-7.31-1.46a2.55,2.55,0,0,1-.45-2.25,13,13,0,0,1,4.15-2.79C182.07,110.65,184.44,111.8,186.49,114Z" transform="translate(-0.33 -0.2)"/><path class="cls-3" d="M186.52,145.4c-3.05,1.29-6.67.71-9.85-1.56C179.55,142.16,185.7,143.14,186.52,145.4Z" transform="translate(-0.33 -0.2)"/><path class="cls-3" d="M97.34,203c2.62-.6,5.24-1.25,7.89-1.74.42-.08,1.41.62,1.4.95,0,.62-.44,1.67-.88,1.78C103,204.66,100.11,205,97.34,203Z" transform="translate(-0.33 -0.2)"/><path class="cls-3" d="M217.57,104.16c2.44-.59,5.34.9,6,3.28.25,1-.65,2.25-1,3.39l-1,0Z" transform="translate(-0.33 -0.2)"/><path class="cls-3" d="M83.31,216.77c1.3-2,6.09-2.56,9.25-1.26C91.09,217.39,87.77,217.87,83.31,216.77Z" transform="translate(-0.33 -0.2)"/><path class="cls-3" d="M157.54,218.08c-2.12.2-4.25.48-6.39.54-.28,0-1-1.34-.83-1.58C151.61,215.23,156,215.34,157.54,218.08Z" transform="translate(-0.33 -0.2)"/><path class="cls-3" d="M148.52,113.15c-1,1.17-1.83,2.37-2,2.29a38.77,38.77,0,0,1-3.88-2.56,12.52,12.52,0,0,1,3.39-1.77C146.6,111,147.42,112.2,148.52,113.15Z" transform="translate(-0.33 -0.2)"/><path class="cls-3" d="M83.29,226a39.92,39.92,0,0,1,4.77,1.3,2.05,2.05,0,0,1,1,1.7c0,.44-.92,1.05-1.51,1.14C85.13,230.54,84,229.56,83.29,226Z" transform="translate(-0.33 -0.2)"/><path class="cls-3" d="M217.93,110.48c-2.53-1.33-4-5.7-3-7.46.15-.27,1.61-.17,1.63-.07C217.08,105.26,217.45,107.6,217.93,110.48Z" transform="translate(-0.33 -0.2)"/><path class="cls-3" d="M176.93,183.65c1.11-1.33,5.29-2.19,6.47-1.2a1.57,1.57,0,0,1,0,1.53C182.18,185,178.5,184.76,176.93,183.65Z" transform="translate(-0.33 -0.2)"/><path class="cls-3" d="M186.31,107.77c2.53-.37,4.24.26,5,2.62C189.76,111.57,187.53,110.52,186.31,107.77Z" transform="translate(-0.33 -0.2)"/><path class="cls-3" d="M139.12,111.67c-.63-1.42-1.76-3.1-1.46-3.42,1.34-1.42,2.76-.52,4.35.72Z" transform="translate(-0.33 -0.2)"/><path class="cls-3" d="M208.38,127.26c.48,2.23,1.19,4.46.25,6.71h-.87v-6.71Z" transform="translate(-0.33 -0.2)"/><path class="cls-3" d="M211.71,103.88v4.77h-.82v-4.74Z" transform="translate(-0.33 -0.2)"/><path class="cls-3" d="M222.73,142.28c2.2-.56,2.2-.56,4.09,1.78C225.08,145,224.89,144.88,222.73,142.28Z" transform="translate(-0.33 -0.2)"/><path d="M218.17,255.82c-2.57,0-5.14.16-7.69,0-5.3-.4-10.59-1-15.88-1.48-7.43-.68-14.86-1.47-22.31-1.95-7.77-.51-15.58-.49-23.34-1.07s-15.47-1.64-23.21-2.45c-2.4-.25-4.81-.37-7.21-.54-7-.47-14.1-.85-21.14-1.41-5.87-.47-11.72-1.1-17.57-1.78a31.77,31.77,0,0,1-5-1.23,8.09,8.09,0,0,1-1.62-.85c.47-.49.88-1.34,1.42-1.43,3.52-.57,7.09-1.42,10.62-1.34,8.45.2,16.9.86,25.35,1.34,5.92.34,11.84.57,17.75,1.09,7.26.64,14.48,1.68,21.75,2.26,5.88.48,11.81.35,17.69.83,6.59.53,13.15,1.39,19.71,2.23q6.69.86,13.31,2.05,7.45,1.35,14.84,3a11,11,0,0,1,2.93,1.77Z" transform="translate(-0.33 -0.2)"/><path d="M271.5,170.46c-.92.47-1.82,1.28-2.75,1.33-5.65.29-11.31.38-17,.57-6.64.22-13.28.48-19.92.74-2.41.09-4.82.34-7.22.36-9.66,0-19.32.21-29,0-13.47-.34-26.93-.91-40.39-1.57a98.83,98.83,0,0,1-11.56-1.6,8.75,8.75,0,0,1-3.49-1.74,26.54,26.54,0,0,1,11.61-2.4q34,0,68,0c8.33,0,16.68-.18,25,.3,8.1.47,16.17,1.65,24.25,2.56a13.69,13.69,0,0,1,2.27.68Z" transform="translate(-0.33 -0.2)"/><path d="M254.29,205.35c-4.53-.17-2.59,4.37-5.42,6.2a18.81,18.81,0,0,0-1.14-3.08,8.63,8.63,0,0,0-2.25-2.83,40.12,40.12,0,0,0-5.4-2.92,3.06,3.06,0,0,0-1.85-.29c-2.71.56-5.4,1.22-8.1,1.86a8.53,8.53,0,0,0-1,.37c.22,1.72,1.13,2.49,2.7,2.07,5-1.34,9.32.44,13.56,2.64,2.2,1.14,2.53,2.8.68,4.52a14.61,14.61,0,0,1-4.66,2.69c-2.09.8-4.12,1.33-4,4.23,0,.55-1,1.13-1.51,1.69-.53-.53-1.47-1-1.51-1.59-.21-2.7-1.9-3.77-4.15-4.69a13.48,13.48,0,0,1-3.77-2.78,2.91,2.91,0,0,1-.68-2,21.45,21.45,0,0,1,.51-5.2c.6-2.14-.59-2.84-2.13-3.52-2-.87-2.74-2.2-1.89-4.38,1.09-2.8-.86-6.8-3.65-7.77-2.52-.88-3.23-4-1.44-6.46,2.66-3.61,7.19-4.56,11.37-2.31,2,1.07,4.3,2.32,4.09,4.85-.19,2.3-2.27,3.51-4.45,4.23a3.51,3.51,0,0,0-1.74.92,4.42,4.42,0,0,0-.83,2.58c0,.38,1.35.87,2.11.9,2.48.11,5-.25,7.45.12,1.52.23,2.84,1.58,4.35,2.21.78.33,2.12.57,2.57.16a3.63,3.63,0,0,0,1.14-2.82,3.78,3.78,0,0,0-3-3.2,5.22,5.22,0,0,1-3.81-5.21,4.53,4.53,0,0,1,4.13-4c4-.66,8.09-.77,11.89,1.41,1.63.93,3,1.86,2.9,3.9-.15,2.25-1.95,3.16-3.7,4-.74.33-1.68.22-2.41.57a10.24,10.24,0,0,0-1.91,1.54,10.43,10.43,0,0,0,2,1.21c3,.94,6.17,1.66,9.19,2.7,1.59.55,2.71,1.78,1.91,3.71a4.76,4.76,0,0,1-5.06,2.36c.44-1.19,1.57-3,1.19-3.43a7.9,7.9,0,0,0-4.12-2.17,16.74,16.74,0,0,0-6.19-.11c-1.08.2-1.92,1.67-2.87,2.56.84.76,1.57,1.91,2.55,2.2,2.58.77,5.28,1.16,7.93,1.7Zm-25,5.81a8.33,8.33,0,0,0,1.16,1.74c2.19,1.88,9,2.11,11.4.35,1.34-1,.8-2.06-.32-2.79C238.29,208.34,232.72,208.61,229.33,211.16Zm1.45-9.57a24,24,0,0,0,4-.49,2.54,2.54,0,0,0,1.38-1.71c.08-.37-.73-1.17-1.29-1.41-2.89-1.23-5.72-.28-8.51.49a1.41,1.41,0,0,0,.28,2.73A36,36,0,0,0,230.78,201.59Zm13.73-12.25a36.47,36.47,0,0,0,4.06-.36,5.69,5.69,0,0,0,1.72-1c-.48-.62-.83-1.51-1.46-1.8a10,10,0,0,0-8.21-.19c-.56.23-1.29,1-1.27,1.45a2.08,2.08,0,0,0,1.31,1.47A27.26,27.26,0,0,0,244.51,189.34Zm-17.22-2.56c-1.74-2.16-5.2-3.22-7.24-2.13-.77.41-1.73,1.56-1.63,2.21a3.16,3.16,0,0,0,2,2.09A6.68,6.68,0,0,0,227.29,186.78Z" transform="translate(-0.33 -0.2)"/><path d="M160.1,175.78c2.88,1.32,6,2.34,8.58,4s2.45,4.59.07,6.51c-1.21,1-2.73,1.55-4,2.42a41.57,41.57,0,0,1-3.38,2.51,3,3,0,0,1-2.61.12c-1.39-1.18-2.33-2.88-3.72-4.07-2.18-1.87-3.29-4-2.35-6.79.82-2.42,4.1-4.19,7.13-4.07Zm-1.32,9.27a32,32,0,0,0,5.19-1.81c1.45-.81,1.37-2.68-.14-3.07a22.49,22.49,0,0,0-6.5-.52,2,2,0,0,0-1.7,2.92C156.24,183.68,157.77,184.29,158.78,185.05Z" transform="translate(-0.33 -0.2)"/><path d="M203.3,193.52c-.45-4.13-3.8-3.39-5.93-4.32-2.83-1.24-3.87-3.75-2-6.22a7.93,7.93,0,0,1,8.69-2.9,30.32,30.32,0,0,1,6.89,2.75c2.32,1.24,2.47,3.6.42,5.29a11.14,11.14,0,0,1-3.68,2C204.86,191,204.83,190.9,203.3,193.52Zm2.36-8.09,0-.89c-1.82,0-3.63-.08-5.44.06-.46,0-.87.75-1.31,1.15.42.45.76,1.18,1.26,1.3A6.14,6.14,0,0,0,205.66,185.43Z" transform="translate(-0.33 -0.2)"/><path d="M200.27,199c1.21-2.68,2.23-2.94,4.72-1.7,2.94,1.46,6,2.46,9,.49l.11-.89-7.24-.88c2.53-3.12,9.59-3.48,12.3-.67a4.35,4.35,0,0,1-2.22,7C211.12,203.6,205.22,203.85,200.27,199Z" transform="translate(-0.33 -0.2)"/><path d="M200.52,103c-.69-.86-1.27-1.25-1.35-1.73-.93-5.25-1.88-10.54.45-15.68.29-.64,1.26-1,1.91-1.46a10.38,10.38,0,0,1,.4,2.3c-.11,2.71-.31,5.42-.53,8.13S202.14,100,200.52,103Z" transform="translate(-0.33 -0.2)"/><path d="M196.75,86.74c-.15,1.94-.33,3.88-.43,5.82-.06,1.21.05,2.42,0,3.62,0,.91-.1,1.82-.16,2.72-.76-.5-1.8-.83-2.22-1.54-1-1.65-1.55-3.38-.39-5.36a44.54,44.54,0,0,0,2.28-5.35Z" transform="translate(-0.33 -0.2)"/><path d="M165.61,117.45l1.53,3,.9-4,4.05,1.73c-.07.65-.2,2-.34,3.4l1.34-.24c.55,1.49,1.37,2.85,1.48,4.27a6.06,6.06,0,0,1-1.22,3.26c-1,1.65-5.3,1.57-6-.21a91.27,91.27,0,0,1-2.7-9.23,5.09,5.09,0,0,1,.32-1.94Z" transform="translate(-0.33 -0.2)"/><path d="M159.46,113.58c2.17-3.25,10.63-5.2,13.45-3.25C171.32,112.73,162.32,115,159.46,113.58Z" transform="translate(-0.33 -0.2)"/><path d="M229.27,112.11c1.32.64,2.43,1.15,3.51,1.73.9.47,1.76,1,2.63,1.55l.62-.5c.46,3.72,1,7.44,1.3,11.18.06.87-1,1.81-1.59,2.93l-1.47-1.91a19.34,19.34,0,0,0-3.22.63c-1.9.74-2.94-.27-3-1.81-.13-3.91,0-7.85.21-11.77C228.29,113.49,228.88,112.87,229.27,112.11Z" transform="translate(-0.33 -0.2)"/><path class="cls-3" d="M229.33,211.16c3.39-2.55,9-2.82,12.24-.7,1.12.73,1.66,1.79.32,2.79-2.38,1.76-9.21,1.53-11.4-.35A8.33,8.33,0,0,1,229.33,211.16Z" transform="translate(-0.33 -0.2)"/><path class="cls-3" d="M230.78,201.59a36,36,0,0,1-4.13-.39,1.41,1.41,0,0,1-.28-2.73c2.79-.77,5.62-1.72,8.51-.49.56.24,1.37,1,1.29,1.41a2.54,2.54,0,0,1-1.38,1.71A24,24,0,0,1,230.78,201.59Z" transform="translate(-0.33 -0.2)"/><path class="cls-3" d="M244.51,189.34a27.26,27.26,0,0,1-3.85-.48,2.08,2.08,0,0,1-1.31-1.47c0-.47.71-1.22,1.27-1.45a10,10,0,0,1,8.21.19c.63.29,1,1.18,1.46,1.8a5.69,5.69,0,0,1-1.72,1A36.47,36.47,0,0,1,244.51,189.34Z" transform="translate(-0.33 -0.2)"/><path class="cls-3" d="M227.29,186.78a6.68,6.68,0,0,1-6.87,2.17,3.16,3.16,0,0,1-2-2.09c-.1-.65.86-1.8,1.63-2.21C222.09,183.56,225.55,184.62,227.29,186.78Z" transform="translate(-0.33 -0.2)"/><path class="cls-3" d="M158.78,185.05c-1-.76-2.54-1.37-3.15-2.48a2,2,0,0,1,1.7-2.92,22.49,22.49,0,0,1,6.5.52c1.51.39,1.59,2.26.14,3.07A32,32,0,0,1,158.78,185.05Z" transform="translate(-0.33 -0.2)"/><path class="cls-3" d="M205.66,185.43a6.14,6.14,0,0,1-5.53,1.62c-.5-.12-.84-.85-1.26-1.3.44-.4.85-1.12,1.31-1.15,1.81-.14,3.62-.06,5.44-.06Z" transform="translate(-0.33 -0.2)"/></g></g></g></svg>